<svg width="100" height="100" viewBox="0 0 100 100" fill="none" xmlns="http://www.w3.org/2000/svg">
<g clip-path="url(#clip0_1_174)">
<circle cx="50" cy="50" r="47" fill="#231F20"/>
<g clip-path="url(#clip1_1_174)">
<path d="M52.8358 40.787C59.5431 40.787 62.2684 41.8598 62.2684 44.9852C60.7031 46.55 52.8358 45.2871 52.8358 40.787ZM49.9997 93.815C49.9078 93.815 49.8154 93.8139 49.7229 93.8129C43.4382 76.3302 54.8419 58.6562 73.1233 58.6562C82.7392 58.6562 86.2208 47.6463 85.6745 42.3742C85.6202 41.9637 85.2922 41.6634 84.9094 41.6634L66.8928 41.6368C66.581 41.6362 66.2854 41.4994 66.0838 41.2618L64.2286 39.0775C63.3203 38.0079 62.0109 37.3618 60.6107 37.2923L57.0032 37.1121C56.5467 37.0886 56.1649 36.77 56.0416 36.3297C54.5186 30.8989 51.5243 26.5707 49.1009 24.5337C48.94 24.3984 48.694 24.4648 48.5989 24.6523C47.3178 27.188 46.3343 29.6882 45.824 32.6376C45.7848 32.8617 45.4887 32.8617 45.3722 32.6361C43.2298 28.4744 40.4658 24.553 37.6104 21.705C37.4689 21.564 37.2375 21.5802 37.1184 21.7405C34.6558 25.0717 31.6374 30.8592 31.112 41.4848C31.0885 41.9564 30.7663 42.3534 30.3087 42.4698C25.6781 43.6471 19.4377 47.0127 17.2869 48.2187C16.7991 48.4914 16.8905 48.6888 17.301 48.7353C17.7115 48.7828 24.5024 49.4936 24.7996 49.525C25.0968 49.5563 25.2158 49.7971 24.8455 49.935C21.1895 51.2961 13.7076 56.0489 11.4079 57.5338C10.9703 57.8169 11.2492 58.0002 11.4952 58.0175C11.7401 58.0342 19.655 58.3956 20.0159 58.4123C20.3768 58.429 20.5585 58.7414 20.0968 58.8949C19.8446 58.979 13.7504 61.3168 8.27836 63.4175C6.91988 59.189 6.18553 54.6805 6.18553 50.0003C6.18553 25.8019 25.8019 6.18554 49.9997 6.18554C74.1987 6.18554 93.815 25.8019 93.815 50.0003C93.815 74.1992 74.1987 93.815 49.9997 93.815ZM49.9997 -2.68385e-06C22.4299 -2.68385e-06 0 22.4299 0 50.0003C0 77.5701 22.4299 100 49.9997 100C77.5696 100 100 77.5701 100 50.0003C100 22.4299 77.5696 -2.68385e-06 49.9997 -2.68385e-06Z" fill="white"/>
</g>
</g>
<defs>
<clipPath id="clip0_1_174">
<rect width="100" height="100" fill="white"/>
</clipPath>
<clipPath id="clip1_1_174">
<rect width="100" height="100" fill="white"/>
</clipPath>
</defs>
</svg>
