<svg width="1509" height="420" viewBox="0 0 1509 420" fill="none" xmlns="http://www.w3.org/2000/svg">
<path d="M616.906 320.801H698.628V353.769H575.819V71.0596H695.467V104.027H616.906V191.189H681.921V224.157H616.906V320.801ZM851.584 209.253L912.084 353.769H866.935L829.008 246.285L791.082 353.769H747.287L806.885 209.253L751.351 71.0596H796.5L829.008 172.673L861.969 71.0596H906.215L851.584 209.253ZM975.767 71.0596H1068.32C1096.32 71.0596 1110.31 84.3069 1110.31 110.802V204.737C1110.31 231.231 1096.32 244.479 1068.32 244.479H1016.4V353.769H975.767V71.0596ZM1069.68 198.415V117.124C1069.68 111.705 1068.78 108.242 1066.97 106.737C1065.16 104.931 1061.55 104.027 1056.13 104.027H1016.4V211.962H1056.13C1061.55 211.962 1065.16 211.059 1066.97 209.253C1068.78 207.447 1069.68 203.834 1069.68 198.415ZM1225.42 320.801H1295.4V353.769H1184.78V71.0596H1225.42V320.801ZM1399.14 71.0596H1449.26C1477.26 71.0596 1491.25 84.3069 1491.25 110.802V314.027C1491.25 340.522 1477.26 353.769 1449.26 353.769H1399.14C1370.85 353.769 1356.71 340.522 1356.71 314.027V110.802C1356.71 84.3069 1370.85 71.0596 1399.14 71.0596ZM1450.61 307.705V117.124C1450.61 111.705 1449.72 108.242 1447.91 106.737C1446.09 104.931 1442.49 104.027 1437.07 104.027H1410.89C1405.47 104.027 1401.85 104.931 1400.05 106.737C1398.54 108.242 1397.79 111.705 1397.79 117.124V307.705C1397.79 313.124 1398.54 316.736 1400.05 318.544C1401.85 320.049 1405.47 320.801 1410.89 320.801H1437.07C1442.49 320.801 1446.09 320.049 1447.91 318.544C1449.72 316.736 1450.61 313.124 1450.61 307.705Z" fill="#0A2979"/>
<path d="M616.906 320.801H698.628V353.769H575.819V71.0596H695.467V104.027H616.906V191.189H681.921V224.157H616.906V320.801ZM851.584 209.253L912.084 353.769H866.935L829.008 246.285L791.082 353.769H747.287L806.885 209.253L751.351 71.0596H796.5L829.008 172.673L861.969 71.0596H906.215L851.584 209.253ZM975.767 71.0596H1068.32C1096.32 71.0596 1110.31 84.3069 1110.31 110.802V204.737C1110.31 231.231 1096.32 244.479 1068.32 244.479H1016.4V353.769H975.767V71.0596ZM1069.68 198.415V117.124C1069.68 111.705 1068.78 108.242 1066.97 106.737C1065.16 104.931 1061.55 104.027 1056.13 104.027H1016.4V211.962H1056.13C1061.55 211.962 1065.16 211.059 1066.97 209.253C1068.78 207.447 1069.68 203.834 1069.68 198.415ZM1225.42 320.801H1295.4V353.769H1184.78V71.0596H1225.42V320.801ZM1399.14 71.0596H1449.26C1477.26 71.0596 1491.25 84.3069 1491.25 110.802V314.027C1491.25 340.522 1477.26 353.769 1449.26 353.769H1399.14C1370.85 353.769 1356.71 340.522 1356.71 314.027V110.802C1356.71 84.3069 1370.85 71.0596 1399.14 71.0596ZM1450.61 307.705V117.124C1450.61 111.705 1449.72 108.242 1447.91 106.737C1446.09 104.931 1442.49 104.027 1437.07 104.027H1410.89C1405.47 104.027 1401.85 104.931 1400.05 106.737C1398.54 108.242 1397.79 111.705 1397.79 117.124V307.705C1397.79 313.124 1398.54 316.736 1400.05 318.544C1401.85 320.049 1405.47 320.801 1410.89 320.801H1437.07C1442.49 320.801 1446.09 320.049 1447.91 318.544C1449.72 316.736 1450.61 313.124 1450.61 307.705Z" fill="#E6E7EA"/>
<circle cx="378" cy="80.4004" r="43" fill="#FC3D21"/>
<mask id="mask0_26_128" style="mask-type:alpha" maskUnits="userSpaceOnUse" x="0" y="0" width="420" height="420">
<path d="M209.937 419.979C325.882 419.979 419.875 325.963 419.875 209.989C419.875 94.0154 325.882 0 209.937 0C93.9921 0 0 94.0154 0 209.989C0 325.963 93.9921 419.979 209.937 419.979Z" fill="#115BB8"/>
</mask>
<g mask="url(#mask0_26_128)">
<path d="M205.341 425.292C323.814 425.292 419.856 329.227 419.856 210.724C419.856 92.2209 323.814 -3.84473 205.341 -3.84473C86.867 -3.84473 -9.17493 92.2209 -9.17493 210.724C-9.17493 329.227 86.867 425.292 205.341 425.292Z" fill="#0B3D91"/>
<path d="M328.801 365.886C471.836 365.886 587.788 249.904 587.788 106.834C587.788 -36.2374 471.836 -152.22 328.801 -152.22C185.765 -152.22 69.8118 -36.2374 69.8118 106.834C69.8118 249.904 185.765 365.886 328.801 365.886Z" fill="#0053BB"/>
<path d="M351.857 272.199C450.103 272.199 529.748 192.535 529.748 94.2636C529.748 -4.00746 450.103 -83.6719 351.857 -83.6719C253.61 -83.6719 173.965 -4.00746 173.965 94.2636C173.965 192.535 253.61 272.199 351.857 272.199Z" fill="#0069ED"/>
<path d="M349.372 48.4786C349.301 48.5416 349.232 48.6068 349.167 48.6739L121.028 281.305C119.425 282.94 119.298 285.515 120.734 287.299C122.169 289.084 124.712 289.509 126.651 288.292L395.985 119.198C401.36 116.715 406.158 113.144 410.075 108.741C415.874 102.22 419.742 93.8679 420.667 84.5272C422.998 60.9884 405.796 40.0215 382.256 37.6901C369.773 36.454 358.007 40.7099 349.372 48.4786Z" fill="#FC3D21" stroke="#FC3D21" stroke-width="0.691849" stroke-linejoin="round"/>
<path d="M349.372 48.4786C349.301 48.5416 349.232 48.6068 349.167 48.6739L121.028 281.305C119.425 282.94 119.298 285.515 120.734 287.299C122.169 289.084 124.712 289.509 126.651 288.292L395.985 119.198C401.36 116.715 406.158 113.144 410.075 108.741C415.874 102.22 419.742 93.8679 420.667 84.5272C422.998 60.9884 405.796 40.0215 382.256 37.6901C369.773 36.454 358.007 40.7099 349.372 48.4786Z" fill="#FC3D21" stroke="#FC3D21" stroke-width="0.691849" stroke-linejoin="round"/>
</g>
</svg>
