<svg xmlns="http://www.w3.org/2000/svg" height="60" fill="none" viewBox="0 3 96 24" alt="Composio logo"><path fill="#9A4DFF" d="M11.387 6.2H7.192C3.22 6.2 0 9.597 0 13.787v4.426c0 4.19 3.22 7.587 7.192 7.587h4.195c3.971 0 7.191-3.397 7.191-7.587v-4.426c0-4.19-3.22-7.587-7.191-7.587"></path><path stroke="url(#a)" stroke-width="1.44" d="M11.986 6.2H6.592C2.952 6.2 0 9.314 0 13.155v5.69C0 22.686 2.951 25.8 6.592 25.8h5.394c3.64 0 6.592-3.114 6.592-6.955v-5.69c0-3.841-2.951-6.955-6.592-6.955Z"></path><mask id="b" width="10" height="10" x="4" y="11" maskUnits="userSpaceOnUse" style="mask-type:luminance"><path fill="#fff" d="M4.795 11.258h8.99v9.484h-8.99z"></path></mask><g mask="url(#b)"><path fill="#fff" fill-rule="evenodd" d="M10.263 11.73a.33.33 0 0 1 .138.163c.028.069.033.146.014.218l-.846 3.275h3.088q.096.001.175.056a.33.33 0 0 1 .118.147.35.35 0 0 1-.06.363l-4.462 5.045a.304.304 0 0 1-.39.066.33.33 0 0 1-.139-.165.35.35 0 0 1-.012-.22l.847-3.274h-3.09a.3.3 0 0 1-.174-.055.33.33 0 0 1-.118-.148.35.35 0 0 1 .06-.363l4.462-5.044a.304.304 0 0 1 .388-.065" clip-rule="evenodd"></path></g><path fill="#000000" d="M26.148 16.05c-.045-2.835 2.4-5.19 5.28-5.13 1.875 0 3.48.915 4.365 2.46l-1.53 1.08q-1.058-1.665-2.835-1.665c-1.845 0-3.195 1.38-3.195 3.27s1.35 3.24 3.195 3.24q1.777 0 2.835-1.665l1.53 1.08c-.855 1.545-2.475 2.46-4.38 2.46-2.895.06-5.325-2.295-5.265-5.13m10.365 1.23c-.045-2.115 1.8-3.915 3.975-3.87 2.175-.03 4.035 1.755 3.99 3.87.045 2.115-1.83 3.93-4.005 3.885-2.175.045-4.005-1.77-3.96-3.885m5.895.015c0-1.155-.825-2.04-1.92-2.04-1.125 0-1.92.855-1.92 2.04 0 1.155.795 2.01 1.92 2.01 1.095 0 1.92-.855 1.92-2.01m14.796-.9V21h-2.025v-4.32c0-.885-.525-1.44-1.32-1.44s-1.365.57-1.365 1.395V21h-2.025v-4.32c0-.885-.525-1.44-1.32-1.44-.825 0-1.365.555-1.365 1.44V21h-2.025v-7.425h1.86v.66c.495-.525 1.245-.825 2.1-.825.975 0 1.71.36 2.205 1.065.585-.66 1.455-1.065 2.475-1.065 1.74 0 2.805 1.185 2.805 2.985m9.474.885c0 2.22-1.53 3.9-3.6 3.9-.9 0-1.68-.315-2.22-.9v3.42h-2.025V13.575h1.86v.93c.495-.705 1.365-1.095 2.385-1.095 2.07 0 3.6 1.65 3.6 3.87m-2.055.015c0-1.245-.825-2.055-1.92-2.055-1.02 0-1.875.705-1.875 2.04 0 1.32.84 2.055 1.875 2.055 1.08 0 1.92-.825 1.92-2.04m2.923-.015c-.045-2.115 1.8-3.915 3.975-3.87 2.175-.03 4.035 1.755 3.99 3.87.045 2.115-1.83 3.93-4.005 3.885-2.175.045-4.005-1.77-3.96-3.885m5.895.015c0-1.155-.825-2.04-1.92-2.04-1.125 0-1.92.855-1.92 2.04 0 1.155.795 2.01 1.92 2.01 1.095 0 1.92-.855 1.92-2.01m2.676 2.445 1.02-1.23c.645.675 1.35 1.005 2.085 1.005.54 0 .945-.21.945-.615 0-.315-.21-.435-.765-.675l-.795-.33c-1.365-.555-2.025-1.17-2.025-2.265 0-1.395 1.11-2.22 2.73-2.22 1.11 0 1.995.375 2.67 1.11l-1.02 1.245c-.495-.465-1.05-.705-1.665-.705-.495 0-.795.18-.795.525 0 .285.195.42.78.66l.72.3c1.44.585 2.085 1.17 2.085 2.265 0 .735-.27 1.32-.825 1.74q-.81.63-2.07.63c-1.305 0-2.4-.54-3.075-1.44M83.318 21v-7.425h2.025V21zm-.285-10.125c0-.72.57-1.26 1.29-1.26s1.305.54 1.305 1.26c0 .705-.585 1.245-1.305 1.245s-1.29-.54-1.29-1.245m3.594 6.405c-.045-2.115 1.8-3.915 3.975-3.87 2.175-.03 4.035 1.755 3.99 3.87.045 2.115-1.83 3.93-4.005 3.885-2.175.045-4.005-1.77-3.96-3.885m5.895.015c0-1.155-.825-2.04-1.92-2.04-1.125 0-1.92.855-1.92 2.04 0 1.155.795 2.01 1.92 2.01 1.095 0 1.92-.855 1.92-2.01"></path><defs><linearGradient id="a" x1="9.289" x2="9.289" y1="6.832" y2="25.168" gradientUnits="userSpaceOnUse"><stop stop-color="#6F00FF" stop-opacity="0.18"></stop><stop offset="1" stop-color="#600ED1"></stop></linearGradient></defs></svg>