<svg width="677" height="123" viewBox="0 0 677 123" fill="none" xmlns="http://www.w3.org/2000/svg">
<g clip-path="url(#clip0_2_368)">
<path d="M101.745 33.85L34.0672 20.0087C29.6297 19.0977 25.4568 22.5065 25.4568 27.0322V59.0936V60.798V92.859C25.4568 97.3847 29.6297 100.794 34.0672 99.8829L101.745 86.0415" stroke="black" stroke-width="3.43015" stroke-miterlimit="10" stroke-linecap="round" stroke-linejoin="round"/>
<path d="M49.4884 8.87123C49.4886 2.51319 55.9876 -1.73892 61.8072 0.695182L62.0842 0.816015L62.0903 0.819543L98.2952 17.5403C101.472 18.9726 103.464 22.1461 103.465 25.592V39.7567C103.465 44.9242 99.0638 49.0053 93.9221 48.6075L52.9185 45.5471V74.344L93.9158 71.2834L94.3962 71.2588C99.3203 71.1388 103.463 75.1151 103.434 80.1051V94.2698C103.434 97.7424 101.39 100.869 98.2708 102.32L98.2654 102.321L62.0912 119.012L62.0921 119.013C56.1931 121.743 49.4884 117.443 49.4884 110.962V97.4634C49.2226 97.5681 48.9381 97.6377 48.6391 97.6594L28.6303 99.0999C26.9584 99.22 25.5356 97.8951 25.5353 96.2188V81.3638C25.5354 80.7879 25.7074 80.2477 26.0028 79.7929L9.54222 81.0225H9.53608C4.40851 81.386 1.332e-05 77.3177 0 72.1708V47.7202C0.000369179 42.5512 4.40493 38.4682 9.54846 38.8695H9.54755L25.6439 40.0708C25.5742 39.8222 25.5354 39.5609 25.5353 39.2911V23.6428C25.5353 21.3581 27.5792 19.6154 29.8351 19.9764L48.8878 23.0246C49.0973 23.0581 49.2977 23.1153 49.4884 23.1903V8.87123ZM94.1831 74.7039H94.1768L52.9185 77.7837V95.6878L100.005 85.8461V80.0928L99.9994 79.8018C99.8586 76.8093 97.2358 74.4657 94.1831 74.7039ZM24.8739 43.4532C25.1616 43.9033 25.3289 44.4367 25.329 45.0063V75.413C25.329 75.7655 25.2629 76.1031 25.1464 76.4166L49.4884 74.5998V45.2904L24.8739 43.4532ZM52.9185 42.1073L94.1768 45.1872L94.1831 45.1881L94.4757 45.2031C97.4932 45.2766 100.035 42.8343 100.035 39.7567V33.8024L52.9185 23.9533V42.1073Z" fill="black"/>
</g>
<path d="M645.048 102.086C625.743 102.086 613.65 89.1053 613.65 70.6886C613.65 52.1609 625.743 39.1804 645.048 39.1804C664.352 39.1804 676.445 52.1609 676.445 70.6886C676.445 89.1053 664.352 102.086 645.048 102.086ZM645.048 90.5476C654.256 90.5476 659.138 82.8924 659.138 70.6886C659.138 58.3738 654.256 50.7186 645.048 50.7186C635.839 50.7186 630.958 58.3738 630.958 70.6886C630.958 82.8924 635.839 90.5476 645.048 90.5476Z" fill="black"/>
<path d="M607.305 32.4135H589.775V16.4375H607.305V32.4135ZM606.972 100.755H589.997V40.5124H606.972V100.755Z" fill="black"/>
<path d="M555.346 102.086C540.48 102.086 529.386 95.7619 527.278 82.5596H544.363C545.583 88.6615 550.687 90.5476 556.012 90.5476C563.445 90.5476 567.439 88.1068 567.439 84.2238C567.439 80.5626 564.999 78.7875 556.789 76.9014L546.138 74.5716C534.711 72.1308 528.498 66.8055 528.498 57.819C528.498 46.3918 540.258 39.1804 554.681 39.1804C568.327 39.1804 579.754 44.8386 582.417 56.4877H565.331C564 52.7156 559.673 50.7186 554.792 50.7186C549.355 50.7186 544.696 52.7156 544.696 56.4877C544.696 59.927 548.135 61.2583 554.348 62.5896L564.999 64.9195C577.646 67.6931 583.637 73.1293 583.637 82.8924C583.637 95.2072 571.433 102.086 555.346 102.086Z" fill="black"/>
<path d="M493.137 102.086C473.833 102.086 461.74 89.1053 461.74 70.6886C461.74 52.1609 473.833 39.1804 493.137 39.1804C512.441 39.1804 524.534 52.1609 524.534 70.6886C524.534 89.1053 512.441 102.086 493.137 102.086ZM493.137 90.5476C502.346 90.5476 507.227 82.8924 507.227 70.6886C507.227 58.3738 502.346 50.7186 493.137 50.7186C483.929 50.7186 479.047 58.3738 479.047 70.6886C479.047 82.8924 483.929 90.5476 493.137 90.5476Z" fill="black"/>
<path d="M433.312 39.1804C448.178 39.1804 458.163 52.6047 458.163 70.6886C458.163 88.7725 448.178 102.086 433.312 102.086C423.992 102.086 416.559 96.4276 413.342 88.6615V122.499H396.478V40.5117H413.342V54.0469C416.004 46.1699 422.772 39.1804 433.312 39.1804ZM426.766 90.5476C435.974 90.5476 440.856 82.8924 440.856 70.6886C440.856 58.3738 435.974 50.7186 426.766 50.7186C417.558 50.7186 412.676 58.3738 412.676 70.6886C412.676 82.8924 417.558 90.5476 426.766 90.5476Z" fill="black"/>
<path d="M367.839 39.1804C381.374 39.1804 387.143 49.0544 387.143 62.5896V62.8115V100.754H370.168V66.4727V66.2508C370.168 55.822 366.951 51.0514 359.962 51.0514C352.972 51.0514 349.644 55.822 349.644 66.4727V100.754H332.669V66.4727V66.2508C332.669 55.822 329.452 51.0514 322.462 51.0514C315.473 51.0514 312.145 55.822 312.145 66.4727V100.754H295.17V40.5117H312.034V52.8265C314.918 45.3933 320.354 39.1804 330.561 39.1804C340.99 39.1804 346.759 46.1699 348.867 53.825C351.53 46.5027 357.299 39.1804 367.839 39.1804Z" fill="black"/>
<path d="M257.262 102.086C237.958 102.086 225.865 89.1053 225.865 70.6886C225.865 52.1609 237.958 39.1804 257.262 39.1804C276.566 39.1804 288.659 52.1609 288.659 70.6886C288.659 89.1053 276.566 102.086 257.262 102.086ZM257.262 90.5476C266.47 90.5476 271.352 82.8924 271.352 70.6886C271.352 58.3738 266.47 50.7186 257.262 50.7186C248.054 50.7186 243.172 58.3738 243.172 70.6886C243.172 82.8924 248.054 90.5476 257.262 90.5476Z" fill="black"/>
<path d="M183.496 102.087C160.198 102.087 142.336 85.4455 142.336 58.597C142.336 31.8595 160.087 15.1069 183.607 15.1069C203.577 15.1069 218.887 26.3123 223.325 45.1728H205.019C201.802 36.0754 195.367 28.975 183.607 28.975C169.628 28.975 160.42 40.6241 160.42 58.597C160.42 76.6809 169.961 88.2191 183.607 88.2191C194.701 88.2191 202.135 82.3391 205.574 71.7994H223.88C218.332 92.6569 203.133 102.087 183.496 102.087Z" fill="black"/>
<defs>
<clipPath id="clip0_2_368">
<rect width="103.863" height="120.12" fill="white"/>
</clipPath>
</defs>
</svg>
