<svg width="203" height="30" viewBox="0 0 203 30" fill="none" xmlns="http://www.w3.org/2000/svg">
<g clip-path="url(#clip0_4102_1237)">
<path d="M20.4016 4C20.1781 4 19.959 4.04727 19.757 4.1375L13.9219 6.70273L13.982 5.9207C14.0895 4.45117 12.4266 3.53594 11.2449 4.4125L3.55352 10.123C1.31484 11.7859 0 14.4285 0 17.2129C0 22.0383 3.91016 26 8.74844 26C11.5715 26 14.2227 24.6336 15.8684 22.3348L21.2953 14.7336C22.1418 13.5477 21.218 11.9105 19.7656 12.0223L19.3059 12.0566L21.8625 6.24297C21.9527 6.04102 22 5.82188 22 5.59844C22 4.71758 21.2824 4 20.4016 4ZM13.1828 9.28086L19.4992 6.50078L16.7234 12.8043C16.5773 13.1352 16.616 13.5219 16.8266 13.8141C17.0371 14.1062 17.3852 14.2738 17.7461 14.248L19.1855 14.1363L14.184 21.1402C12.9336 22.8934 10.9055 23.9375 8.74844 23.9375C5.06172 23.9375 2.0625 20.9125 2.0625 17.2129C2.0625 15.0773 3.07656 13.0492 4.78672 11.7773L11.868 6.51797L11.7391 8.2625C11.7133 8.62344 11.8766 8.97148 12.173 9.18203C12.4695 9.39258 12.852 9.43125 13.1828 9.28516V9.28086ZM8.59375 22.2188C9.8701 22.2188 11.0942 21.7117 11.9967 20.8092C12.8992 19.9067 13.4062 18.6826 13.4062 17.4062C13.4062 16.1299 12.8992 14.9058 11.9967 14.0033C11.0942 13.1008 9.8701 12.5938 8.59375 12.5938C7.3174 12.5938 6.09332 13.1008 5.1908 14.0033C4.28828 14.9058 3.78125 16.1299 3.78125 17.4062C3.78125 18.6826 4.28828 19.9067 5.1908 20.8092C6.09332 21.7117 7.3174 22.2187 8.59375 22.2188ZM7.5625 15.3438C7.836 15.3438 8.09831 15.4524 8.2917 15.6458C8.4851 15.8392 8.59375 16.1015 8.59375 16.375C8.59375 16.6485 8.4851 16.9108 8.2917 17.1042C8.09831 17.2976 7.836 17.4062 7.5625 17.4062C7.289 17.4062 7.02669 17.2976 6.8333 17.1042C6.6399 16.9108 6.53125 16.6485 6.53125 16.375C6.53125 16.1015 6.6399 15.8392 6.8333 15.6458C7.02669 15.4524 7.289 15.3438 7.5625 15.3438ZM8.59375 19.4688C8.59375 19.2864 8.66618 19.1115 8.79511 18.9826C8.92405 18.8537 9.09891 18.7812 9.28125 18.7812C9.46359 18.7812 9.63845 18.8537 9.76739 18.9826C9.89632 19.1115 9.96875 19.2864 9.96875 19.4688C9.96875 19.6511 9.89632 19.826 9.76739 19.9549C9.63845 20.0838 9.46359 20.1562 9.28125 20.1562C9.09891 20.1562 8.92405 20.0838 8.79511 19.9549C8.66618 19.826 8.59375 19.6511 8.59375 19.4688Z" fill="#0D001D"/>
<path d="M20.4016 4C20.1781 4 19.959 4.04727 19.757 4.1375L13.9219 6.70273L13.982 5.9207C14.0895 4.45117 12.4266 3.53594 11.2449 4.4125L3.55352 10.123C1.31484 11.7859 0 14.4285 0 17.2129C0 22.0383 3.91016 26 8.74844 26C11.5715 26 14.2227 24.6336 15.8684 22.3348L21.2953 14.7336C22.1418 13.5477 21.218 11.9105 19.7656 12.0223L19.3059 12.0566L21.8625 6.24297C21.9527 6.04102 22 5.82188 22 5.59844C22 4.71758 21.2824 4 20.4016 4ZM13.1828 9.28086L19.4992 6.50078L16.7234 12.8043C16.5773 13.1352 16.616 13.5219 16.8266 13.8141C17.0371 14.1062 17.3852 14.2738 17.7461 14.248L19.1855 14.1363L14.184 21.1402C12.9336 22.8934 10.9055 23.9375 8.74844 23.9375C5.06172 23.9375 2.0625 20.9125 2.0625 17.2129C2.0625 15.0773 3.07656 13.0492 4.78672 11.7773L11.868 6.51797L11.7391 8.2625C11.7133 8.62344 11.8766 8.97148 12.173 9.18203C12.4695 9.39258 12.852 9.43125 13.1828 9.28516V9.28086ZM8.59375 22.2188C9.8701 22.2188 11.0942 21.7117 11.9967 20.8092C12.8992 19.9067 13.4062 18.6826 13.4062 17.4062C13.4062 16.1299 12.8992 14.9058 11.9967 14.0033C11.0942 13.1008 9.8701 12.5938 8.59375 12.5938C7.3174 12.5938 6.09332 13.1008 5.1908 14.0033C4.28828 14.9058 3.78125 16.1299 3.78125 17.4062C3.78125 18.6826 4.28828 19.9067 5.1908 20.8092C6.09332 21.7117 7.3174 22.2187 8.59375 22.2188ZM7.5625 15.3438C7.836 15.3438 8.09831 15.4524 8.2917 15.6458C8.4851 15.8392 8.59375 16.1015 8.59375 16.375C8.59375 16.6485 8.4851 16.9108 8.2917 17.1042C8.09831 17.2976 7.836 17.4062 7.5625 17.4062C7.289 17.4062 7.02669 17.2976 6.8333 17.1042C6.6399 16.9108 6.53125 16.6485 6.53125 16.375C6.53125 16.1015 6.6399 15.8392 6.8333 15.6458C7.02669 15.4524 7.289 15.3438 7.5625 15.3438ZM8.59375 19.4688C8.59375 19.2864 8.66618 19.1115 8.79511 18.9826C8.92405 18.8537 9.09891 18.7812 9.28125 18.7812C9.46359 18.7812 9.63845 18.8537 9.76739 18.9826C9.89632 19.1115 9.96875 19.2864 9.96875 19.4688C9.96875 19.6511 9.89632 19.826 9.76739 19.9549C9.63845 20.0838 9.46359 20.1562 9.28125 20.1562C9.09891 20.1562 8.92405 20.0838 8.79511 19.9549C8.66618 19.826 8.59375 19.6511 8.59375 19.4688Z" fill="url(#paint0_radial_4102_1237)"/>
<path d="M20.4016 4C20.1781 4 19.959 4.04727 19.757 4.1375L13.9219 6.70273L13.982 5.9207C14.0895 4.45117 12.4266 3.53594 11.2449 4.4125L3.55352 10.123C1.31484 11.7859 0 14.4285 0 17.2129C0 22.0383 3.91016 26 8.74844 26C11.5715 26 14.2227 24.6336 15.8684 22.3348L21.2953 14.7336C22.1418 13.5477 21.218 11.9105 19.7656 12.0223L19.3059 12.0566L21.8625 6.24297C21.9527 6.04102 22 5.82188 22 5.59844C22 4.71758 21.2824 4 20.4016 4ZM13.1828 9.28086L19.4992 6.50078L16.7234 12.8043C16.5773 13.1352 16.616 13.5219 16.8266 13.8141C17.0371 14.1062 17.3852 14.2738 17.7461 14.248L19.1855 14.1363L14.184 21.1402C12.9336 22.8934 10.9055 23.9375 8.74844 23.9375C5.06172 23.9375 2.0625 20.9125 2.0625 17.2129C2.0625 15.0773 3.07656 13.0492 4.78672 11.7773L11.868 6.51797L11.7391 8.2625C11.7133 8.62344 11.8766 8.97148 12.173 9.18203C12.4695 9.39258 12.852 9.43125 13.1828 9.28516V9.28086ZM8.59375 22.2188C9.8701 22.2188 11.0942 21.7117 11.9967 20.8092C12.8992 19.9067 13.4062 18.6826 13.4062 17.4062C13.4062 16.1299 12.8992 14.9058 11.9967 14.0033C11.0942 13.1008 9.8701 12.5938 8.59375 12.5938C7.3174 12.5938 6.09332 13.1008 5.1908 14.0033C4.28828 14.9058 3.78125 16.1299 3.78125 17.4062C3.78125 18.6826 4.28828 19.9067 5.1908 20.8092C6.09332 21.7117 7.3174 22.2187 8.59375 22.2188ZM7.5625 15.3438C7.836 15.3438 8.09831 15.4524 8.2917 15.6458C8.4851 15.8392 8.59375 16.1015 8.59375 16.375C8.59375 16.6485 8.4851 16.9108 8.2917 17.1042C8.09831 17.2976 7.836 17.4062 7.5625 17.4062C7.289 17.4062 7.02669 17.2976 6.8333 17.1042C6.6399 16.9108 6.53125 16.6485 6.53125 16.375C6.53125 16.1015 6.6399 15.8392 6.8333 15.6458C7.02669 15.4524 7.289 15.3438 7.5625 15.3438ZM8.59375 19.4688C8.59375 19.2864 8.66618 19.1115 8.79511 18.9826C8.92405 18.8537 9.09891 18.7812 9.28125 18.7812C9.46359 18.7812 9.63845 18.8537 9.76739 18.9826C9.89632 19.1115 9.96875 19.2864 9.96875 19.4688C9.96875 19.6511 9.89632 19.826 9.76739 19.9549C9.63845 20.0838 9.46359 20.1562 9.28125 20.1562C9.09891 20.1562 8.92405 20.0838 8.79511 19.9549C8.66618 19.826 8.59375 19.6511 8.59375 19.4688Z" fill="url(#paint1_radial_4102_1237)"/>
<path d="M19.859 4.36575L19.8576 4.36637L14.0225 6.9316L13.6406 7.09947L13.6726 6.68356L13.7327 5.90248C13.7327 5.90228 13.7327 5.90209 13.7327 5.90189C13.8241 4.64548 12.4031 3.8646 11.3939 4.61329L3.70259 10.3237C1.52805 11.939 0.25 14.5068 0.25 17.2129C0.25 21.9019 4.0499 25.75 8.74844 25.75C11.4904 25.75 14.0659 24.4228 15.6649 22.1895L19.859 4.36575ZM19.859 4.36575C20.0291 4.28976 20.2135 4.25 20.4016 4.25C21.1444 4.25 21.75 4.85565 21.75 5.59844C21.75 5.78651 21.7102 5.97091 21.6342 6.14098L21.6336 6.14233L19.077 11.956L18.9095 12.337L19.3245 12.3059L19.7843 12.2716L19.7848 12.2715C21.0255 12.1761 21.8151 13.575 21.0918 14.5883C21.0918 14.5883 21.0918 14.5883 21.0918 14.5884L15.6651 22.1892L19.859 4.36575ZM13.0821 9.05204L13.0078 9.08475C12.7761 9.15999 12.5208 9.12235 12.3178 8.9782C12.0927 8.81837 11.9689 8.5545 11.9884 8.28043C11.9884 8.28039 11.9884 8.28035 11.9884 8.28031L12.1173 6.53639L12.1576 5.99148L11.7189 6.31727L4.63766 11.5766L4.63753 11.5767C2.86355 12.8961 1.8125 14.9988 1.8125 17.2129C1.8125 21.049 4.92209 24.1875 8.74844 24.1875C10.9861 24.1875 13.0901 23.1044 14.3874 21.2855C14.3875 21.2855 14.3875 21.2854 14.3875 21.2854L19.389 14.2816L19.7003 13.8456L19.1662 13.8871L17.7283 13.9987C17.7281 13.9987 17.7278 13.9987 17.7276 13.9987C17.4555 14.0179 17.1904 13.8913 17.0294 13.6679C16.8714 13.4486 16.8414 13.1561 16.9521 12.9053L16.9522 12.905L19.728 6.60153L19.9873 6.01284L19.3985 6.27196L13.0821 9.05204ZM11.8199 20.6324C10.9643 21.4881 9.8038 21.9688 8.59375 21.9688C7.3837 21.9688 6.22321 21.4881 5.36758 20.6324C4.51194 19.7768 4.03125 18.6163 4.03125 17.4062C4.03125 16.1962 4.51194 15.0357 5.36758 14.1801C6.22321 13.3244 7.3837 12.8438 8.59375 12.8438C9.8038 12.8438 10.9643 13.3244 11.8199 14.1801C12.6756 15.0357 13.1562 16.1962 13.1562 17.4062C13.1562 18.6163 12.6756 19.7768 11.8199 20.6324ZM8.46848 15.469C8.2282 15.2287 7.90231 15.0938 7.5625 15.0938C7.22269 15.0938 6.8968 15.2287 6.65652 15.469C6.41624 15.7093 6.28125 16.0352 6.28125 16.375C6.28125 16.7148 6.41624 17.0407 6.65652 17.281C6.8968 17.5213 7.22269 17.6562 7.5625 17.6562C7.90231 17.6562 8.2282 17.5213 8.46848 17.281C8.70876 17.0407 8.84375 16.7148 8.84375 16.375C8.84375 16.0352 8.70876 15.7093 8.46848 15.469ZM8.61834 18.8058C8.44252 18.9817 8.34375 19.2201 8.34375 19.4688C8.34375 19.7174 8.44252 19.9558 8.61834 20.1317C8.79415 20.3075 9.03261 20.4062 9.28125 20.4062C9.52989 20.4062 9.76835 20.3075 9.94416 20.1317C10.12 19.9558 10.2188 19.7174 10.2188 19.4688C10.2188 19.2201 10.12 18.9817 9.94416 18.8058C9.76835 18.63 9.52989 18.5312 9.28125 18.5312C9.03261 18.5312 8.79415 18.63 8.61834 18.8058Z" stroke="url(#paint2_linear_4102_1237)" stroke-opacity="0.05" stroke-width="0.5"/>
</g>
<path d="M39.1589 12C39.1589 14.32 46.9589 12.2 46.9589 17.74C46.9589 20.66 44.4989 22.38 41.1389 22.38C37.7389 22.38 35.2389 20.8 34.8389 17.48H39.1389C39.2789 18.64 40.0589 19.28 41.1789 19.28C42.2389 19.28 42.7789 18.9 42.7789 18.24C42.7789 15.9 34.9789 17.72 34.9789 12.44C34.9789 9.94 37.0189 8.02 40.5989 8.02C43.5389 8.02 46.1989 9.42 46.5589 12.72H42.1989C42.0189 11.66 41.4589 11.12 40.4189 11.12C39.6789 11.12 39.1589 11.46 39.1589 12ZM48.8686 18.22V14.06H47.6686V11.14H48.8686V8.62H52.7486V11.14H54.8686V14.06H52.7486V17.6C52.7486 18.5 52.9686 19.06 54.1486 19.06H54.8686V22C54.4286 22.2 53.6086 22.38 52.5886 22.38C50.0886 22.38 48.8686 20.88 48.8686 18.22ZM60.1439 14.76H56.2639C56.5839 12.3 58.6439 10.76 61.5039 10.76C64.7239 10.76 66.4639 12.66 66.4639 15.16V19.26C66.4639 20.76 66.6039 21.46 66.7239 22H62.7439C62.6839 21.7 62.6439 21.32 62.6039 20.86C61.8039 21.94 60.6239 22.38 59.3439 22.38C57.4239 22.38 55.8639 21.32 55.8639 19.22C55.8639 17.76 56.7239 16.6 58.5239 15.98C59.8839 15.5 61.1639 15.38 62.5839 15.36V15.1C62.5839 14.26 62.1439 13.86 61.3639 13.86C60.6239 13.86 60.2439 14.26 60.1439 14.76ZM59.7239 18.92C59.7239 19.48 60.1039 19.88 60.7839 19.88C61.7439 19.88 62.5839 19.04 62.5839 17.78V17.4C60.3639 17.48 59.7239 18.14 59.7239 18.92ZM68.378 22V11.14H72.258V12.56C72.918 11.3 73.898 10.76 74.878 10.76C75.338 10.76 75.758 10.88 75.978 11.14V14.38C75.578 14.3 75.218 14.26 74.698 14.26C73.038 14.26 72.258 15.12 72.258 16.68V22H68.378ZM77.1717 22V7.6H81.0517V22H77.1717ZM82.86 10.3V7.6H86.74V10.3H82.86ZM82.86 22V11.14H86.74V22H82.86ZM92.6483 21.98C89.9083 21.98 88.1483 19.82 88.1483 16.38C88.1483 12.8 89.9483 10.76 92.6483 10.76C93.7083 10.76 94.5683 11.2 95.1883 12.04V11.14H99.0683V22.38C99.0683 25.2 96.9483 26.8 93.8883 26.8C91.0083 26.8 88.8683 25.58 88.4883 22.84H92.3683C92.4483 23.52 93.0883 23.9 93.8283 23.9C94.6283 23.9 95.1883 23.62 95.1883 22.4V20.64C94.5483 21.52 93.6883 21.98 92.6483 21.98ZM93.6483 18.88C94.6683 18.88 95.1883 18.02 95.1883 16.38C95.1883 14.74 94.6683 13.86 93.6483 13.86C92.6483 13.86 92.1283 14.74 92.1283 16.38C92.1283 18.02 92.6483 18.88 93.6483 18.88ZM100.877 22V7.6H104.757V12.58C105.437 11.34 106.517 10.76 107.777 10.76C109.737 10.76 111.397 11.98 111.397 14.78V22H107.517V15.56C107.517 14.34 107.077 13.86 106.257 13.86C105.377 13.86 104.757 14.58 104.757 15.88V22H100.877ZM113.706 18.22V14.06H112.506V11.14H113.706V8.62H117.586V11.14H119.706V14.06H117.586V17.6C117.586 18.5 117.806 19.06 118.986 19.06H119.706V22C119.266 22.2 118.446 22.38 117.426 22.38C114.926 22.38 113.706 20.88 113.706 18.22Z" fill="#14002D"/>
<path d="M130.005 13.519C130.005 16.687 136.886 14.2285 136.886 18.832C136.886 20.9935 135.137 22.198 132.744 22.198C130.335 22.198 128.685 21.0925 128.19 18.832H129.774C130.137 20.1685 131.144 20.8945 132.761 20.8945C134.444 20.8945 135.335 20.152 135.335 19.03C135.335 15.598 128.454 18.1555 128.454 13.618C128.454 12.001 129.807 10.582 132.282 10.582C134.444 10.582 136.176 11.6215 136.589 14.014H134.988C134.642 12.529 133.685 11.8855 132.249 11.8855C130.83 11.8855 130.005 12.529 130.005 13.519ZM139.023 19.4755V14.3935H137.802V13.2385H139.023V11.2255H140.475V13.2385H142.406V14.3935H140.475V19.4755C140.475 20.5315 140.789 21.0265 142.076 21.0265H142.373V22.066C142.208 22.1485 141.845 22.198 141.432 22.198C139.799 22.198 139.023 21.3235 139.023 19.4755ZM145.29 16.093H143.838C144.118 14.1625 145.389 13.024 147.534 13.024C149.877 13.024 151.015 14.3935 151.015 16.4395V19.888C151.015 20.8945 151.098 21.5215 151.329 22H149.794C149.629 21.6535 149.58 21.142 149.563 20.614C148.821 21.7195 147.633 22.198 146.577 22.198C144.762 22.198 143.541 21.3565 143.541 19.69C143.541 18.4855 144.201 17.611 145.488 17.182C146.676 16.786 147.88 16.687 149.563 16.6705V16.4725C149.563 15.0535 148.903 14.278 147.402 14.278C146.148 14.278 145.471 14.971 145.29 16.093ZM145.026 19.657C145.026 20.4655 145.702 20.944 146.725 20.944C148.342 20.944 149.563 19.6735 149.563 18.172V17.7595C145.834 17.7925 145.026 18.5845 145.026 19.657ZM153.561 22V13.2385H155.013V14.5915C155.607 13.519 156.547 13.024 157.603 13.024C157.95 13.024 158.263 13.1065 158.428 13.2385V14.542C158.181 14.4595 157.867 14.4265 157.521 14.4265C155.772 14.4265 155.013 15.5155 155.013 17.0995V22H153.561ZM160.079 19.4755V14.3935H158.858V13.2385H160.079V11.2255H161.531V13.2385H163.461V14.3935H161.531V19.4755C161.531 20.5315 161.844 21.0265 163.131 21.0265H163.428V22.066C163.263 22.1485 162.9 22.198 162.488 22.198C160.854 22.198 160.079 21.3235 160.079 19.4755ZM172.582 19.1455C172.104 21.1915 170.635 22.198 168.639 22.198C166.098 22.198 164.563 20.482 164.563 17.6275C164.563 14.6575 166.098 13.024 168.556 13.024C171.031 13.024 172.516 14.7235 172.516 17.512V17.875H166.048C166.131 19.8385 167.055 20.944 168.639 20.944C169.876 20.944 170.751 20.35 171.064 19.1455H172.582ZM168.556 14.278C167.154 14.278 166.312 15.1525 166.098 16.786H170.998C170.8 15.169 169.926 14.278 168.556 14.278ZM174.616 22V13.2385H176.068V14.5915C176.662 13.519 177.603 13.024 178.659 13.024C179.005 13.024 179.319 13.1065 179.484 13.2385V14.542C179.236 14.4595 178.923 14.4265 178.576 14.4265C176.827 14.4265 176.068 15.5155 176.068 17.0995V22H174.616ZM184.537 22V10.78H186.055V16.192L191.186 10.78H193.1L187.82 16.291L193.232 22H191.186L186.055 16.621V22H184.537ZM194.834 12.067V10.12H196.286V12.067H194.834ZM194.834 22V13.2385H196.286V22H194.834ZM198.951 19.4755V14.3935H197.73V13.2385H198.951V11.2255H200.403V13.2385H202.334V14.3935H200.403V19.4755C200.403 20.5315 200.717 21.0265 202.004 21.0265H202.301V22.066C202.136 22.1485 201.773 22.198 201.36 22.198C199.727 22.198 198.951 21.3235 198.951 19.4755Z" fill="#0D0027" fill-opacity="0.55"/>
<defs>
<radialGradient id="paint0_radial_4102_1237" cx="0" cy="0" r="1" gradientUnits="userSpaceOnUse" gradientTransform="translate(-2.98023e-07 26) rotate(-47.3278) scale(87.046)">
<stop stop-color="#9563FF"/>
<stop offset="1" stop-color="#9563FF" stop-opacity="0"/>
</radialGradient>
<radialGradient id="paint1_radial_4102_1237" cx="0" cy="0" r="1" gradientUnits="userSpaceOnUse" gradientTransform="translate(0.999999 24.5) rotate(-41.7108) scale(30.8099)">
<stop stop-color="#FF7F57"/>
<stop offset="1" stop-color="#9563FF" stop-opacity="0"/>
</radialGradient>
<linearGradient id="paint2_linear_4102_1237" x1="11" y1="4" x2="11" y2="26" gradientUnits="userSpaceOnUse">
<stop/>
<stop offset="1" stop-opacity="0"/>
</linearGradient>
<clipPath id="clip0_4102_1237">
<rect width="22" height="22" fill="white" transform="translate(0 4)"/>
</clipPath>
</defs>
</svg>
