<svg width="203" height="26" viewBox="0 0 203 26" fill="none" xmlns="http://www.w3.org/2000/svg">
<g clip-path="url(#clip0_4102_1237)">
<mask id="mask0_4102_1237" style="mask-type:luminance" maskUnits="userSpaceOnUse" x="0" y="2" width="22" height="22">
<path d="M22 2H0V24H22V2Z" fill="white"/>
</mask>
<g mask="url(#mask0_4102_1237)">
<path d="M20.4016 2C20.1781 2 19.959 2.04727 19.757 2.1375L13.9219 4.70273L13.982 3.9207C14.0895 2.45117 12.4266 1.53594 11.2449 2.4125L3.55352 8.12305C1.31484 9.78594 0 12.4285 0 15.2129C0 20.0383 3.91016 24 8.74844 24C11.5715 24 14.2227 22.6336 15.8684 20.3348L21.2953 12.7336C22.1418 11.5477 21.218 9.91055 19.7656 10.0223L19.3059 10.0566L21.8625 4.24297C21.9527 4.04102 22 3.82187 22 3.59844C22 2.71758 21.2824 2 20.4016 2ZM13.1828 7.28086L19.4992 4.50078L16.7234 10.8043C16.5773 11.1352 16.616 11.5219 16.8266 11.8141C17.0371 12.1062 17.3852 12.2738 17.7461 12.248L19.1855 12.1363L14.184 19.1402C12.9336 20.8934 10.9055 21.9375 8.74844 21.9375C5.06172 21.9375 2.0625 18.9125 2.0625 15.2129C2.0625 13.0773 3.07656 11.0492 4.78672 9.77734L11.868 4.51797L11.7391 6.2625C11.7133 6.62344 11.8766 6.97148 12.173 7.18203C12.4695 7.39258 12.852 7.43125 13.1828 7.28516V7.28086ZM8.59375 20.2188C9.8701 20.2188 11.0942 19.7117 11.9967 18.8092C12.8992 17.9067 13.4062 16.6826 13.4062 15.4062C13.4062 14.1299 12.8992 12.9058 11.9967 12.0033C11.0942 11.1008 9.8701 10.5938 8.59375 10.5938C7.3174 10.5938 6.09332 11.1008 5.1908 12.0033C4.28828 12.9058 3.78125 14.1299 3.78125 15.4062C3.78125 16.6826 4.28828 17.9067 5.1908 18.8092C6.09332 19.7117 7.3174 20.2188 8.59375 20.2188ZM7.5625 13.3438C7.836 13.3438 8.09831 13.4524 8.2917 13.6458C8.4851 13.8392 8.59375 14.1015 8.59375 14.375C8.59375 14.6485 8.4851 14.9108 8.2917 15.1042C8.09831 15.2976 7.836 15.4062 7.5625 15.4062C7.289 15.4062 7.02669 15.2976 6.8333 15.1042C6.6399 14.9108 6.53125 14.6485 6.53125 14.375C6.53125 14.1015 6.6399 13.8392 6.8333 13.6458C7.02669 13.4524 7.289 13.3438 7.5625 13.3438ZM8.59375 17.4688C8.59375 17.2864 8.66618 17.1115 8.79511 16.9826C8.92405 16.8537 9.09891 16.7812 9.28125 16.7812C9.46359 16.7812 9.63845 16.8537 9.76739 16.9826C9.89632 17.1115 9.96875 17.2864 9.96875 17.4688C9.96875 17.6511 9.89632 17.826 9.76739 17.9549C9.63845 18.0838 9.46359 18.1562 9.28125 18.1562C9.09891 18.1562 8.92405 18.0838 8.79511 17.9549C8.66618 17.826 8.59375 17.6511 8.59375 17.4688Z" fill="url(#paint0_radial_4102_1237)"/>
</g>
</g>
<path d="M39.1589 10C39.1589 12.32 46.9589 10.2 46.9589 15.74C46.9589 18.66 44.4989 20.38 41.1389 20.38C37.7389 20.38 35.2389 18.8 34.8389 15.48H39.1389C39.2789 16.64 40.0589 17.28 41.1789 17.28C42.2389 17.28 42.7789 16.9 42.7789 16.24C42.7789 13.9 34.9789 15.72 34.9789 10.44C34.9789 7.94 37.0189 6.02 40.5989 6.02C43.5389 6.02 46.1989 7.42 46.5589 10.72H42.1989C42.0189 9.66 41.4589 9.12 40.4189 9.12C39.6789 9.12 39.1589 9.46 39.1589 10ZM48.8686 16.22V12.06H47.6686V9.14H48.8686V6.62H52.7486V9.14H54.8686V12.06H52.7486V15.6C52.7486 16.5 52.9686 17.06 54.1486 17.06H54.8686V20C54.4286 20.2 53.6086 20.38 52.5886 20.38C50.0886 20.38 48.8686 18.88 48.8686 16.22ZM60.1439 12.76H56.2639C56.5839 10.3 58.6439 8.76 61.5039 8.76C64.7239 8.76 66.4639 10.66 66.4639 13.16V17.26C66.4639 18.76 66.6039 19.46 66.7239 20H62.7439C62.6839 19.7 62.6439 19.32 62.6039 18.86C61.8039 19.94 60.6239 20.38 59.3439 20.38C57.4239 20.38 55.8639 19.32 55.8639 17.22C55.8639 15.76 56.7239 14.6 58.5239 13.98C59.8839 13.5 61.1639 13.38 62.5839 13.36V13.1C62.5839 12.26 62.1439 11.86 61.3639 11.86C60.6239 11.86 60.2439 12.26 60.1439 12.76ZM59.7239 16.92C59.7239 17.48 60.1039 17.88 60.7839 17.88C61.7439 17.88 62.5839 17.04 62.5839 15.78V15.4C60.3639 15.48 59.7239 16.14 59.7239 16.92ZM68.378 20V9.14H72.258V10.56C72.918 9.3 73.898 8.76 74.878 8.76C75.338 8.76 75.758 8.88 75.978 9.14V12.38C75.578 12.3 75.218 12.26 74.698 12.26C73.038 12.26 72.258 13.12 72.258 14.68V20H68.378ZM77.1717 20V5.6H81.0517V20H77.1717ZM82.86 8.3V5.6H86.74V8.3H82.86ZM82.86 20V9.14H86.74V20H82.86ZM92.6483 19.98C89.9083 19.98 88.1483 17.82 88.1483 14.38C88.1483 10.8 89.9483 8.76 92.6483 8.76C93.7083 8.76 94.5683 9.2 95.1883 10.04V9.14H99.0683V20.38C99.0683 23.2 96.9483 24.8 93.8883 24.8C91.0083 24.8 88.8683 23.58 88.4883 20.84H92.3683C92.4483 21.52 93.0883 21.9 93.8283 21.9C94.6283 21.9 95.1883 21.62 95.1883 20.4V18.64C94.5483 19.52 93.6883 19.98 92.6483 19.98ZM93.6483 16.88C94.6683 16.88 95.1883 16.02 95.1883 14.38C95.1883 12.74 94.6683 11.86 93.6483 11.86C92.6483 11.86 92.1283 12.74 92.1283 14.38C92.1283 16.02 92.6483 16.88 93.6483 16.88ZM100.877 20V5.6H104.757V10.58C105.437 9.34 106.517 8.76 107.777 8.76C109.737 8.76 111.397 9.98 111.397 12.78V20H107.517V13.56C107.517 12.34 107.077 11.86 106.257 11.86C105.377 11.86 104.757 12.58 104.757 13.88V20H100.877ZM113.706 16.22V12.06H112.506V9.14H113.706V6.62H117.586V9.14H119.706V12.06H117.586V15.6C117.586 16.5 117.806 17.06 118.986 17.06H119.706V20C119.266 20.2 118.446 20.38 117.426 20.38C114.926 20.38 113.706 18.88 113.706 16.22Z" fill="#14002D"/>
<path d="M130.005 11.519C130.005 14.687 136.886 12.2285 136.886 16.832C136.886 18.9935 135.137 20.198 132.744 20.198C130.335 20.198 128.685 19.0925 128.19 16.832H129.774C130.137 18.1685 131.144 18.8945 132.761 18.8945C134.444 18.8945 135.335 18.152 135.335 17.03C135.335 13.598 128.454 16.1555 128.454 11.618C128.454 10.001 129.807 8.582 132.282 8.582C134.444 8.582 136.176 9.6215 136.589 12.014H134.988C134.642 10.529 133.685 9.8855 132.249 9.8855C130.83 9.8855 130.005 10.529 130.005 11.519ZM139.023 17.4755V12.3935H137.802V11.2385H139.023V9.2255H140.475V11.2385H142.406V12.3935H140.475V17.4755C140.475 18.5315 140.789 19.0265 142.076 19.0265H142.373V20.066C142.208 20.1485 141.845 20.198 141.432 20.198C139.799 20.198 139.023 19.3235 139.023 17.4755ZM145.29 14.093H143.838C144.118 12.1625 145.389 11.024 147.534 11.024C149.877 11.024 151.015 12.3935 151.015 14.4395V17.888C151.015 18.8945 151.098 19.5215 151.329 20H149.794C149.629 19.6535 149.58 19.142 149.563 18.614C148.821 19.7195 147.633 20.198 146.577 20.198C144.762 20.198 143.541 19.3565 143.541 17.69C143.541 16.4855 144.201 15.611 145.488 15.182C146.676 14.786 147.88 14.687 149.563 14.6705V14.4725C149.563 13.0535 148.903 12.278 147.402 12.278C146.148 12.278 145.471 12.971 145.29 14.093ZM145.026 17.657C145.026 18.4655 145.702 18.944 146.725 18.944C148.342 18.944 149.563 17.6735 149.563 16.172V15.7595C145.834 15.7925 145.026 16.5845 145.026 17.657ZM153.561 20V11.2385H155.013V12.5915C155.607 11.519 156.547 11.024 157.603 11.024C157.95 11.024 158.263 11.1065 158.428 11.2385V12.542C158.181 12.4595 157.867 12.4265 157.521 12.4265C155.772 12.4265 155.013 13.5155 155.013 15.0995V20H153.561ZM160.079 17.4755V12.3935H158.858V11.2385H160.079V9.2255H161.531V11.2385H163.461V12.3935H161.531V17.4755C161.531 18.5315 161.844 19.0265 163.131 19.0265H163.428V20.066C163.263 20.1485 162.9 20.198 162.488 20.198C160.854 20.198 160.079 19.3235 160.079 17.4755ZM172.582 17.1455C172.104 19.1915 170.635 20.198 168.639 20.198C166.098 20.198 164.563 18.482 164.563 15.6275C164.563 12.6575 166.098 11.024 168.556 11.024C171.031 11.024 172.516 12.7235 172.516 15.512V15.875H166.048C166.131 17.8385 167.055 18.944 168.639 18.944C169.876 18.944 170.751 18.35 171.064 17.1455H172.582ZM168.556 12.278C167.154 12.278 166.312 13.1525 166.098 14.786H170.998C170.8 13.169 169.926 12.278 168.556 12.278ZM174.616 20V11.2385H176.068V12.5915C176.662 11.519 177.603 11.024 178.659 11.024C179.005 11.024 179.319 11.1065 179.484 11.2385V12.542C179.236 12.4595 178.923 12.4265 178.576 12.4265C176.827 12.4265 176.068 13.5155 176.068 15.0995V20H174.616ZM184.537 20V8.78H186.055V14.192L191.186 8.78H193.1L187.82 14.291L193.232 20H191.186L186.055 14.621V20H184.537ZM194.834 10.067V8.12H196.286V10.067H194.834ZM194.834 20V11.2385H196.286V20H194.834ZM198.951 17.4755V12.3935H197.73V11.2385H198.951V9.2255H200.403V11.2385H202.334V12.3935H200.403V17.4755C200.403 18.5315 200.717 19.0265 202.004 19.0265H202.301V20.066C202.136 20.1485 201.773 20.198 201.36 20.198C199.727 20.198 198.951 19.3235 198.951 17.4755Z" fill="#0D0027" fill-opacity="0.55"/>
<defs>
<radialGradient id="paint0_radial_4102_1237" cx="0" cy="0" r="1" gradientUnits="userSpaceOnUse" gradientTransform="translate(-6.55652e-07 24) rotate(-37.6942) scale(27.8029)">
<stop stop-color="#FF6A3C"/>
<stop offset="0.880208" stop-color="#9563FF"/>
<stop offset="1" stop-color="#14002D"/>
</radialGradient>
<clipPath id="clip0_4102_1237">
<rect width="22" height="22" fill="white" transform="translate(0 2)"/>
</clipPath>
</defs>
</svg>
