<svg width="1133" height="221" viewBox="0 0 1133 221" fill="none" xmlns="http://www.w3.org/2000/svg">
<rect x="3" y="6" width="210" height="210" rx="56" fill="white"/>
<rect x="3" y="6" width="210" height="210" rx="56" fill="url(#paint0_radial_3545_7)"/>
<rect x="3" y="6" width="210" height="210" rx="56" fill="url(#paint1_radial_3545_7)"/>
<rect x="3" y="6" width="210" height="210" rx="56" fill="url(#paint2_radial_3545_7)"/>
<g clip-path="url(#clip0_3545_7)">
<path d="M120.499 110.045C120.109 107.239 119.504 104.509 118.684 101.854C134.822 99.7959 147.499 86.7414 148.986 70.4204L149.036 69.875H148.488H147.062C132.257 69.875 119.597 79.1071 114.537 92.1122C112.966 89.2629 111.128 86.5674 109.051 84.0648C116.399 70.6323 130.675 61.5 147.062 61.5H151.75C154.931 61.5 157.5 64.0691 157.5 67.25C157.5 89.0121 141.42 107.012 120.499 110.045ZM67.375 82.375H66.875V82.875V86C66.875 105.261 82.4895 120.875 101.75 120.875H103.312H103.812V120.375V117.25C103.812 97.9895 88.198 82.375 68.9375 82.375H67.375ZM103.812 129.75V129.25H103.312H101.75C77.866 129.25 58.5 109.884 58.5 86V79.75C58.5 76.5691 61.0691 74 64.25 74H68.9375C92.8215 74 112.188 93.366 112.188 117.25V120.375V129.75V156.312C112.188 158.634 110.322 160.5 108 160.5C105.678 160.5 103.812 158.634 103.812 156.312V129.75Z" fill="url(#paint3_linear_3545_7)" stroke="url(#paint4_radial_3545_7)"/>
</g>
<rect x="4" y="7" width="208" height="208" rx="55" stroke="white" stroke-opacity="0.2" stroke-width="2"/>
<rect x="4" y="7" width="208" height="208" rx="55" stroke="url(#paint5_linear_3545_7)" stroke-opacity="0.3" stroke-width="2"/>
<path d="M378.239 86.1023C377.784 81.5189 375.833 77.9583 372.386 75.4205C368.939 72.8826 364.261 71.6136 358.352 71.6136C354.337 71.6136 350.947 72.1818 348.182 73.3182C345.417 74.4167 343.295 75.9508 341.818 77.9205C340.379 79.8902 339.659 82.125 339.659 84.625C339.583 86.7083 340.019 88.5265 340.966 90.0795C341.951 91.6326 343.295 92.9773 345 94.1136C346.705 95.2121 348.674 96.178 350.909 97.0114C353.144 97.8068 355.53 98.4886 358.068 99.0568L368.523 101.557C373.598 102.693 378.258 104.208 382.5 106.102C386.742 107.996 390.417 110.326 393.523 113.091C396.629 115.856 399.034 119.114 400.739 122.864C402.481 126.614 403.371 130.913 403.409 135.761C403.371 142.883 401.553 149.057 397.955 154.284C394.394 159.473 389.242 163.508 382.5 166.386C375.795 169.227 367.708 170.648 358.239 170.648C348.845 170.648 340.663 169.208 333.693 166.33C326.761 163.451 321.345 159.189 317.443 153.545C313.58 147.864 311.553 140.837 311.364 132.466H335.17C335.436 136.367 336.553 139.625 338.523 142.239C340.53 144.814 343.201 146.765 346.534 148.091C349.905 149.379 353.712 150.023 357.955 150.023C362.121 150.023 365.739 149.417 368.807 148.205C371.913 146.992 374.318 145.307 376.023 143.148C377.727 140.989 378.58 138.508 378.58 135.705C378.58 133.091 377.803 130.894 376.25 129.114C374.735 127.333 372.5 125.818 369.545 124.568C366.629 123.318 363.049 122.182 358.807 121.159L346.136 117.977C336.326 115.591 328.58 111.86 322.898 106.784C317.216 101.708 314.394 94.8712 314.432 86.2727C314.394 79.2273 316.269 73.072 320.057 67.8068C323.883 62.5417 329.129 58.4318 335.795 55.4773C342.462 52.5227 350.038 51.0455 358.523 51.0455C367.159 51.0455 374.697 52.5227 381.136 55.4773C387.614 58.4318 392.652 62.5417 396.25 67.8068C399.848 73.072 401.705 79.1705 401.818 86.1023H378.239ZM462.723 81.7273V99.9091H410.166V81.7273H462.723ZM422.098 60.8182H446.303V142.182C446.303 144.417 446.644 146.159 447.326 147.409C448.007 148.621 448.954 149.473 450.166 149.966C451.416 150.458 452.856 150.705 454.485 150.705C455.621 150.705 456.757 150.61 457.894 150.42C459.03 150.193 459.901 150.023 460.507 149.909L464.314 167.92C463.102 168.299 461.398 168.735 459.201 169.227C457.004 169.758 454.333 170.08 451.189 170.193C445.356 170.42 440.242 169.644 435.848 167.864C431.492 166.083 428.102 163.318 425.678 159.568C423.254 155.818 422.06 151.083 422.098 145.364V60.8182ZM500.177 170.648C494.609 170.648 489.646 169.682 485.29 167.75C480.934 165.78 477.487 162.883 474.949 159.057C472.449 155.193 471.199 150.383 471.199 144.625C471.199 139.777 472.09 135.705 473.87 132.409C475.65 129.114 478.074 126.462 481.143 124.455C484.211 122.447 487.696 120.932 491.597 119.909C495.537 118.886 499.665 118.167 503.984 117.75C509.059 117.22 513.15 116.727 516.256 116.273C519.362 115.78 521.616 115.061 523.018 114.114C524.419 113.167 525.12 111.765 525.12 109.909V109.568C525.12 105.97 523.984 103.186 521.711 101.216C519.476 99.2462 516.294 98.2614 512.165 98.2614C507.809 98.2614 504.343 99.2273 501.768 101.159C499.192 103.053 497.487 105.439 496.654 108.318L474.268 106.5C475.404 101.197 477.639 96.6136 480.972 92.75C484.305 88.8485 488.605 85.8561 493.87 83.7727C499.173 81.6515 505.309 80.5909 512.279 80.5909C517.127 80.5909 521.768 81.1591 526.199 82.2955C530.669 83.4318 534.627 85.1932 538.074 87.5795C541.559 89.9659 544.305 93.0341 546.313 96.7841C548.321 100.496 549.324 104.947 549.324 110.136V169H526.37V156.898H525.688C524.287 159.625 522.412 162.03 520.063 164.114C517.715 166.159 514.893 167.769 511.597 168.943C508.302 170.08 504.495 170.648 500.177 170.648ZM507.109 153.943C510.669 153.943 513.813 153.242 516.54 151.841C519.268 150.402 521.408 148.47 522.961 146.045C524.514 143.621 525.29 140.875 525.29 137.807V128.545C524.533 129.038 523.491 129.492 522.165 129.909C520.877 130.288 519.419 130.648 517.79 130.989C516.162 131.292 514.533 131.576 512.904 131.841C511.275 132.068 509.798 132.277 508.472 132.466C505.631 132.883 503.15 133.545 501.029 134.455C498.908 135.364 497.26 136.595 496.086 138.148C494.912 139.663 494.324 141.557 494.324 143.83C494.324 147.125 495.518 149.644 497.904 151.386C500.328 153.091 503.396 153.943 507.109 153.943ZM564.903 169V81.7273H588.369V96.9545H589.278C590.869 91.5379 593.539 87.447 597.289 84.6818C601.039 81.8788 605.357 80.4773 610.244 80.4773C611.456 80.4773 612.763 80.553 614.164 80.7045C615.566 80.8561 616.797 81.0644 617.857 81.3295V102.807C616.721 102.466 615.149 102.163 613.141 101.898C611.134 101.633 609.297 101.5 607.63 101.5C604.07 101.5 600.888 102.277 598.085 103.83C595.32 105.345 593.123 107.466 591.494 110.193C589.903 112.92 589.107 116.064 589.107 119.625V169H564.903ZM677.967 81.7273V99.9091H625.41V81.7273H677.967ZM637.342 60.8182H661.547V142.182C661.547 144.417 661.888 146.159 662.569 147.409C663.251 148.621 664.198 149.473 665.41 149.966C666.66 150.458 668.1 150.705 669.728 150.705C670.865 150.705 672.001 150.61 673.138 150.42C674.274 150.193 675.145 150.023 675.751 149.909L679.558 167.92C678.346 168.299 676.641 168.735 674.444 169.227C672.247 169.758 669.577 170.08 666.433 170.193C660.6 170.42 655.486 169.644 651.092 167.864C646.736 166.083 643.346 163.318 640.922 159.568C638.497 155.818 637.304 151.083 637.342 145.364V60.8182ZM729.369 170.705C720.392 170.705 712.665 168.886 706.188 165.25C699.748 161.576 694.786 156.386 691.301 149.682C687.816 142.939 686.074 134.966 686.074 125.761C686.074 116.784 687.816 108.905 691.301 102.125C694.786 95.3447 699.691 90.0606 706.017 86.2727C712.381 82.4848 719.843 80.5909 728.403 80.5909C734.161 80.5909 739.521 81.5189 744.483 83.375C749.483 85.1932 753.839 87.9394 757.551 91.6136C761.301 95.2879 764.218 99.9091 766.301 105.477C768.384 111.008 769.426 117.485 769.426 124.909V131.557H695.733V116.557H746.642C746.642 113.072 745.884 109.985 744.369 107.295C742.854 104.606 740.752 102.504 738.062 100.989C735.411 99.4356 732.324 98.6591 728.801 98.6591C725.127 98.6591 721.869 99.5114 719.028 101.216C716.225 102.883 714.028 105.136 712.438 107.977C710.847 110.78 710.032 113.905 709.994 117.352V131.614C709.994 135.932 710.79 139.663 712.381 142.807C714.009 145.951 716.301 148.375 719.256 150.08C722.21 151.784 725.714 152.636 729.767 152.636C732.456 152.636 734.919 152.258 737.153 151.5C739.388 150.742 741.301 149.606 742.892 148.091C744.483 146.576 745.695 144.72 746.528 142.523L768.915 144C767.778 149.379 765.449 154.076 761.926 158.091C758.441 162.068 753.934 165.174 748.403 167.409C742.911 169.606 736.566 170.705 729.369 170.705ZM782.022 169V81.7273H805.487V96.9545H806.397C807.987 91.5379 810.658 87.447 814.408 84.6818C818.158 81.8788 822.476 80.4773 827.362 80.4773C828.575 80.4773 829.881 80.553 831.283 80.7045C832.684 80.8561 833.916 81.0644 834.976 81.3295V102.807C833.84 102.466 832.268 102.163 830.26 101.898C828.253 101.633 826.416 101.5 824.749 101.5C821.188 101.5 818.006 102.277 815.203 103.83C812.438 105.345 810.241 107.466 808.612 110.193C807.022 112.92 806.226 116.064 806.226 119.625V169H782.022ZM878.576 169V52.6364H903.178V103.943H904.713L946.588 52.6364H976.076L932.894 104.739L976.588 169H947.156L915.281 121.159L903.178 135.932V169H878.576ZM990.703 169V81.7273H1014.91V169H990.703ZM1002.86 70.4773C999.263 70.4773 996.176 69.2841 993.601 66.8977C991.063 64.4735 989.794 61.5758 989.794 58.2045C989.794 54.8712 991.063 52.0114 993.601 49.625C996.176 47.2008 999.263 45.9886 1002.86 45.9886C1006.46 45.9886 1009.53 47.2008 1012.07 49.625C1014.64 52.0114 1015.93 54.8712 1015.93 58.2045C1015.93 61.5758 1014.64 64.4735 1012.07 66.8977C1009.53 69.2841 1006.46 70.4773 1002.86 70.4773ZM1077.52 81.7273V99.9091H1024.96V81.7273H1077.52ZM1036.89 60.8182H1061.1V142.182C1061.1 144.417 1061.44 146.159 1062.12 147.409C1062.8 148.621 1063.75 149.473 1064.96 149.966C1066.21 150.458 1067.65 150.705 1069.28 150.705C1070.41 150.705 1071.55 150.61 1072.69 150.42C1073.82 150.193 1074.7 150.023 1075.3 149.909L1079.11 167.92C1077.9 168.299 1076.19 168.735 1073.99 169.227C1071.8 169.758 1069.13 170.08 1065.98 170.193C1060.15 170.42 1055.04 169.644 1050.64 167.864C1046.29 166.083 1042.9 163.318 1040.47 159.568C1038.05 155.818 1036.85 151.083 1036.89 145.364V60.8182Z" fill="#303538"/>
<defs>
<radialGradient id="paint0_radial_3545_7" cx="0" cy="0" r="1" gradientUnits="userSpaceOnUse" gradientTransform="translate(213 5.99999) rotate(135) scale(296.985)">
<stop stop-color="#C5FCF9"/>
<stop offset="0.507409" stop-color="#7FB0BF"/>
<stop offset="0.685214" stop-color="#64B3B8"/>
<stop offset="1" stop-color="#81D7F7"/>
</radialGradient>
<radialGradient id="paint1_radial_3545_7" cx="0" cy="0" r="1" gradientUnits="userSpaceOnUse" gradientTransform="translate(213 216) rotate(-135) scale(148.492)">
<stop stop-color="#81D7F7"/>
<stop offset="1" stop-color="#45A4C8" stop-opacity="0"/>
</radialGradient>
<radialGradient id="paint2_radial_3545_7" cx="0" cy="0" r="1" gradientUnits="userSpaceOnUse" gradientTransform="translate(3 6) scale(210)">
<stop stop-color="#36809B"/>
<stop offset="0.514895" stop-color="#55ADC9"/>
<stop offset="1" stop-color="#63C4E9" stop-opacity="0"/>
</radialGradient>
<linearGradient id="paint3_linear_3545_7" x1="108" y1="61" x2="108" y2="161" gradientUnits="userSpaceOnUse">
<stop stop-color="white" stop-opacity="0.22"/>
<stop offset="0.723174" stop-color="white"/>
</linearGradient>
<radialGradient id="paint4_radial_3545_7" cx="0" cy="0" r="1" gradientUnits="userSpaceOnUse" gradientTransform="translate(144.001 54.0096) rotate(123.858) scale(95.1239 95.1218)">
<stop stop-color="white"/>
<stop offset="0.853481" stop-color="white" stop-opacity="0"/>
</radialGradient>
<linearGradient id="paint5_linear_3545_7" x1="108" y1="6" x2="108" y2="216" gradientUnits="userSpaceOnUse">
<stop stop-color="white" stop-opacity="0.22"/>
<stop offset="1" stop-color="white" stop-opacity="0.42"/>
</linearGradient>
<clipPath id="clip0_3545_7">
<rect width="100" height="100" fill="white" transform="translate(58 61)"/>
</clipPath>
</defs>
</svg>
