<svg width="177" height="30" viewBox="0 0 177 30" fill="none" xmlns="http://www.w3.org/2000/svg">
<path d="M14.47 5.5199C14.3255 5.23085 14.0404 5.03555 13.7162 5.0043C13.392 4.97305 13.0756 5.11367 12.8803 5.37538L10.7632 8.20336L10.6812 7.57448C10.646 7.30106 10.4937 7.05888 10.2632 6.90655C10.0327 6.75421 9.74761 6.71515 9.4859 6.79327L8.10316 7.20341L6.74385 5.62146C6.56417 5.41444 6.30637 5.29335 6.03295 5.29335C5.75953 5.29335 5.49782 5.41444 5.32205 5.62146L3.89243 7.28543L2.05659 7.05498C1.74801 7.01592 1.43943 7.1331 1.23632 7.36746C1.0332 7.60183 0.95508 7.91822 1.0332 8.21898L2.61906 14.2968L1.4199 15.0975C1.14648 15.2772 0.990235 15.5897 1.00195 15.9139C1.01367 16.2381 1.19726 16.535 1.4824 16.6951L5.65797 19.0153L1.27538 23.3979C0.908208 23.7651 0.908208 24.3588 1.27538 24.7221C1.64255 25.0853 2.23627 25.0892 2.59953 24.7221L6.98603 20.3434L9.30622 24.5189C9.46637 24.8041 9.75932 24.9877 10.0874 24.9994C10.4155 25.0111 10.7241 24.8549 10.9038 24.5814L11.7045 23.3823L17.7824 24.9681C18.0831 25.0463 18.4034 24.972 18.6378 24.765C18.8721 24.558 18.9893 24.2533 18.9503 23.9448L18.7393 22.273C18.7276 22.1675 18.7667 22.0659 18.8448 21.9956L20.3799 20.6793C20.5869 20.4996 20.708 20.2418 20.708 19.9684C20.708 19.695 20.5869 19.4333 20.3799 19.2575L18.794 17.8982L19.2042 16.5154C19.2823 16.2498 19.2393 15.9686 19.0909 15.7381C18.9425 15.5077 18.6964 15.3553 18.4229 15.3202L17.798 15.2382L20.626 13.1172C20.8877 12.9219 21.0244 12.6055 20.997 12.2813C20.9697 11.9571 20.7744 11.6719 20.4814 11.5274L19.0714 10.8204C18.9385 10.754 18.8682 10.5978 18.9112 10.4532L19.794 7.35965C19.8877 7.03154 19.7979 6.68 19.5557 6.43782C19.3135 6.19565 18.962 6.10581 18.6339 6.19955L15.5403 7.09013C15.3958 7.1331 15.2434 7.06279 15.1731 6.92998L14.47 5.5199ZM8.36486 18.9645L13.2631 14.0663C13.6302 13.6992 13.6302 13.1055 13.2631 12.7422C12.8959 12.3789 12.3022 12.375 11.9389 12.7422L7.03681 17.6365L3.7401 15.8045L3.84556 15.7342C4.40022 15.3632 4.65802 14.6835 4.49006 14.039L3.19715 9.08613L4.16195 9.20721C4.47443 9.24627 4.78692 9.12519 4.99003 8.88692L6.03295 7.67213L7.07587 8.88692C7.31804 9.16815 7.70083 9.28143 8.05628 9.17596L8.96249 8.90645L9.19685 10.7345C9.24372 11.1134 9.51715 11.4259 9.88822 11.5235C10.2593 11.6212 10.6499 11.4844 10.8765 11.1798L13.474 7.7151L13.5013 7.76979C13.97 8.71114 15.0442 9.18378 16.0559 8.89473L17.5285 8.47288L17.1066 9.94546C16.8176 10.9571 17.2902 12.0313 18.2316 12.5039L18.2862 12.5313L14.8216 15.1288C14.5169 15.3592 14.3802 15.7499 14.4778 16.117C14.5755 16.4842 14.888 16.7576 15.2669 16.8084L17.0949 17.0428L16.8254 17.949C16.7199 18.3044 16.8332 18.6872 17.1144 18.9294L18.3292 19.9723L17.6222 20.5777C17.0636 21.0543 16.7824 21.7808 16.8762 22.5112L16.9152 22.812L11.9623 21.5152C11.3178 21.3472 10.6382 21.605 10.2671 22.1597L10.1968 22.2651L8.36486 18.9645Z" fill="#0D001D"/>
<path d="M14.47 5.5199C14.3255 5.23085 14.0404 5.03555 13.7162 5.0043C13.392 4.97305 13.0756 5.11367 12.8803 5.37538L10.7632 8.20336L10.6812 7.57448C10.646 7.30106 10.4937 7.05888 10.2632 6.90655C10.0327 6.75421 9.74761 6.71515 9.4859 6.79327L8.10316 7.20341L6.74385 5.62146C6.56417 5.41444 6.30637 5.29335 6.03295 5.29335C5.75953 5.29335 5.49782 5.41444 5.32205 5.62146L3.89243 7.28543L2.05659 7.05498C1.74801 7.01592 1.43943 7.1331 1.23632 7.36746C1.0332 7.60183 0.95508 7.91822 1.0332 8.21898L2.61906 14.2968L1.4199 15.0975C1.14648 15.2772 0.990235 15.5897 1.00195 15.9139C1.01367 16.2381 1.19726 16.535 1.4824 16.6951L5.65797 19.0153L1.27538 23.3979C0.908208 23.7651 0.908208 24.3588 1.27538 24.7221C1.64255 25.0853 2.23627 25.0892 2.59953 24.7221L6.98603 20.3434L9.30622 24.5189C9.46637 24.8041 9.75932 24.9877 10.0874 24.9994C10.4155 25.0111 10.7241 24.8549 10.9038 24.5814L11.7045 23.3823L17.7824 24.9681C18.0831 25.0463 18.4034 24.972 18.6378 24.765C18.8721 24.558 18.9893 24.2533 18.9503 23.9448L18.7393 22.273C18.7276 22.1675 18.7667 22.0659 18.8448 21.9956L20.3799 20.6793C20.5869 20.4996 20.708 20.2418 20.708 19.9684C20.708 19.695 20.5869 19.4333 20.3799 19.2575L18.794 17.8982L19.2042 16.5154C19.2823 16.2498 19.2393 15.9686 19.0909 15.7381C18.9425 15.5077 18.6964 15.3553 18.4229 15.3202L17.798 15.2382L20.626 13.1172C20.8877 12.9219 21.0244 12.6055 20.997 12.2813C20.9697 11.9571 20.7744 11.6719 20.4814 11.5274L19.0714 10.8204C18.9385 10.754 18.8682 10.5978 18.9112 10.4532L19.794 7.35965C19.8877 7.03154 19.7979 6.68 19.5557 6.43782C19.3135 6.19565 18.962 6.10581 18.6339 6.19955L15.5403 7.09013C15.3958 7.1331 15.2434 7.06279 15.1731 6.92998L14.47 5.5199ZM8.36486 18.9645L13.2631 14.0663C13.6302 13.6992 13.6302 13.1055 13.2631 12.7422C12.8959 12.3789 12.3022 12.375 11.9389 12.7422L7.03681 17.6365L3.7401 15.8045L3.84556 15.7342C4.40022 15.3632 4.65802 14.6835 4.49006 14.039L3.19715 9.08613L4.16195 9.20721C4.47443 9.24627 4.78692 9.12519 4.99003 8.88692L6.03295 7.67213L7.07587 8.88692C7.31804 9.16815 7.70083 9.28143 8.05628 9.17596L8.96249 8.90645L9.19685 10.7345C9.24372 11.1134 9.51715 11.4259 9.88822 11.5235C10.2593 11.6212 10.6499 11.4844 10.8765 11.1798L13.474 7.7151L13.5013 7.76979C13.97 8.71114 15.0442 9.18378 16.0559 8.89473L17.5285 8.47288L17.1066 9.94546C16.8176 10.9571 17.2902 12.0313 18.2316 12.5039L18.2862 12.5313L14.8216 15.1288C14.5169 15.3592 14.3802 15.7499 14.4778 16.117C14.5755 16.4842 14.888 16.7576 15.2669 16.8084L17.0949 17.0428L16.8254 17.949C16.7199 18.3044 16.8332 18.6872 17.1144 18.9294L18.3292 19.9723L17.6222 20.5777C17.0636 21.0543 16.7824 21.7808 16.8762 22.5112L16.9152 22.812L11.9623 21.5152C11.3178 21.3472 10.6382 21.605 10.2671 22.1597L10.1968 22.2651L8.36486 18.9645Z" fill="url(#paint0_radial_39_1381)"/>
<path d="M14.47 5.5199C14.3255 5.23085 14.0404 5.03555 13.7162 5.0043C13.392 4.97305 13.0756 5.11367 12.8803 5.37538L10.7632 8.20336L10.6812 7.57448C10.646 7.30106 10.4937 7.05888 10.2632 6.90655C10.0327 6.75421 9.74761 6.71515 9.4859 6.79327L8.10316 7.20341L6.74385 5.62146C6.56417 5.41444 6.30637 5.29335 6.03295 5.29335C5.75953 5.29335 5.49782 5.41444 5.32205 5.62146L3.89243 7.28543L2.05659 7.05498C1.74801 7.01592 1.43943 7.1331 1.23632 7.36746C1.0332 7.60183 0.95508 7.91822 1.0332 8.21898L2.61906 14.2968L1.4199 15.0975C1.14648 15.2772 0.990235 15.5897 1.00195 15.9139C1.01367 16.2381 1.19726 16.535 1.4824 16.6951L5.65797 19.0153L1.27538 23.3979C0.908208 23.7651 0.908208 24.3588 1.27538 24.7221C1.64255 25.0853 2.23627 25.0892 2.59953 24.7221L6.98603 20.3434L9.30622 24.5189C9.46637 24.8041 9.75932 24.9877 10.0874 24.9994C10.4155 25.0111 10.7241 24.8549 10.9038 24.5814L11.7045 23.3823L17.7824 24.9681C18.0831 25.0463 18.4034 24.972 18.6378 24.765C18.8721 24.558 18.9893 24.2533 18.9503 23.9448L18.7393 22.273C18.7276 22.1675 18.7667 22.0659 18.8448 21.9956L20.3799 20.6793C20.5869 20.4996 20.708 20.2418 20.708 19.9684C20.708 19.695 20.5869 19.4333 20.3799 19.2575L18.794 17.8982L19.2042 16.5154C19.2823 16.2498 19.2393 15.9686 19.0909 15.7381C18.9425 15.5077 18.6964 15.3553 18.4229 15.3202L17.798 15.2382L20.626 13.1172C20.8877 12.9219 21.0244 12.6055 20.997 12.2813C20.9697 11.9571 20.7744 11.6719 20.4814 11.5274L19.0714 10.8204C18.9385 10.754 18.8682 10.5978 18.9112 10.4532L19.794 7.35965C19.8877 7.03154 19.7979 6.68 19.5557 6.43782C19.3135 6.19565 18.962 6.10581 18.6339 6.19955L15.5403 7.09013C15.3958 7.1331 15.2434 7.06279 15.1731 6.92998L14.47 5.5199ZM8.36486 18.9645L13.2631 14.0663C13.6302 13.6992 13.6302 13.1055 13.2631 12.7422C12.8959 12.3789 12.3022 12.375 11.9389 12.7422L7.03681 17.6365L3.7401 15.8045L3.84556 15.7342C4.40022 15.3632 4.65802 14.6835 4.49006 14.039L3.19715 9.08613L4.16195 9.20721C4.47443 9.24627 4.78692 9.12519 4.99003 8.88692L6.03295 7.67213L7.07587 8.88692C7.31804 9.16815 7.70083 9.28143 8.05628 9.17596L8.96249 8.90645L9.19685 10.7345C9.24372 11.1134 9.51715 11.4259 9.88822 11.5235C10.2593 11.6212 10.6499 11.4844 10.8765 11.1798L13.474 7.7151L13.5013 7.76979C13.97 8.71114 15.0442 9.18378 16.0559 8.89473L17.5285 8.47288L17.1066 9.94546C16.8176 10.9571 17.2902 12.0313 18.2316 12.5039L18.2862 12.5313L14.8216 15.1288C14.5169 15.3592 14.3802 15.7499 14.4778 16.117C14.5755 16.4842 14.888 16.7576 15.2669 16.8084L17.0949 17.0428L16.8254 17.949C16.7199 18.3044 16.8332 18.6872 17.1144 18.9294L18.3292 19.9723L17.6222 20.5777C17.0636 21.0543 16.7824 21.7808 16.8762 22.5112L16.9152 22.812L11.9623 21.5152C11.3178 21.3472 10.6382 21.605 10.2671 22.1597L10.1968 22.2651L8.36486 18.9645Z" fill="url(#paint1_radial_39_1381)"/>
<path d="M13.0806 5.5249L13.0804 5.5252L10.9633 8.35318L10.5948 8.84542L10.5153 8.23569L10.4333 7.60682L10.4332 7.60636C10.4074 7.40593 10.2959 7.22785 10.1253 7.1151C9.95805 7.00451 9.7498 6.9754 9.55741 7.03283L9.55699 7.03295L8.17425 7.44309L8.01905 7.48912L7.91354 7.36634L6.55505 5.78532C6.55492 5.78518 6.55479 5.78503 6.55466 5.78488C6.42099 5.63112 6.23148 5.54335 6.03295 5.54335C5.83264 5.54335 5.64071 5.6324 5.51262 5.78326L5.51168 5.78438L5.51167 5.78437L4.08206 7.44835L3.99454 7.55022L3.86129 7.53349L2.02545 7.30303L2.02519 7.303C1.79888 7.27435 1.5732 7.36047 1.42524 7.53119M13.0806 5.5249L1.42524 7.53119M13.0806 5.5249C13.2239 5.3329 13.4554 5.23032 13.6922 5.25315C13.9312 5.27618 14.1405 5.42008 14.2463 5.63145L13.0806 5.5249ZM1.42524 7.53119C1.27449 7.70514 1.21836 7.93721 1.27513 8.15598M1.42524 7.53119L1.27513 8.15598M2.90589 14.4059L2.75789 14.5047L1.55873 15.3055L1.5572 15.3065C1.35874 15.4369 1.24314 15.6657 1.25179 15.9049C1.26029 16.1401 1.39399 16.3585 1.6044 16.4769C1.60454 16.477 1.60468 16.4771 1.60482 16.4771L5.7794 18.7968L6.06908 18.9578L5.83474 19.1921L1.45215 23.5747C1.18209 23.8447 1.18346 24.2794 1.45121 24.5443C1.72271 24.8129 2.15809 24.8128 2.42181 24.5462L2.42291 24.5451L6.80941 20.1664L7.04374 19.9325L7.20456 20.2219L9.5242 24.3965L2.90589 14.4059ZM2.90589 14.4059L2.86096 14.2337M2.90589 14.4059L2.86096 14.2337M2.86096 14.2337L1.27517 8.15613C1.27516 8.15608 1.27515 8.15603 1.27513 8.15598M2.86096 14.2337L1.27513 8.15598M8.0548 18.921L8.18809 18.7878L13.0863 13.8896C13.3563 13.6195 13.355 13.1848 13.0872 12.9199C12.8157 12.6513 12.3803 12.6515 12.1166 12.918L12.1155 12.9191L7.21344 17.8134L7.08009 17.9465L6.91537 17.855L3.61866 16.0231L3.26031 15.8239L3.60142 15.5965L3.70655 15.5264C4.17272 15.2146 4.38924 14.6436 4.24816 14.1021C4.24816 14.1021 4.24815 14.1021 4.24814 14.102L2.95526 9.14927L2.86203 8.7921L3.22829 8.83807L4.19296 8.95914C4.42232 8.98781 4.65151 8.89866 4.79978 8.72473L4.80035 8.72407L5.84326 7.50929L6.03295 7.28834L6.22263 7.50929L7.26531 8.72379C7.26532 8.7238 7.26534 8.72382 7.26536 8.72384C7.44364 8.93083 7.72455 9.01361 7.98514 8.9363C7.98515 8.9363 7.98516 8.9363 7.98517 8.93629L8.89122 8.66682L9.17307 8.583L9.21046 8.87466L9.44482 10.7027L9.44496 10.7038C9.47923 10.9808 9.67923 11.21 9.95185 11.2817C10.2249 11.3536 10.5106 11.2528 10.6758 11.0306L10.6764 11.0298L13.274 7.56514L13.5166 7.24142L13.6976 7.6033L13.7249 7.65798L13.7251 7.65835C14.14 8.49162 15.091 8.91031 15.987 8.6544L8.0548 18.921ZM8.0548 18.921L8.14627 19.0859L9.97821 22.3865L10.1773 22.7451L10.4048 22.4038L10.4749 22.2987M8.0548 18.921L10.4749 22.2987M10.4749 22.2987C10.4749 22.2987 10.475 22.2986 10.475 22.2986C10.7869 21.8325 11.3578 21.616 11.8993 21.7571L16.8519 23.0538L17.2109 23.1479L17.1631 22.7798L17.1241 22.4794L10.4749 22.2987ZM18.3437 12.2805L18.398 12.3077L18.7599 12.4886L18.4362 12.7313L14.9724 15.3282C14.9722 15.3283 14.9721 15.3284 14.9719 15.3285C14.7474 15.4987 14.6483 15.7854 14.7194 16.0528C14.7908 16.321 15.0199 16.5228 15.2994 16.5605C15.2996 16.5605 15.2998 16.5606 15.3001 16.5606L17.1267 16.7948L17.4183 16.8322L17.3345 17.114L17.065 18.0201L18.3437 12.2805ZM18.3437 12.2805C17.5095 11.8617 17.0911 10.9101 17.3469 10.0143L18.3437 12.2805ZM18.7133 19.9725L18.4918 20.1622L17.7848 20.7676L17.7845 20.7679C17.2902 21.1896 17.0412 21.8325 17.1241 22.479L18.7133 19.9725ZM18.7133 19.9725L18.4921 19.7826M18.7133 19.9725L18.4921 19.7826M18.4921 19.7826L17.2776 18.7399M18.4921 19.7826L17.2776 18.7399M17.2776 18.7399L17.2773 18.7397C17.0705 18.5614 16.9878 18.2807 17.065 18.0202L17.2776 18.7399ZM19.5536 7.29105L18.6716 10.382L14.2464 5.6317L14.9494 7.04154L14.9493 7.04157L14.9522 7.04696C15.0739 7.27697 15.3438 7.40873 15.6104 7.33011C15.6108 7.33 15.6111 7.32988 15.6115 7.32977L18.7026 6.43993C18.7026 6.43991 18.7027 6.43989 18.7028 6.43986C18.944 6.37103 19.2014 6.43705 19.3789 6.6146C19.5565 6.7922 19.6225 7.04965 19.5536 7.29097L19.5536 7.29105ZM17.4596 8.23254L15.9872 8.65435L17.347 10.0141L17.7688 8.54172L17.8929 8.10841L17.4596 8.23254Z" stroke="url(#paint2_linear_39_1381)" stroke-opacity="0.05" stroke-width="0.5"/>
<path d="M35.046 22V8.4H40.326L42.526 15.2L43.206 17.74L43.886 15.2L46.086 8.4H51.246V22H47.166L47.426 12.98L46.366 16.68L44.626 22H41.666L39.886 16.6L38.866 13.02L39.126 22H35.046ZM57.1291 14.76H53.2491C53.5691 12.3 55.6291 10.76 58.4891 10.76C61.7091 10.76 63.4491 12.66 63.4491 15.16V19.26C63.4491 20.76 63.5891 21.46 63.7091 22H59.7291C59.6691 21.7 59.6291 21.32 59.5891 20.86C58.7891 21.94 57.6091 22.38 56.3291 22.38C54.4091 22.38 52.8491 21.32 52.8491 19.22C52.8491 17.76 53.7091 16.6 55.5091 15.98C56.8691 15.5 58.1491 15.38 59.5691 15.36V15.1C59.5691 14.26 59.1291 13.86 58.3491 13.86C57.6091 13.86 57.2291 14.26 57.1291 14.76ZM56.7091 18.92C56.7091 19.48 57.0891 19.88 57.7691 19.88C58.7291 19.88 59.5691 19.04 59.5691 17.78V17.4C57.3491 17.48 56.7091 18.14 56.7091 18.92ZM69.2432 26.42H65.3632V11.14H69.2432V12.14C69.8832 11.24 70.7432 10.76 71.7832 10.76C74.5232 10.76 76.2832 13 76.2832 16.56C76.2832 20.26 74.4832 22.38 71.7832 22.38C70.7232 22.38 69.8632 21.92 69.2432 21.06V26.42ZM70.7832 13.86C69.7632 13.86 69.2432 14.8 69.2432 16.56C69.2432 18.34 69.7632 19.28 70.7832 19.28C71.7832 19.28 72.3032 18.34 72.3032 16.56C72.3032 14.8 71.7832 13.86 70.7832 13.86ZM77.6921 22V7.6H81.5721V22H77.6921ZM94.1403 18.42C93.6003 20.9 91.4603 22.38 88.6603 22.38C85.1803 22.38 82.9803 20.14 82.9803 16.58C82.9803 12.88 85.2003 10.76 88.5403 10.76C91.9203 10.76 94.0603 12.96 94.0603 16.56V17.4H86.9603C87.1403 18.68 87.7003 19.36 88.6603 19.36C89.3803 19.36 89.8003 19.08 90.0803 18.42H94.1403ZM88.5403 13.78C87.7403 13.78 87.2403 14.32 87.0203 15.36H90.0603C89.8403 14.32 89.3403 13.78 88.5403 13.78Z" fill="#14002D"/>
<path d="M104.398 13.519C104.398 16.687 111.279 14.2285 111.279 18.832C111.279 20.9935 109.53 22.198 107.137 22.198C104.728 22.198 103.078 21.0925 102.583 18.832H104.167C104.53 20.1685 105.537 20.8945 107.154 20.8945C108.837 20.8945 109.728 20.152 109.728 19.03C109.728 15.598 102.847 18.1555 102.847 13.618C102.847 12.001 104.2 10.582 106.675 10.582C108.837 10.582 110.569 11.6215 110.982 14.014H109.381C109.035 12.529 108.078 11.8855 106.642 11.8855C105.223 11.8855 104.398 12.529 104.398 13.519ZM113.416 19.4755V14.3935H112.195V13.2385H113.416V11.2255H114.868V13.2385H116.799V14.3935H114.868V19.4755C114.868 20.5315 115.182 21.0265 116.469 21.0265H116.766V22.066C116.601 22.1485 116.238 22.198 115.825 22.198C114.192 22.198 113.416 21.3235 113.416 19.4755ZM119.683 16.093H118.231C118.511 14.1625 119.782 13.024 121.927 13.024C124.27 13.024 125.408 14.3935 125.408 16.4395V19.888C125.408 20.8945 125.491 21.5215 125.722 22H124.187C124.022 21.6535 123.973 21.142 123.956 20.614C123.214 21.7195 122.026 22.198 120.97 22.198C119.155 22.198 117.934 21.3565 117.934 19.69C117.934 18.4855 118.594 17.611 119.881 17.182C121.069 16.786 122.273 16.687 123.956 16.6705V16.4725C123.956 15.0535 123.296 14.278 121.795 14.278C120.541 14.278 119.864 14.971 119.683 16.093ZM119.419 19.657C119.419 20.4655 120.095 20.944 121.118 20.944C122.735 20.944 123.956 19.6735 123.956 18.172V17.7595C120.227 17.7925 119.419 18.5845 119.419 19.657ZM127.954 22V13.2385H129.406V14.5915C130 13.519 130.94 13.024 131.996 13.024C132.343 13.024 132.656 13.1065 132.821 13.2385V14.542C132.574 14.4595 132.26 14.4265 131.914 14.4265C130.165 14.4265 129.406 15.5155 129.406 17.0995V22H127.954ZM134.472 19.4755V14.3935H133.251V13.2385H134.472V11.2255H135.924V13.2385H137.854V14.3935H135.924V19.4755C135.924 20.5315 136.237 21.0265 137.524 21.0265H137.821V22.066C137.656 22.1485 137.293 22.198 136.881 22.198C135.247 22.198 134.472 21.3235 134.472 19.4755ZM146.975 19.1455C146.497 21.1915 145.028 22.198 143.032 22.198C140.491 22.198 138.956 20.482 138.956 17.6275C138.956 14.6575 140.491 13.024 142.949 13.024C145.424 13.024 146.909 14.7235 146.909 17.512V17.875H140.441C140.524 19.8385 141.448 20.944 143.032 20.944C144.269 20.944 145.144 20.35 145.457 19.1455H146.975ZM142.949 14.278C141.547 14.278 140.705 15.1525 140.491 16.786H145.391C145.193 15.169 144.319 14.278 142.949 14.278ZM149.009 22V13.2385H150.461V14.5915C151.055 13.519 151.996 13.024 153.052 13.024C153.398 13.024 153.712 13.1065 153.877 13.2385V14.542C153.629 14.4595 153.316 14.4265 152.969 14.4265C151.22 14.4265 150.461 15.5155 150.461 17.0995V22H149.009ZM158.93 22V10.78H160.448V16.192L165.579 10.78H167.493L162.213 16.291L167.625 22H165.579L160.448 16.621V22H158.93ZM169.227 12.067V10.12H170.679V12.067H169.227ZM169.227 22V13.2385H170.679V22H169.227ZM173.344 19.4755V14.3935H172.123V13.2385H173.344V11.2255H174.796V13.2385H176.727V14.3935H174.796V19.4755C174.796 20.5315 175.11 21.0265 176.397 21.0265H176.694V22.066C176.529 22.1485 176.166 22.198 175.753 22.198C174.12 22.198 173.344 21.3235 173.344 19.4755Z" fill="#0D0027" fill-opacity="0.55"/>
<defs>
<radialGradient id="paint0_radial_39_1381" cx="0" cy="0" r="1" gradientUnits="userSpaceOnUse" gradientTransform="translate(1 25) rotate(-47.3271) scale(79.1336 79.1337)">
<stop stop-color="#9563FF"/>
<stop offset="1" stop-color="#9563FF" stop-opacity="0"/>
</radialGradient>
<radialGradient id="paint1_radial_39_1381" cx="0" cy="0" r="1" gradientUnits="userSpaceOnUse" gradientTransform="translate(1.90911 23.6364) rotate(-41.7101) scale(28.0094 28.0093)">
<stop stop-color="#FF7F57"/>
<stop offset="1" stop-color="#9563FF" stop-opacity="0"/>
</radialGradient>
<linearGradient id="paint2_linear_39_1381" x1="11.0002" y1="5" x2="11.0002" y2="25" gradientUnits="userSpaceOnUse">
<stop/>
<stop offset="1" stop-opacity="0"/>
</linearGradient>
</defs>
</svg>
