<svg width="177" height="26" viewBox="0 0 177 26" fill="none" xmlns="http://www.w3.org/2000/svg">
<path d="M14.47 3.5199C14.3255 3.23085 14.0404 3.03555 13.7162 3.0043C13.392 2.97305 13.0756 3.11367 12.8803 3.37538L10.7632 6.20336L10.6812 5.57448C10.646 5.30106 10.4937 5.05888 10.2632 4.90655C10.0327 4.75421 9.74761 4.71515 9.4859 4.79327L8.10316 5.20341L6.74385 3.62146C6.56417 3.41444 6.30637 3.29335 6.03295 3.29335C5.75953 3.29335 5.49782 3.41444 5.32205 3.62146L3.89243 5.28543L2.05659 5.05498C1.74801 5.01592 1.43943 5.1331 1.23632 5.36746C1.0332 5.60183 0.95508 5.91822 1.0332 6.21898L2.61906 12.2968L1.4199 13.0975C1.14648 13.2772 0.990235 13.5897 1.00195 13.9139C1.01367 14.2381 1.19726 14.535 1.4824 14.6951L5.65797 17.0153L1.27538 21.3979C0.908208 21.7651 0.908208 22.3588 1.27538 22.7221C1.64255 23.0853 2.23627 23.0892 2.59953 22.7221L6.98603 18.3434L9.30622 22.5189C9.46637 22.8041 9.75932 22.9877 10.0874 22.9994C10.4155 23.0111 10.7241 22.8549 10.9038 22.5814L11.7045 21.3823L17.7824 22.9681C18.0831 23.0463 18.4034 22.972 18.6378 22.765C18.8721 22.558 18.9893 22.2533 18.9503 21.9448L18.7393 20.273C18.7276 20.1675 18.7667 20.0659 18.8448 19.9956L20.3799 18.6793C20.5869 18.4996 20.708 18.2418 20.708 17.9684C20.708 17.695 20.5869 17.4333 20.3799 17.2575L18.794 15.8982L19.2042 14.5154C19.2823 14.2498 19.2393 13.9686 19.0909 13.7381C18.9425 13.5077 18.6964 13.3553 18.4229 13.3202L17.798 13.2382L20.626 11.1172C20.8877 10.9219 21.0244 10.6055 20.997 10.2813C20.9697 9.95707 20.7744 9.67193 20.4814 9.52741L19.0714 8.82041C18.9385 8.75401 18.8682 8.59777 18.9112 8.45324L19.794 5.35965C19.8877 5.03154 19.7979 4.68 19.5557 4.43782C19.3135 4.19565 18.962 4.10581 18.6339 4.19955L15.5403 5.09013C15.3958 5.1331 15.2434 5.06279 15.1731 4.92998L14.47 3.5199ZM8.36486 16.9645L13.2631 12.0663C13.6302 11.6992 13.6302 11.1055 13.2631 10.7422C12.8959 10.3789 12.3022 10.375 11.9389 10.7422L7.0368 15.6365L3.7401 13.8045L3.84556 13.7342C4.40022 13.3632 4.65802 12.6835 4.49006 12.039L3.19715 7.08613L4.16195 7.20721C4.47443 7.24627 4.78692 7.12519 4.99003 6.88692L6.03295 5.67213L7.07587 6.88692C7.31804 7.16815 7.70083 7.28143 8.05628 7.17596L8.96249 6.90645L9.19685 8.73448C9.24372 9.11337 9.51715 9.42585 9.88822 9.5235C10.2593 9.62115 10.6499 9.48444 10.8765 9.17977L13.474 5.7151L13.5013 5.76979C13.97 6.71114 15.0442 7.18378 16.0559 6.89473L17.5285 6.47288L17.1066 7.94546C16.8176 8.95712 17.2902 10.0313 18.2316 10.5039L18.2862 10.5313L14.8216 13.1288C14.5169 13.3592 14.3802 13.7499 14.4778 14.117C14.5755 14.4842 14.888 14.7576 15.2669 14.8084L17.0949 15.0428L16.8254 15.949C16.7199 16.3044 16.8332 16.6872 17.1144 16.9294L18.3292 17.9723L17.6222 18.5777C17.0636 19.0543 16.7824 19.7808 16.8762 20.5112L16.9152 20.812L11.9623 19.5152C11.3178 19.3472 10.6382 19.605 10.2671 20.1597L10.1968 20.2651L8.36486 16.9645Z" fill="#0D001D"/>
<path d="M14.47 3.5199C14.3255 3.23085 14.0404 3.03555 13.7162 3.0043C13.392 2.97305 13.0756 3.11367 12.8803 3.37538L10.7632 6.20336L10.6812 5.57448C10.646 5.30106 10.4937 5.05888 10.2632 4.90655C10.0327 4.75421 9.74761 4.71515 9.4859 4.79327L8.10316 5.20341L6.74385 3.62146C6.56417 3.41444 6.30637 3.29335 6.03295 3.29335C5.75953 3.29335 5.49782 3.41444 5.32205 3.62146L3.89243 5.28543L2.05659 5.05498C1.74801 5.01592 1.43943 5.1331 1.23632 5.36746C1.0332 5.60183 0.95508 5.91822 1.0332 6.21898L2.61906 12.2968L1.4199 13.0975C1.14648 13.2772 0.990235 13.5897 1.00195 13.9139C1.01367 14.2381 1.19726 14.535 1.4824 14.6951L5.65797 17.0153L1.27538 21.3979C0.908208 21.7651 0.908208 22.3588 1.27538 22.7221C1.64255 23.0853 2.23627 23.0892 2.59953 22.7221L6.98603 18.3434L9.30622 22.5189C9.46637 22.8041 9.75932 22.9877 10.0874 22.9994C10.4155 23.0111 10.7241 22.8549 10.9038 22.5814L11.7045 21.3823L17.7824 22.9681C18.0831 23.0463 18.4034 22.972 18.6378 22.765C18.8721 22.558 18.9893 22.2533 18.9503 21.9448L18.7393 20.273C18.7276 20.1675 18.7667 20.0659 18.8448 19.9956L20.3799 18.6793C20.5869 18.4996 20.708 18.2418 20.708 17.9684C20.708 17.695 20.5869 17.4333 20.3799 17.2575L18.794 15.8982L19.2042 14.5154C19.2823 14.2498 19.2393 13.9686 19.0909 13.7381C18.9425 13.5077 18.6964 13.3553 18.4229 13.3202L17.798 13.2382L20.626 11.1172C20.8877 10.9219 21.0244 10.6055 20.997 10.2813C20.9697 9.95707 20.7744 9.67193 20.4814 9.52741L19.0714 8.82041C18.9385 8.75401 18.8682 8.59777 18.9112 8.45324L19.794 5.35965C19.8877 5.03154 19.7979 4.68 19.5557 4.43782C19.3135 4.19565 18.962 4.10581 18.6339 4.19955L15.5403 5.09013C15.3958 5.1331 15.2434 5.06279 15.1731 4.92998L14.47 3.5199ZM8.36486 16.9645L13.2631 12.0663C13.6302 11.6992 13.6302 11.1055 13.2631 10.7422C12.8959 10.3789 12.3022 10.375 11.9389 10.7422L7.0368 15.6365L3.7401 13.8045L3.84556 13.7342C4.40022 13.3632 4.65802 12.6835 4.49006 12.039L3.19715 7.08613L4.16195 7.20721C4.47443 7.24627 4.78692 7.12519 4.99003 6.88692L6.03295 5.67213L7.07587 6.88692C7.31804 7.16815 7.70083 7.28143 8.05628 7.17596L8.96249 6.90645L9.19685 8.73448C9.24372 9.11337 9.51715 9.42585 9.88822 9.5235C10.2593 9.62115 10.6499 9.48444 10.8765 9.17977L13.474 5.7151L13.5013 5.76979C13.97 6.71114 15.0442 7.18378 16.0559 6.89473L17.5285 6.47288L17.1066 7.94546C16.8176 8.95712 17.2902 10.0313 18.2316 10.5039L18.2862 10.5313L14.8216 13.1288C14.5169 13.3592 14.3802 13.7499 14.4778 14.117C14.5755 14.4842 14.888 14.7576 15.2669 14.8084L17.0949 15.0428L16.8254 15.949C16.7199 16.3044 16.8332 16.6872 17.1144 16.9294L18.3292 17.9723L17.6222 18.5777C17.0636 19.0543 16.7824 19.7808 16.8762 20.5112L16.9152 20.812L11.9623 19.5152C11.3178 19.3472 10.6382 19.605 10.2671 20.1597L10.1968 20.2651L8.36486 16.9645Z" fill="url(#paint0_radial_64_8)"/>
<path d="M14.47 3.5199C14.3255 3.23085 14.0404 3.03555 13.7162 3.0043C13.392 2.97305 13.0756 3.11367 12.8803 3.37538L10.7632 6.20336L10.6812 5.57448C10.646 5.30106 10.4937 5.05888 10.2632 4.90655C10.0327 4.75421 9.74761 4.71515 9.4859 4.79327L8.10316 5.20341L6.74385 3.62146C6.56417 3.41444 6.30637 3.29335 6.03295 3.29335C5.75953 3.29335 5.49782 3.41444 5.32205 3.62146L3.89243 5.28543L2.05659 5.05498C1.74801 5.01592 1.43943 5.1331 1.23632 5.36746C1.0332 5.60183 0.95508 5.91822 1.0332 6.21898L2.61906 12.2968L1.4199 13.0975C1.14648 13.2772 0.990235 13.5897 1.00195 13.9139C1.01367 14.2381 1.19726 14.535 1.4824 14.6951L5.65797 17.0153L1.27538 21.3979C0.908208 21.7651 0.908208 22.3588 1.27538 22.7221C1.64255 23.0853 2.23627 23.0892 2.59953 22.7221L6.98603 18.3434L9.30622 22.5189C9.46637 22.8041 9.75932 22.9877 10.0874 22.9994C10.4155 23.0111 10.7241 22.8549 10.9038 22.5814L11.7045 21.3823L17.7824 22.9681C18.0831 23.0463 18.4034 22.972 18.6378 22.765C18.8721 22.558 18.9893 22.2533 18.9503 21.9448L18.7393 20.273C18.7276 20.1675 18.7667 20.0659 18.8448 19.9956L20.3799 18.6793C20.5869 18.4996 20.708 18.2418 20.708 17.9684C20.708 17.695 20.5869 17.4333 20.3799 17.2575L18.794 15.8982L19.2042 14.5154C19.2823 14.2498 19.2393 13.9686 19.0909 13.7381C18.9425 13.5077 18.6964 13.3553 18.4229 13.3202L17.798 13.2382L20.626 11.1172C20.8877 10.9219 21.0244 10.6055 20.997 10.2813C20.9697 9.95707 20.7744 9.67193 20.4814 9.52741L19.0714 8.82041C18.9385 8.75401 18.8682 8.59777 18.9112 8.45324L19.794 5.35965C19.8877 5.03154 19.7979 4.68 19.5557 4.43782C19.3135 4.19565 18.962 4.10581 18.6339 4.19955L15.5403 5.09013C15.3958 5.1331 15.2434 5.06279 15.1731 4.92998L14.47 3.5199ZM8.36486 16.9645L13.2631 12.0663C13.6302 11.6992 13.6302 11.1055 13.2631 10.7422C12.8959 10.3789 12.3022 10.375 11.9389 10.7422L7.0368 15.6365L3.7401 13.8045L3.84556 13.7342C4.40022 13.3632 4.65802 12.6835 4.49006 12.039L3.19715 7.08613L4.16195 7.20721C4.47443 7.24627 4.78692 7.12519 4.99003 6.88692L6.03295 5.67213L7.07587 6.88692C7.31804 7.16815 7.70083 7.28143 8.05628 7.17596L8.96249 6.90645L9.19685 8.73448C9.24372 9.11337 9.51715 9.42585 9.88822 9.5235C10.2593 9.62115 10.6499 9.48444 10.8765 9.17977L13.474 5.7151L13.5013 5.76979C13.97 6.71114 15.0442 7.18378 16.0559 6.89473L17.5285 6.47288L17.1066 7.94546C16.8176 8.95712 17.2902 10.0313 18.2316 10.5039L18.2862 10.5313L14.8216 13.1288C14.5169 13.3592 14.3802 13.7499 14.4778 14.117C14.5755 14.4842 14.888 14.7576 15.2669 14.8084L17.0949 15.0428L16.8254 15.949C16.7199 16.3044 16.8332 16.6872 17.1144 16.9294L18.3292 17.9723L17.6222 18.5777C17.0636 19.0543 16.7824 19.7808 16.8762 20.5112L16.9152 20.812L11.9623 19.5152C11.3178 19.3472 10.6382 19.605 10.2671 20.1597L10.1968 20.2651L8.36486 16.9645Z" fill="url(#paint1_radial_64_8)"/>
<path d="M13.0806 3.5249L13.0804 3.5252L10.9633 6.35318L10.5948 6.84542L10.5153 6.23569L10.4333 5.60682L10.4332 5.60636C10.4074 5.40593 10.2959 5.22785 10.1253 5.1151C9.95805 5.00451 9.7498 4.9754 9.55741 5.03283L9.55699 5.03295L8.17425 5.44309L8.01905 5.48912L7.91354 5.36634L6.55505 3.78532C6.55493 3.78519 6.55482 3.78506 6.5547 3.78493C6.42103 3.63114 6.2315 3.54335 6.03295 3.54335C5.83264 3.54335 5.64071 3.6324 5.51262 3.78326L5.51168 3.78438L5.51167 3.78437L4.08206 5.44835L3.99454 5.55022L3.86129 5.53349L2.02545 5.30303L2.02519 5.303C1.79888 5.27435 1.5732 5.36047 1.42524 5.53119C1.27448 5.70514 1.21836 5.93722 1.27514 6.15601C1.27515 6.15605 1.27516 6.15609 1.27517 6.15613L2.86096 12.2337L2.90589 12.4059L2.75789 12.5047L1.55873 13.3054L1.5572 13.3065C1.35874 13.4369 1.24314 13.6657 1.25179 13.9049C1.26029 14.1401 1.39399 14.3585 1.60438 14.4769C1.60453 14.477 1.60467 14.4771 1.60482 14.4771L5.7794 16.7968L6.06908 16.9578L5.83474 17.1921L1.45215 21.5747C1.18209 21.8447 1.18346 22.2794 1.45121 22.5443C1.72271 22.8129 2.15809 22.8128 2.42181 22.5462L2.42291 22.5451L6.80941 18.1664L7.04374 17.9325L7.20456 18.2219L9.5242 22.3965C9.52428 22.3967 9.52436 22.3968 9.52444 22.3969L13.0806 3.5249ZM13.0806 3.5249C13.2239 3.3329 13.4554 3.23032 13.6922 3.25315C13.9312 3.27618 14.1405 3.42008 14.2463 3.63145L13.0806 3.5249ZM8.0548 16.921L8.18809 16.7878L13.0863 11.8896C13.3563 11.6195 13.355 11.1848 13.0872 10.9199C12.8157 10.6513 12.3803 10.6515 12.1166 10.918L12.1155 10.9191L7.21344 15.8134L7.08009 15.9465L6.91537 15.855L3.61866 14.0231L3.26031 13.8239L3.60142 13.5965L3.70655 13.5264C4.17275 13.2145 4.38927 12.6436 4.24814 12.102L2.95526 7.14927L2.86203 6.7921L3.22829 6.83807L4.19296 6.95914C4.193 6.95915 4.19304 6.95915 4.19308 6.95916C4.4224 6.98778 4.65154 6.89863 4.79978 6.72473L4.80035 6.72407L5.84326 5.50929L6.03295 5.28834L6.22263 5.50929L7.26531 6.72379C7.26539 6.72388 7.26547 6.72397 7.26555 6.72407C7.44384 6.93089 7.72464 7.01358 7.98514 6.9363C7.98515 6.9363 7.98516 6.9363 7.98517 6.93629L8.89122 6.66682L9.17307 6.583L9.21046 6.87466L9.44482 8.70269L9.44496 8.70379C9.47923 8.98079 9.67923 9.20999 9.95185 9.28173C10.2249 9.35359 10.5106 9.25278 10.6758 9.03059L10.6764 9.0298L13.274 5.56514L13.5166 5.24142L13.6976 5.6033L13.7249 5.65798L13.7251 5.65835C14.14 6.49167 15.0911 6.91037 15.9872 6.65435L17.4596 6.23254L17.8929 6.10841L17.7688 6.54172L17.347 8.01414L8.0548 16.921ZM8.0548 16.921L8.14628 17.0859L9.97821 20.3865L10.1773 20.7451L10.4048 20.4038L10.4749 20.2987M8.0548 16.921L10.4749 20.2987M10.4749 20.2987L10.4751 20.2984C10.787 19.8325 11.3577 19.6161 11.899 19.757L10.4749 20.2987ZM18.3437 10.2805L18.398 10.3077L18.7599 10.4886L18.4362 10.7313L14.9724 13.3282C14.9723 13.3282 14.9722 13.3283 14.9721 13.3284C14.7475 13.4985 14.6483 13.7853 14.7194 14.0528C14.7908 14.321 15.0199 14.5228 15.2994 14.5605C15.2996 14.5605 15.2998 14.5606 15.3001 14.5606L17.1267 14.7948L17.4183 14.8322L17.3345 15.114L17.065 16.0201L18.3437 10.2805ZM18.3437 10.2805C17.5095 9.86166 17.0911 8.91009 17.3469 8.01431L18.3437 10.2805ZM18.7133 17.9725L18.4918 18.1622L17.7848 18.7676L17.7845 18.7679C17.2902 19.1896 17.0412 19.8325 17.1241 20.479L18.7133 17.9725ZM18.7133 17.9725L18.4921 17.7826M18.7133 17.9725L18.4921 17.7826M18.4921 17.7826L17.2776 16.7399C17.2775 16.7399 17.2774 16.7398 17.2773 16.7397M18.4921 17.7826L17.2773 16.7397M17.2773 16.7397C17.0705 16.5614 16.9878 16.2807 17.065 16.0202L17.2773 16.7397ZM11.8993 19.7571L16.8519 21.0538L17.2109 21.1479L17.1631 20.7798L17.1241 20.4794L11.8993 19.7571Z" stroke="url(#paint2_linear_64_8)" stroke-opacity="0.05" stroke-width="0.5"/>
<path d="M35.046 20V6.4H40.326L42.526 13.2L43.206 15.74L43.886 13.2L46.086 6.4H51.246V20H47.166L47.426 10.98L46.366 14.68L44.626 20H41.666L39.886 14.6L38.866 11.02L39.126 20H35.046ZM57.1291 12.76H53.2491C53.5691 10.3 55.6291 8.76 58.4891 8.76C61.7091 8.76 63.4491 10.66 63.4491 13.16V17.26C63.4491 18.76 63.5891 19.46 63.7091 20H59.7291C59.6691 19.7 59.6291 19.32 59.5891 18.86C58.7891 19.94 57.6091 20.38 56.3291 20.38C54.4091 20.38 52.8491 19.32 52.8491 17.22C52.8491 15.76 53.7091 14.6 55.5091 13.98C56.8691 13.5 58.1491 13.38 59.5691 13.36V13.1C59.5691 12.26 59.1291 11.86 58.3491 11.86C57.6091 11.86 57.2291 12.26 57.1291 12.76ZM56.7091 16.92C56.7091 17.48 57.0891 17.88 57.7691 17.88C58.7291 17.88 59.5691 17.04 59.5691 15.78V15.4C57.3491 15.48 56.7091 16.14 56.7091 16.92ZM69.2432 24.42H65.3632V9.14H69.2432V10.14C69.8832 9.24 70.7432 8.76 71.7832 8.76C74.5232 8.76 76.2832 11 76.2832 14.56C76.2832 18.26 74.4832 20.38 71.7832 20.38C70.7232 20.38 69.8632 19.92 69.2432 19.06V24.42ZM70.7832 11.86C69.7632 11.86 69.2432 12.8 69.2432 14.56C69.2432 16.34 69.7632 17.28 70.7832 17.28C71.7832 17.28 72.3032 16.34 72.3032 14.56C72.3032 12.8 71.7832 11.86 70.7832 11.86ZM77.6921 20V5.6H81.5721V20H77.6921ZM94.1403 16.42C93.6003 18.9 91.4603 20.38 88.6603 20.38C85.1803 20.38 82.9803 18.14 82.9803 14.58C82.9803 10.88 85.2003 8.76 88.5403 8.76C91.9203 8.76 94.0603 10.96 94.0603 14.56V15.4H86.9603C87.1403 16.68 87.7003 17.36 88.6603 17.36C89.3803 17.36 89.8003 17.08 90.0803 16.42H94.1403ZM88.5403 11.78C87.7403 11.78 87.2403 12.32 87.0203 13.36H90.0603C89.8403 12.32 89.3403 11.78 88.5403 11.78Z" fill="#14002D"/>
<path d="M104.398 11.519C104.398 14.687 111.279 12.2285 111.279 16.832C111.279 18.9935 109.53 20.198 107.137 20.198C104.728 20.198 103.078 19.0925 102.583 16.832H104.167C104.53 18.1685 105.537 18.8945 107.154 18.8945C108.837 18.8945 109.728 18.152 109.728 17.03C109.728 13.598 102.847 16.1555 102.847 11.618C102.847 10.001 104.2 8.582 106.675 8.582C108.837 8.582 110.569 9.6215 110.982 12.014H109.381C109.035 10.529 108.078 9.8855 106.642 9.8855C105.223 9.8855 104.398 10.529 104.398 11.519ZM113.416 17.4755V12.3935H112.195V11.2385H113.416V9.2255H114.868V11.2385H116.799V12.3935H114.868V17.4755C114.868 18.5315 115.182 19.0265 116.469 19.0265H116.766V20.066C116.601 20.1485 116.238 20.198 115.825 20.198C114.192 20.198 113.416 19.3235 113.416 17.4755ZM119.683 14.093H118.231C118.511 12.1625 119.782 11.024 121.927 11.024C124.27 11.024 125.408 12.3935 125.408 14.4395V17.888C125.408 18.8945 125.491 19.5215 125.722 20H124.187C124.022 19.6535 123.973 19.142 123.956 18.614C123.214 19.7195 122.026 20.198 120.97 20.198C119.155 20.198 117.934 19.3565 117.934 17.69C117.934 16.4855 118.594 15.611 119.881 15.182C121.069 14.786 122.273 14.687 123.956 14.6705V14.4725C123.956 13.0535 123.296 12.278 121.795 12.278C120.541 12.278 119.864 12.971 119.683 14.093ZM119.419 17.657C119.419 18.4655 120.095 18.944 121.118 18.944C122.735 18.944 123.956 17.6735 123.956 16.172V15.7595C120.227 15.7925 119.419 16.5845 119.419 17.657ZM127.954 20V11.2385H129.406V12.5915C130 11.519 130.94 11.024 131.996 11.024C132.343 11.024 132.656 11.1065 132.821 11.2385V12.542C132.574 12.4595 132.26 12.4265 131.914 12.4265C130.165 12.4265 129.406 13.5155 129.406 15.0995V20H127.954ZM134.472 17.4755V12.3935H133.251V11.2385H134.472V9.2255H135.924V11.2385H137.854V12.3935H135.924V17.4755C135.924 18.5315 136.237 19.0265 137.524 19.0265H137.821V20.066C137.656 20.1485 137.293 20.198 136.881 20.198C135.247 20.198 134.472 19.3235 134.472 17.4755ZM146.975 17.1455C146.497 19.1915 145.028 20.198 143.032 20.198C140.491 20.198 138.956 18.482 138.956 15.6275C138.956 12.6575 140.491 11.024 142.949 11.024C145.424 11.024 146.909 12.7235 146.909 15.512V15.875H140.441C140.524 17.8385 141.448 18.944 143.032 18.944C144.269 18.944 145.144 18.35 145.457 17.1455H146.975ZM142.949 12.278C141.547 12.278 140.705 13.1525 140.491 14.786H145.391C145.193 13.169 144.319 12.278 142.949 12.278ZM149.009 20V11.2385H150.461V12.5915C151.055 11.519 151.996 11.024 153.052 11.024C153.398 11.024 153.712 11.1065 153.877 11.2385V12.542C153.629 12.4595 153.316 12.4265 152.969 12.4265C151.22 12.4265 150.461 13.5155 150.461 15.0995V20H149.009ZM158.93 20V8.78H160.448V14.192L165.579 8.78H167.493L162.213 14.291L167.625 20H165.579L160.448 14.621V20H158.93ZM169.227 10.067V8.12H170.679V10.067H169.227ZM169.227 20V11.2385H170.679V20H169.227ZM173.344 17.4755V12.3935H172.123V11.2385H173.344V9.2255H174.796V11.2385H176.727V12.3935H174.796V17.4755C174.796 18.5315 175.11 19.0265 176.397 19.0265H176.694V20.066C176.529 20.1485 176.166 20.198 175.753 20.198C174.12 20.198 173.344 19.3235 173.344 17.4755Z" fill="#0D0027" fill-opacity="0.55"/>
<defs>
<radialGradient id="paint0_radial_64_8" cx="0" cy="0" r="1" gradientUnits="userSpaceOnUse" gradientTransform="translate(1 23) rotate(-47.3271) scale(79.1336 79.1337)">
<stop stop-color="#9563FF"/>
<stop offset="1" stop-color="#9563FF" stop-opacity="0"/>
</radialGradient>
<radialGradient id="paint1_radial_64_8" cx="0" cy="0" r="1" gradientUnits="userSpaceOnUse" gradientTransform="translate(1.90911 21.6364) rotate(-41.7101) scale(28.0094 28.0093)">
<stop stop-color="#FF7F57"/>
<stop offset="1" stop-color="#9563FF" stop-opacity="0"/>
</radialGradient>
<linearGradient id="paint2_linear_64_8" x1="11.0002" y1="3" x2="11.0002" y2="23" gradientUnits="userSpaceOnUse">
<stop/>
<stop offset="1" stop-opacity="0"/>
</linearGradient>
</defs>
</svg>
