<svg xmlns="http://www.w3.org/2000/svg" viewBox="0 0 207.43 32">
  <style>
    .logo-path {
      fill: #000;
    }
    @media (prefers-color-scheme: dark) {
      .logo-path {
        fill: #fff;
      }
    }
  </style>
  <path class="logo-path" d="M15.81 0h30.6c8.72 0 15.81 7.12 15.81 15.87s-7.09 15.87-15.81 15.87h-30.6C7.09 31.73 0 24.61 0 15.87S7.09 0 15.81 0m14.05 24.59c.38.4.95.38 1.46.28.23-.19-.1-.43-.42-.66-.19-.14-.38-.27-.43-.39.18-.21-.34-.7-.75-1.08-.17-.16-.32-.3-.39-.39-.29-.31-.4-.71-.52-1.11-.08-.26-.15-.53-.28-.77-.79-1.84-1.7-3.66-2.97-5.21-.82-1.03-1.75-1.96-2.68-2.88-.6-.6-1.2-1.19-1.77-1.82-.59-.61-.94-1.35-1.29-2.1-.3-.63-.59-1.25-1.03-1.8-1.31-1.95-5.46-2.48-6.07.27 0 .08-.02.14-.1.19-.34.25-.64.53-.89.87-.62.86-.71 2.32.06 3.09v-.05c.03-.39.05-.76.36-1.04.59.51 1.49.69 2.18.31.83 1.19 1.09 2.63 1.36 4.07.22 1.2.44 2.41.99 3.48l.03.06c.32.54.65 1.08 1.07 1.55.15.23.46.49.77.74.41.33.81.66.85.95v.38c0 .75 0 1.53.48 2.15.27.54-.39 1.08-.91 1.02-.29.04-.6-.04-.92-.11-.43-.1-.85-.21-1.2 0-.1.1-.24.11-.38.11-.17 0-.33 0-.43.18-.02.05-.07.11-.12.17-.11.13-.23.28-.09.39.01 0 .03-.02.04-.03.21-.16.42-.32.7-.22-.04.21.1.27.24.33.02 0 .05.02.07.03 0 .05-.01.1-.02.15-.02.12-.05.23.05.34.04-.04.08-.09.12-.14.09-.12.19-.24.36-.29.37.5.75.29 1.22.03.53-.29 1.19-.65 2.1-.14-.35-.02-.66.02-.9.31-.06.06-.11.14 0 .22.54-.35.76-.22.97-.11.15.09.3.17.55.06.06-.03.12-.06.18-.1.4-.22.81-.44 1.3-.36-.36.1-.49.33-.63.58-.07.12-.14.25-.24.37-.05.05-.08.12-.02.21.75-.06 1.03-.25 1.42-.51.18-.12.39-.26.68-.41.32-.2.64-.07.95.05.34.13.66.26.96-.03.1-.09.21-.09.33-.09h.13c-.09-.5-.62-.5-1.16-.49-.62 0-1.25.01-1.23-.76.58-.39.58-1.08.59-1.72 0-.16 0-.31.01-.46.42.24.87.42 1.32.6.42.17.84.34 1.23.56.41.66 1.05 1.53 1.9 1.47.02-.07.04-.12.07-.19.05 0 .1.02.15.03.22.06.46.12.58-.15Zm16.67-7.48c.49.49 1.16.77 1.86.77s1.36-.28 1.86-.77c.49-.49.77-1.16.77-1.85a2.63 2.63 0 0 0-2.63-2.62c-.33 0-.65.06-.94.18l-1.5-2.2-1.05.72 1.51 2.21a2.61 2.61 0 0 0 .13 3.56ZM41.81 10c.37.18.77.28 1.19.27.56 0 1.11-.19 1.55-.52.45-.34.78-.81.94-1.34.16-.54.15-1.11-.04-1.64a2.58 2.58 0 0 0-1.01-1.29c-.34-.23-.73-.37-1.14-.43-.41-.05-.82 0-1.21.13-.39.14-.74.37-1.02.66a2.61 2.61 0 0 0-.68 2.26c.07.4.24.79.48 1.11.25.33.57.59.94.78Zm0 15.21c.37.18.77.28 1.19.27.56 0 1.11-.19 1.55-.52.45-.34.78-.81.94-1.34.16-.54.15-1.11-.04-1.64a2.58 2.58 0 0 0-1.01-1.29c-.34-.23-.73-.37-1.14-.43-.41-.05-.82 0-1.21.13-.39.14-.74.37-1.02.66a2.61 2.61 0 0 0-.68 2.26c.07.4.24.79.48 1.11.25.33.57.59.94.78Zm2.42-9.3v-1.3h-4.02c-.1-.39-.29-.76-.56-1.07l1.51-2.24-1.1-.73-1.51 2.24c-.28-.1-.57-.15-.86-.16-.69 0-1.36.27-1.85.76s-.77 1.15-.77 1.84.28 1.35.77 1.84 1.16.76 1.85.76c.29 0 .59-.06.86-.16l1.51 2.24 1.09-.73-1.5-2.24c.27-.31.46-.67.56-1.07h4.02Z" style="fill-rule: evenodd"/>
  <path class="logo-path" d="M148.76 7.61c-1.36-1.08-3.25-1.63-5.59-1.63-1.69 0-3.23.4-4.57 1.18-1.35.79-2.42 1.93-3.19 3.41-.78 1.48-1.17 3.28-1.17 5.36 0 1.59.23 3.02.69 4.25s1.1 2.28 1.92 3.12c.81.84 1.77 1.49 2.85 1.93s2.25.66 3.48.66c1.84 0 3.44-.4 4.76-1.19s2.34-1.9 3.05-3.29c.71-1.4 1.07-3.01 1.07-4.81 0-.05 0-.22-.01-.49 0-.22-.02-.4-.03-.54h-6.65v2.34h3.42v.11c-.18 1.11-.5 2.06-.97 2.8-.47.75-1.09 1.31-1.83 1.68s-1.63.55-2.6.54c-1.31-.02-2.41-.32-3.29-.91-.87-.59-1.54-1.42-1.97-2.47s-.65-2.3-.65-3.71.22-2.67.66-3.73s1.1-1.91 1.97-2.49c.87-.59 1.98-.88 3.28-.86 1.3 0 2.39.35 3.23 1.04.82.68 1.43 1.59 1.8 2.71l3.12-.49c-.49-1.91-1.42-3.42-2.76-4.49Zm40.43 4.09c-1.01-.67-2.19-1-3.56-1s-2.53.33-3.46 1c-.19.14-.37.28-.54.44V11.1h-2.85V32h3.25v-7.16c.06.04.12.09.18.13.96.67 2.14 1 3.55 1 1.33 0 2.49-.33 3.48-1s1.76-1.58 2.3-2.73.82-2.45.82-3.9-.28-2.77-.83-3.92-1.33-2.05-2.34-2.72m-.64 9.04c-.26.72-.67 1.29-1.21 1.71s-1.24.63-2.08.63-1.57-.2-2.1-.6-.92-.95-1.16-1.67c-.25-.71-.37-1.54-.37-2.48s.12-1.78.37-2.48c.24-.71.63-1.26 1.14-1.66q.78-.6 2.01-.6c.87 0 1.58.21 2.14.64.56.42.98 1 1.25 1.72s.4 1.52.4 2.39-.13 1.69-.39 2.4m18.78-4.61c-.06-.56-.18-1.15-.38-1.78s-.5-1.21-.91-1.77c-.41-.55-.96-1.01-1.66-1.37s-1.58-.54-2.65-.54c-1.36 0-2.5.3-3.43.89-.5.32-.93.7-1.3 1.13V6.26h-2.88v19.29h3.27v-7.43c0-.88.1-1.61.29-2.18.2-.57.46-1.01.78-1.34.33-.33.69-.56 1.09-.69s.81-.2 1.22-.2c.77 0 1.38.16 1.83.5.45.33.79.75 1.02 1.27.23.51.37 1.05.44 1.6.06.55.09 1.06.09 1.51v6.97h3.27v-8.08c0-.35-.03-.8-.09-1.36Zm-45.71-4.9c-.44.03-.88.11-1.3.25-.42.13-.81.32-1.15.55q-.615.375-1.05.96c-.13.17-.24.35-.36.55l-.12.21v-2.47h-2.69v14.16h3.07v-7.2c0-.55.07-1.07.2-1.55s.35-.91.63-1.28c.28-.38.65-.69 1.1-.93.44-.27.96-.43 1.51-.47.52-.04.99 0 1.4.1v-2.84c-.4-.06-.82-.08-1.24-.05ZM74.91 6.25v19.24h13.25v-2.91H77.92V6.25zm20.32 4.56c-2.89 0-5.05 1.35-5.93 3.72-.06.15-.22.61-.22.61l2.48 1.6.34-.88c.57-1.5 1.64-2.19 3.34-2.19s2.68.83 2.66 2.45v.27s-2.25.37-3.18.56c-3.96.84-5.62 2.35-5.62 4.83 0 1.32.73 2.75 2.07 3.55.8.48 1.85.66 3 .66.76 0 1.5-.11 2.18-.32 1.56-.52 1.99-1.53 1.99-1.53v1.33h2.58v-9.49c0-3.23-2.12-5.15-5.67-5.15Zm2.67 10.13c0 1-1.09 2.4-3.62 2.4-.71 0-1.22-.19-1.56-.47-.45-.38-.6-.92-.54-1.4.03-.21.15-.66.62-1.04.48-.4 1.32-.68 2.62-.97 1.07-.23 2.48-.49 2.48-.49zm72.73-10.13c-2.89 0-5.05 1.35-5.93 3.72-.06.15-.22.61-.22.61l2.48 1.6.34-.88c.57-1.5 1.64-2.19 3.34-2.19s2.68.83 2.66 2.45v.27s-2.26.37-3.18.56c-3.96.84-5.62 2.35-5.62 4.83 0 1.32.73 2.75 2.07 3.55.8.48 1.85.66 3 .66.76 0 1.5-.11 2.18-.32 1.56-.52 1.99-1.53 1.99-1.53v1.33h2.58v-9.49c0-3.23-2.12-5.15-5.67-5.15Zm2.67 10.13c0 1-1.09 2.4-3.62 2.4-.71 0-1.22-.19-1.56-.47-.45-.38-.6-.92-.54-1.4.03-.21.15-.66.62-1.04.48-.4 1.32-.68 2.62-.97 1.07-.23 2.48-.49 2.48-.49zm-62.88-10.13c-.36 0-.71.02-1.04.07-2.31.35-2.98 1.52-2.98 1.52v-1.17h-2.89v14.23h3.01v-7.89c0-2.68 1.96-3.9 3.77-3.9 1.96 0 2.92 1.06 2.92 3.23v8.56h3.01v-8.98c0-3.5-2.22-5.67-5.8-5.67m18.36.41v1.47s-.74-1.88-4.09-1.88c-4.17 0-6.76 2.88-6.76 7.51 0 2.61.83 4.67 2.31 5.97 1.15 1.01 2.68 1.53 4.5 1.56 1.27.02 2.09-.32 2.6-.65.99-.63 1.35-1.22 1.35-1.22s-.04.47-.12 1.1c-.05.46-.16.78-.16.78-.46 1.63-1.8 2.57-3.75 2.57s-3.14-.64-3.37-1.91l-2.93.87c.51 2.44 2.79 3.89 6.12 3.89 2.26 0 4.03-.61 5.27-1.83s1.88-2.99 1.88-5.24v-13h-2.85Zm-.19 7.23c0 2.85-1.39 4.55-3.72 4.55-2.5 0-3.93-1.71-3.93-4.68s1.43-4.65 3.93-4.65c2.27 0 3.7 1.69 3.72 4.42z"/>
</svg>