<svg width="141" height="31" viewBox="0 0 141 31" fill="none" xmlns="http://www.w3.org/2000/svg">
<path d="M53.92 20.54C53.2933 21.26 52.52 21.8333 51.6 22.26C50.68 22.6733 49.62 22.88 48.42 22.88C47.3267 22.88 46.3133 22.7 45.38 22.34C44.46 21.98 43.66 21.4733 42.98 20.82C42.3 20.1533 41.7667 19.36 41.38 18.44C40.9933 17.52 40.8 16.5067 40.8 15.4C40.8 14.2667 40.9933 13.24 41.38 12.32C41.78 11.4 42.3267 10.62 43.02 9.98C43.7133 9.32667 44.5267 8.82667 45.46 8.48C46.3933 8.13333 47.4 7.96 48.48 7.96C49.48 7.96 50.46 8.14 51.42 8.5C52.3933 8.84667 53.18 9.36 53.78 10.04L51.46 12.36C51.14 11.92 50.72 11.5933 50.2 11.38C49.68 11.1667 49.1467 11.06 48.6 11.06C48 11.06 47.4467 11.1733 46.94 11.4C46.4467 11.6133 46.02 11.9133 45.66 12.3C45.3 12.6867 45.02 13.1467 44.82 13.68C44.62 14.2 44.52 14.7733 44.52 15.4C44.52 16.04 44.62 16.6267 44.82 17.16C45.02 17.6933 45.2933 18.1533 45.64 18.54C46 18.9133 46.4267 19.2067 46.92 19.42C47.4133 19.6333 47.9533 19.74 48.54 19.74C49.22 19.74 49.8133 19.6067 50.32 19.34C50.8267 19.0733 51.2333 18.7267 51.54 18.3L53.92 20.54ZM65.5314 17.48C65.5314 18.2933 65.3847 19.0333 65.0914 19.7C64.7981 20.3533 64.3981 20.9133 63.8914 21.38C63.3847 21.8333 62.7981 22.1867 62.1314 22.44C61.4647 22.6933 60.7514 22.82 59.9914 22.82C59.2447 22.82 58.5314 22.6933 57.8514 22.44C57.1847 22.1867 56.5981 21.8333 56.0914 21.38C55.5981 20.9133 55.2047 20.3533 54.9114 19.7C54.6181 19.0333 54.4714 18.2933 54.4714 17.48C54.4714 16.6667 54.6181 15.9333 54.9114 15.28C55.2047 14.6267 55.5981 14.0733 56.0914 13.62C56.5981 13.1667 57.1847 12.82 57.8514 12.58C58.5314 12.34 59.2447 12.22 59.9914 12.22C60.7514 12.22 61.4647 12.34 62.1314 12.58C62.7981 12.82 63.3847 13.1667 63.8914 13.62C64.3981 14.0733 64.7981 14.6267 65.0914 15.28C65.3847 15.9333 65.5314 16.6667 65.5314 17.48ZM62.3714 17.48C62.3714 17.16 62.3181 16.8467 62.2114 16.54C62.1047 16.2333 61.9514 15.9667 61.7514 15.74C61.5514 15.5 61.3047 15.3067 61.0114 15.16C60.7181 15.0133 60.3781 14.94 59.9914 14.94C59.6047 14.94 59.2647 15.0133 58.9714 15.16C58.6781 15.3067 58.4314 15.5 58.2314 15.74C58.0447 15.9667 57.8981 16.2333 57.7914 16.54C57.6981 16.8467 57.6514 17.16 57.6514 17.48C57.6514 17.8 57.6981 18.1133 57.7914 18.42C57.8981 18.7267 58.0514 19.0067 58.2514 19.26C58.4514 19.5 58.6981 19.6933 58.9914 19.84C59.2847 19.9867 59.6247 20.06 60.0114 20.06C60.3981 20.06 60.7381 19.9867 61.0314 19.84C61.3247 19.6933 61.5714 19.5 61.7714 19.26C61.9714 19.0067 62.1181 18.7267 62.2114 18.42C62.3181 18.1133 62.3714 17.8 62.3714 17.48ZM80.3281 22.5V17.06C80.3281 16.78 80.3081 16.5133 80.2681 16.26C80.2281 15.9933 80.1548 15.7667 80.0481 15.58C79.9415 15.3933 79.7948 15.2467 79.6081 15.14C79.4348 15.02 79.2015 14.96 78.9081 14.96C78.6281 14.96 78.3815 15.02 78.1681 15.14C77.9681 15.26 77.7948 15.42 77.6481 15.62C77.5148 15.82 77.4148 16.0533 77.3481 16.32C77.2815 16.5733 77.2481 16.84 77.2481 17.12V22.5H73.9681V16.82C73.9681 16.2467 73.8548 15.7933 73.6281 15.46C73.4015 15.1267 73.0415 14.96 72.5481 14.96C72.0281 14.96 71.6215 15.1667 71.3281 15.58C71.0481 15.9933 70.9081 16.5 70.9081 17.1V22.5H67.6081V12.54H70.7881V13.92H70.8281C70.9481 13.7067 71.0948 13.5 71.2681 13.3C71.4548 13.1 71.6748 12.9267 71.9281 12.78C72.1815 12.62 72.4615 12.4933 72.7681 12.4C73.0881 12.3067 73.4348 12.26 73.8081 12.26C74.5281 12.26 75.1348 12.4067 75.6281 12.7C76.1348 12.9933 76.5281 13.4133 76.8081 13.96C77.1415 13.44 77.5681 13.0267 78.0881 12.72C78.6081 12.4133 79.2415 12.26 79.9881 12.26C80.6681 12.26 81.2348 12.3867 81.6881 12.64C82.1548 12.88 82.5281 13.2 82.8081 13.6C83.0881 13.9867 83.2881 14.4267 83.4081 14.92C83.5415 15.4 83.6081 15.8733 83.6081 16.34V22.5H80.3281ZM97.1647 17.48C97.1647 18.1733 97.058 18.84 96.8447 19.48C96.6314 20.12 96.318 20.6867 95.9047 21.18C95.5047 21.66 95.0114 22.0467 94.4247 22.34C93.838 22.6333 93.1714 22.78 92.4247 22.78C91.8114 22.78 91.2314 22.66 90.6847 22.42C90.138 22.1667 89.7114 21.8267 89.4047 21.4H89.3647V27.3H86.0847V12.54H89.2047V13.76H89.2647C89.5714 13.36 89.9914 13.0133 90.5247 12.72C91.0714 12.4133 91.7114 12.26 92.4447 12.26C93.1647 12.26 93.818 12.4 94.4047 12.68C94.9914 12.96 95.4847 13.34 95.8847 13.82C96.298 14.3 96.6114 14.86 96.8247 15.5C97.0514 16.1267 97.1647 16.7867 97.1647 17.48ZM93.9847 17.48C93.9847 17.16 93.9314 16.8467 93.8247 16.54C93.7314 16.2333 93.5847 15.9667 93.3847 15.74C93.198 15.5 92.958 15.3067 92.6647 15.16C92.3714 15.0133 92.0314 14.94 91.6447 14.94C91.2714 14.94 90.938 15.0133 90.6447 15.16C90.3514 15.3067 90.098 15.5 89.8847 15.74C89.6847 15.98 89.5247 16.2533 89.4047 16.56C89.298 16.8667 89.2447 17.18 89.2447 17.5C89.2447 17.82 89.298 18.1333 89.4047 18.44C89.5247 18.7467 89.6847 19.02 89.8847 19.26C90.098 19.5 90.3514 19.6933 90.6447 19.84C90.938 19.9867 91.2714 20.06 91.6447 20.06C92.0314 20.06 92.3714 19.9867 92.6647 19.84C92.958 19.6933 93.198 19.5 93.3847 19.26C93.5847 19.02 93.7314 18.7467 93.8247 18.44C93.9314 18.12 93.9847 17.8 93.9847 17.48ZM109.789 17.48C109.789 18.2933 109.643 19.0333 109.349 19.7C109.056 20.3533 108.656 20.9133 108.149 21.38C107.643 21.8333 107.056 22.1867 106.389 22.44C105.723 22.6933 105.009 22.82 104.249 22.82C103.503 22.82 102.789 22.6933 102.109 22.44C101.443 22.1867 100.856 21.8333 100.349 21.38C99.8559 20.9133 99.4626 20.3533 99.1692 19.7C98.8759 19.0333 98.7292 18.2933 98.7292 17.48C98.7292 16.6667 98.8759 15.9333 99.1692 15.28C99.4626 14.6267 99.8559 14.0733 100.349 13.62C100.856 13.1667 101.443 12.82 102.109 12.58C102.789 12.34 103.503 12.22 104.249 12.22C105.009 12.22 105.723 12.34 106.389 12.58C107.056 12.82 107.643 13.1667 108.149 13.62C108.656 14.0733 109.056 14.6267 109.349 15.28C109.643 15.9333 109.789 16.6667 109.789 17.48ZM106.629 17.48C106.629 17.16 106.576 16.8467 106.469 16.54C106.363 16.2333 106.209 15.9667 106.009 15.74C105.809 15.5 105.563 15.3067 105.269 15.16C104.976 15.0133 104.636 14.94 104.249 14.94C103.863 14.94 103.523 15.0133 103.229 15.16C102.936 15.3067 102.689 15.5 102.489 15.74C102.303 15.9667 102.156 16.2333 102.049 16.54C101.956 16.8467 101.909 17.16 101.909 17.48C101.909 17.8 101.956 18.1133 102.049 18.42C102.156 18.7267 102.309 19.0067 102.509 19.26C102.709 19.5 102.956 19.6933 103.249 19.84C103.543 19.9867 103.883 20.06 104.269 20.06C104.656 20.06 104.996 19.9867 105.289 19.84C105.583 19.6933 105.829 19.5 106.029 19.26C106.229 19.0067 106.376 18.7267 106.469 18.42C106.576 18.1133 106.629 17.8 106.629 17.48ZM117.726 15.48C117.459 15.2267 117.146 15.0133 116.786 14.84C116.426 14.6667 116.046 14.58 115.646 14.58C115.339 14.58 115.053 14.64 114.786 14.76C114.533 14.88 114.406 15.0867 114.406 15.38C114.406 15.66 114.546 15.86 114.826 15.98C115.119 16.1 115.586 16.2333 116.226 16.38C116.599 16.46 116.973 16.5733 117.346 16.72C117.733 16.8667 118.079 17.06 118.386 17.3C118.693 17.54 118.939 17.8333 119.126 18.18C119.313 18.5267 119.406 18.94 119.406 19.42C119.406 20.0467 119.279 20.58 119.026 21.02C118.773 21.4467 118.439 21.7933 118.026 22.06C117.626 22.3267 117.173 22.52 116.666 22.64C116.159 22.76 115.653 22.82 115.146 22.82C114.333 22.82 113.533 22.6933 112.746 22.44C111.973 22.1733 111.326 21.7867 110.806 21.28L112.646 19.34C112.939 19.66 113.299 19.9267 113.726 20.14C114.153 20.3533 114.606 20.46 115.086 20.46C115.353 20.46 115.613 20.4 115.866 20.28C116.133 20.1467 116.266 19.92 116.266 19.6C116.266 19.2933 116.106 19.0667 115.786 18.92C115.466 18.7733 114.966 18.62 114.286 18.46C113.939 18.38 113.593 18.2733 113.246 18.14C112.899 18.0067 112.586 17.8267 112.306 17.6C112.039 17.3733 111.819 17.0933 111.646 16.76C111.473 16.4267 111.386 16.0267 111.386 15.56C111.386 14.96 111.513 14.4533 111.766 14.04C112.019 13.6133 112.346 13.2667 112.746 13C113.146 12.7333 113.586 12.54 114.066 12.42C114.559 12.2867 115.046 12.22 115.526 12.22C116.273 12.22 116.999 12.34 117.706 12.58C118.426 12.8067 119.033 13.1533 119.526 13.62L117.726 15.48ZM124.86 9.36C124.86 9.61333 124.806 9.85333 124.7 10.08C124.606 10.2933 124.473 10.48 124.3 10.64C124.14 10.8 123.94 10.9267 123.7 11.02C123.473 11.1133 123.233 11.16 122.98 11.16C122.446 11.16 122 10.9867 121.64 10.64C121.28 10.28 121.1 9.85333 121.1 9.36C121.1 9.12 121.146 8.89333 121.24 8.68C121.333 8.45333 121.466 8.26 121.64 8.1C121.813 7.94 122.013 7.81333 122.24 7.72C122.466 7.61333 122.713 7.56 122.98 7.56C123.233 7.56 123.473 7.60667 123.7 7.7C123.94 7.79333 124.14 7.92 124.3 8.08C124.473 8.24 124.606 8.43333 124.7 8.66C124.806 8.87333 124.86 9.10667 124.86 9.36ZM121.34 22.5V12.54H124.62V22.5H121.34ZM137.778 17.48C137.778 18.2933 137.631 19.0333 137.338 19.7C137.044 20.3533 136.644 20.9133 136.138 21.38C135.631 21.8333 135.044 22.1867 134.378 22.44C133.711 22.6933 132.998 22.82 132.238 22.82C131.491 22.82 130.778 22.6933 130.098 22.44C129.431 22.1867 128.844 21.8333 128.338 21.38C127.844 20.9133 127.451 20.3533 127.158 19.7C126.864 19.0333 126.718 18.2933 126.718 17.48C126.718 16.6667 126.864 15.9333 127.158 15.28C127.451 14.6267 127.844 14.0733 128.338 13.62C128.844 13.1667 129.431 12.82 130.098 12.58C130.778 12.34 131.491 12.22 132.238 12.22C132.998 12.22 133.711 12.34 134.378 12.58C135.044 12.82 135.631 13.1667 136.138 13.62C136.644 14.0733 137.044 14.6267 137.338 15.28C137.631 15.9333 137.778 16.6667 137.778 17.48ZM134.618 17.48C134.618 17.16 134.564 16.8467 134.458 16.54C134.351 16.2333 134.198 15.9667 133.998 15.74C133.798 15.5 133.551 15.3067 133.258 15.16C132.964 15.0133 132.624 14.94 132.238 14.94C131.851 14.94 131.511 15.0133 131.217 15.16C130.924 15.3067 130.678 15.5 130.478 15.74C130.291 15.9667 130.144 16.2333 130.038 16.54C129.944 16.8467 129.898 17.16 129.898 17.48C129.898 17.8 129.944 18.1133 130.038 18.42C130.144 18.7267 130.298 19.0067 130.498 19.26C130.698 19.5 130.944 19.6933 131.238 19.84C131.531 19.9867 131.871 20.06 132.258 20.06C132.644 20.06 132.984 19.9867 133.278 19.84C133.571 19.6933 133.818 19.5 134.018 19.26C134.218 19.0067 134.364 18.7267 134.458 18.42C134.564 18.1133 134.618 17.8 134.618 17.48Z" fill="url(#paint0_linear_553_23723)"/>
<rect x="0.5" y="0.5" width="30" height="30" rx="10.5" fill="url(#paint1_linear_553_23723)"/>
<rect x="0.5" y="0.5" width="30" height="30" rx="10.5" stroke="url(#paint2_linear_553_23723)"/>
<g clip-path="url(#clip0_553_23723)">
<path fill-rule="evenodd" clip-rule="evenodd" d="M17.1199 8.74623C17.2237 8.80403 17.3052 8.89494 17.3514 9.00446C17.3975 9.11398 17.4057 9.2358 17.3745 9.35049L15.9617 14.5299H21.1163C21.22 14.5299 21.3214 14.5602 21.4081 14.6171C21.4947 14.6739 21.5629 14.7549 21.6042 14.85C21.6455 14.9451 21.6581 15.0501 21.6405 15.1523C21.6228 15.2544 21.5758 15.3492 21.505 15.425L14.0582 23.4037C13.9771 23.4908 13.8691 23.5481 13.7515 23.5666C13.634 23.5851 13.5136 23.5636 13.4097 23.5056C13.3058 23.4476 13.2243 23.3564 13.1783 23.2467C13.1323 23.1369 13.1245 23.0149 13.156 22.9001L14.5688 17.7214H9.41421C9.31055 17.7214 9.20915 17.6911 9.12247 17.6342C9.0358 17.5774 8.96763 17.4964 8.92634 17.4014C8.88505 17.3063 8.87244 17.2012 8.89007 17.099C8.9077 16.9969 8.95479 16.9021 9.02555 16.8264L16.4724 8.84765C16.5535 8.76087 16.6613 8.70374 16.7786 8.68536C16.896 8.66698 17.0161 8.68841 17.1199 8.74623Z" fill="white"/>
</g>
<defs>
<linearGradient id="paint0_linear_553_23723" x1="90.5" y1="11.4062" x2="90.5" y2="26.5" gradientUnits="userSpaceOnUse">
<stop offset="0.150119" stop-color="#373737"/>
<stop offset="0.713016" stop-color="#111111"/>
</linearGradient>
<linearGradient id="paint1_linear_553_23723" x1="15.5" y1="1" x2="15.5" y2="30" gradientUnits="userSpaceOnUse">
<stop stop-color="#4D8AFF"/>
<stop offset="0.31" stop-color="#177EF7"/>
<stop offset="0.495" stop-color="#1E78FF"/>
<stop offset="0.665" stop-color="#1670F8"/>
<stop offset="1" stop-color="#2238FF"/>
</linearGradient>
<linearGradient id="paint2_linear_553_23723" x1="15.5" y1="1" x2="15.5" y2="30" gradientUnits="userSpaceOnUse">
<stop stop-color="#0038FF" stop-opacity="0.55"/>
<stop offset="1" stop-color="#00089B"/>
</linearGradient>
<clipPath id="clip0_553_23723">
<rect width="15" height="15" fill="white" transform="translate(8 8)"/>
</clipPath>
</defs>
</svg>
