<svg width="1585" height="424" viewBox="0 0 1585 424" fill="none" xmlns="http://www.w3.org/2000/svg">
<rect x="37.7335" y="38.0576" width="347.351" height="347.351" rx="109.671" fill="url(#paint0_linear_4381_2176)"/>
<rect x="37.7335" y="38.0576" width="347.351" height="347.351" rx="109.671" stroke="#F33004" stroke-width="2.11409"/>
<path fill-rule="evenodd" clip-rule="evenodd" d="M233.844 122.464C235.101 123.162 236.089 124.26 236.649 125.584C237.208 126.908 237.309 128.382 236.933 129.769L219.84 192.436H282.204C283.459 192.435 284.686 192.801 285.736 193.488C286.785 194.176 287.611 195.156 288.11 196.307C288.61 197.458 288.762 198.73 288.547 199.967C288.333 201.203 287.762 202.35 286.904 203.266L196.799 299.803C195.813 300.842 194.51 301.523 193.094 301.738C191.678 301.954 190.231 301.691 188.98 300.992C187.73 300.294 186.748 299.199 186.19 297.88C185.632 296.561 185.528 295.094 185.897 293.71L202.977 231.055H140.614C139.359 231.057 138.131 230.691 137.082 230.003C136.032 229.315 135.207 228.335 134.708 227.184C134.208 226.033 134.056 224.761 134.27 223.524C134.485 222.288 135.056 221.141 135.914 220.225L226.019 123.688C227.001 122.642 228.304 121.954 229.721 121.732C231.139 121.51 232.59 121.768 233.844 122.464Z" fill="white"/>
<path d="M553.406 274.684C518.421 274.684 492.642 248.215 492.642 213.92C492.642 179.625 518.421 153.155 553.406 153.155C575.963 153.155 595.527 165.124 604.964 182.847L579.415 197.808C574.812 188.371 564.915 182.387 553.176 182.387C535.453 182.387 522.333 195.506 522.333 213.92C522.333 232.103 535.453 245.223 553.176 245.223C565.145 245.223 575.042 239.468 579.645 230.032L605.424 244.762C595.527 262.715 575.963 274.684 553.406 274.684ZM671.689 274.684C637.854 274.684 610.924 248.215 610.924 213.92C610.924 179.625 637.854 153.155 671.689 153.155C705.523 153.155 732.683 179.625 732.683 213.92C732.683 248.215 705.523 274.684 671.689 274.684ZM671.689 245.683C689.411 245.683 702.991 232.563 702.991 213.92C702.991 195.276 689.411 182.156 671.689 182.156C654.196 182.156 640.616 195.276 640.616 213.92C640.616 232.563 654.184 245.683 671.689 245.683ZM878.428 153.155C904.667 153.155 921.93 171.799 921.93 200.57V271.462H892.25V202.641C892.25 189.062 885.345 180.775 872.904 180.775C859.785 180.775 851.499 189.522 851.499 206.785V271.462H821.819V202.641C821.819 189.062 814.914 180.775 802.473 180.775C789.813 180.775 780.837 189.522 780.837 206.785V271.462H751.157V156.378H780.837V168.577C787.282 158.909 798.099 153.155 812.83 153.155C827.101 153.155 837.688 159.14 844.133 169.727C851.28 159.37 862.789 153.155 878.428 153.155ZM1011.71 153.155C1042.55 153.155 1067.87 179.625 1067.87 213.92C1067.87 248.215 1042.55 274.684 1011.71 274.684C994.906 274.684 982.707 268.47 974.421 257.882V317.496H944.729V156.378H974.409V169.958C982.707 159.37 994.906 153.155 1011.71 153.155ZM1006.18 246.374C1024.6 246.374 1038.17 233.254 1038.17 213.92C1038.17 194.586 1024.6 181.466 1006.18 181.466C988.001 181.466 974.421 194.586 974.421 213.92C974.421 233.254 987.988 246.374 1006.18 246.374ZM1141.16 274.684C1107.32 274.684 1080.4 248.215 1080.4 213.92C1080.4 179.625 1107.32 153.155 1141.16 153.155C1174.99 153.155 1202.15 179.625 1202.15 213.92C1202.15 248.215 1174.99 274.684 1141.16 274.684ZM1141.16 245.683C1158.88 245.683 1172.46 232.563 1172.46 213.92C1172.46 195.276 1158.89 182.156 1141.16 182.156C1123.67 182.156 1110.09 195.276 1110.09 213.92C1110.09 232.563 1123.67 245.683 1141.16 245.683ZM1245.55 189.062C1245.55 206.094 1304.93 195.506 1304.93 237.857C1304.93 262.715 1283.29 274.684 1258.67 274.684C1235.65 274.684 1218.62 265.017 1210.33 247.294L1236.11 232.794C1239.33 242.23 1247.16 247.754 1258.67 247.754C1268.1 247.754 1274.55 244.532 1274.55 237.857C1274.55 221.055 1215.15 230.262 1215.15 189.752C1215.15 166.275 1235.18 153.155 1258.9 153.155C1277.54 153.155 1293.65 161.671 1302.63 177.553L1277.31 191.363C1273.86 183.998 1267.41 179.625 1258.9 179.625C1251.53 179.625 1245.55 182.847 1245.55 189.062ZM1336.33 142.567C1331.52 142.517 1326.93 140.585 1323.53 137.186C1320.13 133.787 1318.2 129.191 1318.15 124.384C1318.15 114.487 1326.43 105.971 1336.33 105.971C1346.46 105.971 1354.74 114.487 1354.74 124.384C1354.74 134.281 1346.46 142.567 1336.33 142.567ZM1321.6 271.462V156.378H1351.29V271.462H1321.6ZM1430.82 274.684C1396.99 274.684 1370.06 248.215 1370.06 213.92C1370.06 179.625 1396.99 153.155 1430.82 153.155C1464.66 153.155 1491.82 179.625 1491.82 213.92C1491.82 248.215 1464.66 274.684 1430.82 274.684ZM1430.82 245.683C1448.54 245.683 1462.12 232.563 1462.12 213.92C1462.12 195.276 1448.54 182.156 1430.82 182.156C1413.33 182.156 1399.75 195.276 1399.75 213.92C1399.75 232.563 1413.33 245.683 1430.82 245.683Z" fill="white"/>
<defs>
<linearGradient id="paint0_linear_4381_2176" x1="211.409" y1="36.0862" x2="211.409" y2="387.38" gradientUnits="userSpaceOnUse">
<stop stop-color="#FF8267"/>
<stop offset="0.71" stop-color="#F15836"/>
<stop offset="1" stop-color="#F33004"/>
</linearGradient>
</defs>
</svg>
