<svg width="1585" height="424" viewBox="0 0 1585 424" fill="none" xmlns="http://www.w3.org/2000/svg">
<rect x="37.7335" y="38.3698" width="347.351" height="347.351" rx="109.671" fill="url(#paint0_linear_4381_2180)"/>
<rect x="37.7335" y="38.3698" width="347.351" height="347.351" rx="109.671" stroke="#F33004" stroke-width="2.11409"/>
<path fill-rule="evenodd" clip-rule="evenodd" d="M233.844 122.777C235.101 123.474 236.089 124.572 236.649 125.896C237.208 127.22 237.309 128.694 236.933 130.081L219.84 192.748H282.204C283.459 192.747 284.686 193.113 285.736 193.801C286.785 194.489 287.611 195.468 288.11 196.62C288.61 197.771 288.762 199.043 288.547 200.279C288.333 201.515 287.762 202.662 286.904 203.578L196.799 300.115C195.813 301.154 194.51 301.835 193.094 302.05C191.678 302.266 190.231 302.003 188.98 301.305C187.73 300.606 186.748 299.511 186.19 298.192C185.632 296.873 185.528 295.406 185.897 294.022L202.977 231.368H140.614C139.359 231.369 138.131 231.003 137.082 230.315C136.032 229.627 135.207 228.647 134.708 227.496C134.208 226.345 134.056 225.073 134.27 223.837C134.485 222.6 135.056 221.454 135.914 220.538L226.019 124C227.001 122.954 228.304 122.266 229.721 122.044C231.139 121.823 232.59 122.08 233.844 122.777Z" fill="white"/>
<path d="M553.406 274.996C518.421 274.996 492.642 248.527 492.642 214.232C492.642 179.937 518.421 153.468 553.406 153.468C575.963 153.468 595.527 165.436 604.964 183.159L579.415 198.12C574.812 188.683 564.915 182.699 553.176 182.699C535.453 182.699 522.333 195.819 522.333 214.232C522.333 232.415 535.453 245.535 553.176 245.535C565.145 245.535 575.042 239.781 579.645 230.344L605.424 245.075C595.527 263.028 575.963 274.996 553.406 274.996ZM671.689 274.996C637.854 274.996 610.924 248.527 610.924 214.232C610.924 179.937 637.854 153.468 671.689 153.468C705.523 153.468 732.683 179.937 732.683 214.232C732.683 248.527 705.523 274.996 671.689 274.996ZM671.689 245.995C689.411 245.995 702.991 232.876 702.991 214.232C702.991 195.588 689.411 182.469 671.689 182.469C654.196 182.469 640.616 195.588 640.616 214.232C640.616 232.876 654.184 245.995 671.689 245.995ZM878.428 153.468C904.667 153.468 921.93 172.111 921.93 200.882V271.774H892.25V202.954C892.25 189.374 885.345 181.088 872.904 181.088C859.785 181.088 851.499 189.834 851.499 207.097V271.774H821.819V202.954C821.819 189.374 814.914 181.088 802.473 181.088C789.813 181.088 780.837 189.834 780.837 207.097V271.774H751.157V156.69H780.837V168.889C787.282 159.222 798.099 153.468 812.83 153.468C827.101 153.468 837.688 159.452 844.133 170.04C851.28 159.682 862.789 153.468 878.428 153.468ZM1011.71 153.468C1042.55 153.468 1067.87 179.937 1067.87 214.232C1067.87 248.527 1042.55 274.996 1011.71 274.996C994.906 274.996 982.707 268.782 974.421 258.194V317.808H944.729V156.69H974.409V170.27C982.707 159.682 994.906 153.468 1011.71 153.468ZM1006.18 246.686C1024.6 246.686 1038.17 233.566 1038.17 214.232C1038.17 194.898 1024.6 181.778 1006.18 181.778C988.001 181.778 974.421 194.898 974.421 214.232C974.421 233.566 987.988 246.686 1006.18 246.686ZM1141.16 274.996C1107.32 274.996 1080.4 248.527 1080.4 214.232C1080.4 179.937 1107.32 153.468 1141.16 153.468C1174.99 153.468 1202.15 179.937 1202.15 214.232C1202.15 248.527 1174.99 274.996 1141.16 274.996ZM1141.16 245.995C1158.88 245.995 1172.46 232.876 1172.46 214.232C1172.46 195.588 1158.89 182.469 1141.16 182.469C1123.67 182.469 1110.09 195.588 1110.09 214.232C1110.09 232.876 1123.67 245.995 1141.16 245.995ZM1245.55 189.374C1245.55 206.406 1304.93 195.819 1304.93 238.17C1304.93 263.028 1283.29 274.996 1258.67 274.996C1235.65 274.996 1218.62 265.329 1210.33 247.606L1236.11 233.106C1239.33 242.543 1247.16 248.067 1258.67 248.067C1268.1 248.067 1274.55 244.844 1274.55 238.17C1274.55 221.367 1215.15 230.574 1215.15 190.064C1215.15 166.587 1235.18 153.468 1258.9 153.468C1277.54 153.468 1293.65 161.984 1302.63 177.865L1277.31 191.675C1273.86 184.31 1267.41 179.937 1258.9 179.937C1251.53 179.937 1245.55 183.159 1245.55 189.374ZM1336.33 142.88C1331.52 142.829 1326.93 140.897 1323.53 137.498C1320.13 134.099 1318.2 129.503 1318.15 124.696C1318.15 114.799 1326.43 106.283 1336.33 106.283C1346.46 106.283 1354.74 114.799 1354.74 124.696C1354.74 134.594 1346.46 142.88 1336.33 142.88ZM1321.6 271.774V156.69H1351.29V271.774H1321.6ZM1430.82 274.996C1396.99 274.996 1370.06 248.527 1370.06 214.232C1370.06 179.937 1396.99 153.468 1430.82 153.468C1464.66 153.468 1491.82 179.937 1491.82 214.232C1491.82 248.527 1464.66 274.996 1430.82 274.996ZM1430.82 245.995C1448.54 245.995 1462.12 232.876 1462.12 214.232C1462.12 195.588 1448.54 182.469 1430.82 182.469C1413.33 182.469 1399.75 195.588 1399.75 214.232C1399.75 232.876 1413.33 245.995 1430.82 245.995Z" fill="#292929"/>
<defs>
<linearGradient id="paint0_linear_4381_2180" x1="211.409" y1="36.3985" x2="211.409" y2="387.692" gradientUnits="userSpaceOnUse">
<stop stop-color="#FF8267"/>
<stop offset="0.71" stop-color="#F15836"/>
<stop offset="1" stop-color="#F33004"/>
</linearGradient>
</defs>
</svg>
