<svg width="203" height="44" viewBox="0 0 203 44" fill="none" xmlns="http://www.w3.org/2000/svg">
<g clip-path="url(#clip0_698_1159)">
<path d="M196.625 0H5.5C2.46243 0 0 2.46243 0 5.5V38.5C0 41.5376 2.46243 44 5.5 44H196.625C199.663 44 202.125 41.5376 202.125 38.5V5.5C202.125 2.46243 199.663 0 196.625 0Z" fill="#7056BF"/>
<path fill-rule="evenodd" clip-rule="evenodd" d="M34.1261 15.4219L26.2666 11.3437C25.388 10.8872 24.112 10.8886 23.2347 11.3437L15.3739 15.4219C14.432 15.9101 13.75 17.0018 13.75 18.0152V26.1731C13.75 27.1892 14.4334 28.2782 15.3739 28.7663L19.3036 30.8054C19.9774 31.1519 20.8093 30.8921 21.1585 30.2197C21.5078 29.5446 21.2451 28.7154 20.5714 28.3648L16.6457 26.3284C16.5935 26.2954 16.511 26.1786 16.5 26.1731L16.4945 18.0716C16.511 18.0097 16.5935 17.8928 16.6416 17.8626L24.497 13.7857C24.6084 13.7376 24.8957 13.7389 24.9989 13.7843L32.8543 17.8598C32.9065 17.8928 32.989 18.0097 33 18.0152L33.0041 26.1181C32.989 26.1786 32.9065 26.2954 32.8597 26.3257L28.9286 28.3648C28.2549 28.7154 27.9923 29.5446 28.3415 30.2197C28.5863 30.6899 29.0675 30.9608 29.5639 30.9608C29.777 30.9608 29.9943 30.9113 30.1964 30.8054L34.1247 28.7663C35.0666 28.2782 35.75 27.1892 35.75 26.1731V18.0152C35.75 17.0018 35.068 15.9101 34.1261 15.4219Z" fill="white"/>
<path fill-rule="evenodd" clip-rule="evenodd" d="M29.847 24.3471C30.3846 23.8095 30.3846 22.9405 29.847 22.4029L25.7234 18.2792C25.5969 18.1514 25.4442 18.051 25.2751 17.9809C24.9396 17.842 24.5601 17.842 24.2246 17.9809C24.0555 18.051 23.9042 18.1514 23.7764 18.2792L19.6527 22.4029C19.1151 22.9405 19.1151 23.8095 19.6527 24.3471C19.9209 24.6152 20.2729 24.75 20.6249 24.75C20.9769 24.75 21.3289 24.6152 21.597 24.3471L23.3749 22.5692V31.625C23.3749 32.3854 23.9895 33 24.7499 33C25.5102 33 26.1249 32.3854 26.1249 31.625V22.5692L27.9027 24.3471C28.1709 24.6152 28.5229 24.75 28.8749 24.75C29.2269 24.75 29.5789 24.6152 29.847 24.3471Z" fill="white"/>
<path fill-rule="evenodd" clip-rule="evenodd" d="M111.915 29.0001C112.398 29.0001 112.988 28.9465 113.256 28.8928V27.6237C113.006 27.6952 112.63 27.7488 112.291 27.7488C111.147 27.7488 110.825 27.2483 110.825 26.2473V20.7061H113.274V19.437H110.825V16.0765H109.288V19.437H107.643V20.7061H109.288V26.587C109.288 28.2315 109.931 29.0001 111.915 29.0001ZM119.208 29.0716C121.514 29.0716 123.588 27.3913 123.588 24.156C123.588 20.9027 121.514 19.2403 119.208 19.2403C116.884 19.2403 114.811 20.9027 114.811 24.156C114.811 27.3913 116.902 29.0716 119.208 29.0716ZM119.208 27.7667C117.296 27.7667 116.366 26.158 116.366 24.156C116.366 22.0288 117.403 20.5631 119.208 20.5631C121.085 20.5631 122.032 22.1897 122.032 24.156C122.032 26.3188 120.996 27.7667 119.208 27.7667ZM130.219 28.875H131.792V22.6366H138.603V28.875H140.176V15.6475H138.603V21.1887H131.792V15.6475H130.219V28.875ZM146.897 29.0716C148.666 29.0716 149.864 28.3208 150.74 27.0696L149.846 26.2831C149.131 27.2662 148.362 27.8203 147.004 27.8203C145.449 27.8203 144.215 26.6763 144.162 24.5492H150.829V24.2275C150.829 20.8133 149.131 19.2403 146.897 19.2403C144.912 19.2403 142.624 20.724 142.624 24.156C142.624 27.445 144.662 29.0716 146.897 29.0716ZM144.197 23.3516C144.412 21.4032 145.61 20.5273 146.879 20.5273C148.434 20.5273 149.238 21.6713 149.363 23.3516H144.197ZM153.028 28.875H154.565V22.7796C155.262 21.439 156.388 20.6525 157.89 20.6525C157.943 20.6525 158.283 20.6525 158.337 20.6703L158.444 19.2403H158.247C156.406 19.2403 155.298 20.0983 154.601 21.1887H154.565V19.437H153.028V28.875ZM164.039 29.0716C166.345 29.0716 168.418 27.3913 168.418 24.156C168.418 20.9027 166.345 19.2403 164.039 19.2403C161.715 19.2403 159.641 20.9027 159.641 24.156C159.641 27.3913 161.733 29.0716 164.039 29.0716ZM164.039 27.7667C162.126 27.7667 161.197 26.158 161.197 24.156C161.197 22.0288 162.233 20.5631 164.039 20.5631C165.916 20.5631 166.863 22.1897 166.863 24.156C166.863 26.3188 165.826 27.7667 164.039 27.7667ZM170.599 28.875H172.136V25.9792L174.013 23.9593L176.801 28.875H178.446L175.014 22.8153L178.106 19.437H176.355L172.136 24.156V15.6475H170.599V28.875ZM182.95 29.0537C184.488 29.0537 185.667 28.2672 186.49 27.4628V28.875H188.045V19.437H186.49V26.2473C185.507 27.1768 184.577 27.7667 183.433 27.7667C182.235 27.7667 181.699 27.1768 181.699 25.9256V19.437H180.162V26.2473C180.162 28.0348 181.145 29.0537 182.95 29.0537Z" fill="#B7A7D5"/>
<path fill-rule="evenodd" clip-rule="evenodd" d="M47.0015 28.875H50.4871C54.6877 28.875 57.1545 26.7121 57.1545 22.2255C57.1545 17.7925 54.7413 15.6475 50.4871 15.6475H47.0015V28.875ZM48.5745 27.4628V17.0953H50.648C53.8655 17.0953 55.5815 18.6683 55.5815 22.2255C55.5815 25.9077 53.8833 27.4628 50.6837 27.4628H48.5745ZM63.2498 29.0716C65.0195 29.0716 66.2171 28.3208 67.093 27.0696L66.1992 26.2831C65.4842 27.2662 64.7156 27.8203 63.3571 27.8203C61.802 27.8203 60.5686 26.6763 60.515 24.5492H67.1823V24.2275C67.1823 20.8133 65.4842 19.2403 63.2498 19.2403C61.2657 19.2403 58.9777 20.724 58.9777 24.156C58.9777 27.445 61.0155 29.0716 63.2498 29.0716ZM60.5507 23.3516C60.7652 21.4032 61.9628 20.5273 63.232 20.5273C64.7871 20.5273 65.5915 21.6713 65.7166 23.3516H60.5507ZM69.381 32.45H70.9182V27.6595C71.7226 28.4996 72.7057 29.018 73.8676 29.018C76.1735 29.018 77.8716 27.4271 77.8716 24.1381C77.8716 20.8491 76.1913 19.2403 74.0285 19.2403C72.6163 19.2403 71.6332 19.9553 70.9182 20.7418V19.437H69.381V32.45ZM73.6531 27.7667C72.6521 27.7667 71.7405 27.2662 70.9182 26.3367V22.011C71.7047 21.153 72.5806 20.5631 73.671 20.5631C75.1903 20.5631 76.3343 21.7428 76.3343 24.156C76.3343 26.6585 75.2976 27.7667 73.6531 27.7667ZM80.1953 28.875H81.7326V15.6475H80.1953V28.875ZM88.4178 29.0716C90.7237 29.0716 92.7972 27.3913 92.7972 24.156C92.7972 20.9027 90.7237 19.2403 88.4178 19.2403C86.0941 19.2403 84.0206 20.9027 84.0206 24.156C84.0206 27.3913 86.112 29.0716 88.4178 29.0716ZM88.4178 27.7667C86.5052 27.7667 85.5757 26.158 85.5757 24.156C85.5757 22.0288 86.6125 20.5631 88.4178 20.5631C90.2947 20.5631 91.2421 22.1897 91.2421 24.156C91.2421 26.3188 90.2053 27.7667 88.4178 27.7667ZM95.5142 32.5036C97.3553 32.5036 98.0882 31.6098 98.7317 29.9475L102.771 19.437H101.216L98.4457 27.0696H98.41L95.6393 19.437H94.0127L97.6592 28.9286L97.3017 29.8581C96.9263 30.7876 96.4616 31.1987 95.4963 31.1987C94.835 31.1987 94.3702 31.1093 94.1021 31.0378L93.7446 32.2712C94.1557 32.3963 94.6741 32.5036 95.5142 32.5036Z" fill="white"/>
</g>
<defs>
<clipPath id="clip0_698_1159">
<rect width="202.125" height="44" fill="white"/>
</clipPath>
</defs>
</svg>
