<?xml version="1.0" encoding="utf-8"?>
<!-- Generator: Adobe Illustrator 23.0.4, SVG Export Plug-In . SVG Version: 6.00 Build 0)  -->
<svg version="1.1" id="Layer_1" xmlns="http://www.w3.org/2000/svg" xmlns:xlink="http://www.w3.org/1999/xlink" x="0px" y="0px"
	 viewBox="0 0 212 44" style="enable-background:new 0 0 212 44;" width="212" height="44" xml:space="preserve">
<style type="text/css">
	.st0{fill:#4F65F1;}
	.st1{fill:#FFFFFF;}
</style>
<g>
	<path class="st0" d="M206,44H6c-3.3,0-6-2.7-6-6V6c0-3.3,2.7-6,6-6h200c3.3,0,6,2.7,6,6v32C212,41.3,209.3,44,206,44z"/>
</g>
<g>
	<g>
		<path class="st1" d="M38.1,18.2c-0.4-0.2-1-0.4-1.5-0.4h-1.7c-1-3-3.3-5.3-6.4-6.2c-3.4-1-6.9-0.1-9.7,2.4
			c-0.3,0.2-0.5,0.5-0.7,0.8c-2.8,4-2.7,9,0.4,12.5c0.3,0.4,0.9,0.4,1.2,0.1c0.4-0.3,0.4-0.9,0.1-1.2c-2.5-2.9-2.7-7-0.3-10.3
			c0.1-0.2,0.3-0.4,0.5-0.5c2.4-2.1,5.3-2.9,8.1-2c2.7,0.8,4.7,2.9,5.4,5.6c0.1,0.4,0.5,0.7,0.9,0.7h2.3c0.3,0,0.5,0.1,0.7,0.2
			c1.9,1,3,2.6,3,4.4c0,1.7-0.9,3.3-2.4,4.1c-0.4,0.2-0.6,0.8-0.4,1.2c0.2,0.3,0.5,0.5,0.8,0.5c0.1,0,0.3,0,0.4-0.1
			c2.1-1.1,3.4-3.3,3.3-5.7C42,21.6,40.5,19.5,38.1,18.2z"/>
		<path class="st1" d="M29.6,20.9c-0.3-0.3-0.9-0.3-1.2,0L24,25.3c-0.3,0.3-0.3,0.9,0,1.2c0.2,0.2,0.4,0.3,0.6,0.3s0.5-0.1,0.6-0.3
			l2.8-2.8v8.2c0,0.5,0.4,0.9,0.9,0.9s0.9-0.4,0.9-0.9v-8.4l3,3c0.3,0.3,0.9,0.3,1.2,0c0.3-0.3,0.3-0.9,0-1.2L29.6,20.9z"/>
	</g>
</g>
<g>
	<path class="st1" d="M57.2,28.1c-1.2,0-2.4-0.1-2.9-0.2c-0.2,0-0.3-0.2-0.3-0.4v-11c0-0.2,0.1-0.4,0.3-0.4c0.5-0.1,1.7-0.2,2.9-0.2
		c3,0,4.8,1.5,4.8,5v2.2C62.1,26.5,60.2,28.1,57.2,28.1z M60.6,20.9c0-2.9-1.5-3.7-3.4-3.7c-0.8,0-1.2,0-1.8,0v9.5c0.5,0,1,0,1.8,0
		c1.9,0,3.4-0.8,3.4-3.7V20.9z"/>
	<path class="st1" d="M71,28c-0.6,0.1-2.2,0.1-3.1,0.1c-2.2,0-3.4-0.8-3.4-3v-6.2c0-2.1,1.2-3,3.4-3c0.9,0,2.4,0,3.1,0.1
		c0.1,0,0.2,0.1,0.2,0.2v0.8c0,0.1-0.1,0.2-0.2,0.2h-3.1c-1.7,0-2,0.4-2,1.7v2.2h4.9c0.2,0,0.3,0.1,0.3,0.3v0.6
		c0,0.2-0.1,0.3-0.3,0.3h-4.9v2.7c0,1.2,0.3,1.7,2,1.7H71c0.1,0,0.2,0.1,0.2,0.2v0.8C71.1,27.9,71.1,28,71,28z"/>
	<path class="st1" d="M76.5,23.2c-0.5,0-1.2,0-1.6-0.1v4.5c0,0.2-0.1,0.3-0.3,0.3h-0.9c-0.2,0-0.3-0.1-0.3-0.3V16.5
		c0-0.2,0.1-0.4,0.4-0.4c0.7-0.1,1.7-0.1,2.7-0.1c2.6,0,4.5,0.9,4.5,3.5v0.2C81,22.3,79.1,23.2,76.5,23.2z M79.5,19.4
		c0-1.6-1-2.2-3-2.2c-0.5,0-1.2,0-1.6,0.1v4.7c0.4,0,1.2,0.1,1.6,0.1c2.2,0,3-0.7,3-2.4V19.4z"/>
	<path class="st1" d="M89.7,27.9c-0.4,0.1-1.6,0.1-3.1,0.1c-1.7,0-3.4-0.3-3.4-3v-8.7c0-0.2,0.1-0.3,0.3-0.3h0.8
		c0.2,0,0.3,0.1,0.3,0.3v8.7c0,1.2,0.3,1.7,2,1.7h3.1c0.1,0,0.2,0.1,0.2,0.2v0.8C89.8,27.8,89.8,27.9,89.7,27.9z"/>
	<path class="st1" d="M94.9,28.1c-2.5,0-4.3-1.5-4.3-5V21c0-3.6,1.8-5,4.3-5c2.5,0,4.3,1.5,4.3,5V23C99.2,26.6,97.4,28.1,94.9,28.1z
		 M97.7,21c0-2.7-1.1-3.7-2.8-3.7c-1.7,0-2.9,1-2.9,3.7V23c0,2.7,1.1,3.7,2.9,3.7c1.7,0,2.8-1,2.8-3.7V21z"/>
	<path class="st1" d="M108.5,16.5L106,22c-0.3,0.6-0.6,0.9-0.9,1.1v4.5c0,0.2-0.1,0.3-0.3,0.3H104c-0.2,0-0.3-0.2-0.3-0.3v-4.5
		c-0.3-0.1-0.6-0.4-0.9-1.1l-2.5-5.6c0-0.1,0-0.1,0-0.2c0-0.1,0.1-0.2,0.3-0.2h1c0.1,0,0.2,0.1,0.3,0.2l2.2,5.2
		c0.2,0.4,0.3,0.4,0.4,0.4c0.1,0,0.2,0,0.4-0.4l2.2-5.2c0-0.1,0.1-0.2,0.3-0.2h1c0.2,0,0.3,0.1,0.3,0.2
		C108.5,16.3,108.5,16.4,108.5,16.5z"/>
	<path class="st1" d="M122,17.3h-3.1v10.3c0,0.2-0.1,0.3-0.3,0.3h-0.9c-0.2,0-0.3-0.1-0.3-0.3V17.3h-3.1c-0.2,0-0.3-0.1-0.3-0.3
		v-0.7c0-0.2,0.1-0.3,0.3-0.3h7.7c0.2,0,0.3,0.1,0.3,0.3V17C122.3,17.2,122.1,17.3,122,17.3z"/>
	<path class="st1" d="M127.6,28.1c-2.5,0-4.3-1.5-4.3-5V21c0-3.6,1.8-5,4.3-5c2.5,0,4.3,1.5,4.3,5V23
		C131.9,26.6,130.1,28.1,127.6,28.1z M130.5,21c0-2.7-1.1-3.7-2.8-3.7c-1.7,0-2.9,1-2.9,3.7V23c0,2.7,1.1,3.7,2.9,3.7
		c1.7,0,2.8-1,2.8-3.7V21z"/>
	<path class="st1" d="M146.4,27.9h-1c-0.2,0-0.3,0-0.4-0.2l-2.9-4.8c0,0-0.1,0-0.1,0c-0.1,0-0.2,0-0.3,0c-0.5,0-0.9,0-1.8,0v4.7
		c0,0.2-0.1,0.3-0.3,0.3h-0.9c-0.2,0-0.3-0.1-0.3-0.3V16.4c0-0.2,0.1-0.3,0.4-0.4c0.7-0.1,1.9-0.1,2.8-0.1c2.5,0,4.5,0.8,4.5,3.4
		v0.1c0,1.8-1.1,2.8-2.5,3.2l2.9,4.9c0,0,0,0.1,0,0.1C146.6,27.9,146.5,27.9,146.4,27.9z M144.7,19.4c0-1.6-1-2.1-3-2.1
		c-0.5,0-1.4,0-1.8,0v4.4c0.7,0,1.4,0,1.8,0c2,0,3-0.5,3-2.2V19.4z"/>
	<path class="st1" d="M155.2,28c-0.6,0.1-2.2,0.1-3.1,0.1c-2.2,0-3.4-0.8-3.4-3v-6.2c0-2.1,1.2-3,3.4-3c0.9,0,2.4,0,3.1,0.1
		c0.1,0,0.2,0.1,0.2,0.2v0.8c0,0.1-0.1,0.2-0.2,0.2h-3.1c-1.7,0-2,0.4-2,1.7v2.2h4.9c0.2,0,0.3,0.1,0.3,0.3v0.6
		c0,0.2-0.1,0.3-0.3,0.3h-4.9v2.7c0,1.2,0.3,1.7,2,1.7h3.1c0.1,0,0.2,0.1,0.2,0.2v0.8C155.3,27.9,155.3,28,155.2,28z"/>
	<path class="st1" d="M165.6,27.9h-1c-0.3,0-0.4-0.1-0.5-0.3l-4.9-9.4c0,0,0,0,0,0c0,0,0,0,0,0v9.3c0,0.2-0.1,0.3-0.3,0.3H158
		c-0.2,0-0.3,0-0.3-0.2V16.5c0-0.3,0.2-0.4,0.5-0.4h0.9c0.4,0,0.5,0.1,0.7,0.3l4.9,9.3l0,0c0,0,0,0,0,0v-9.4c0-0.2,0.1-0.3,0.3-0.3
		h0.8c0.2,0,0.3,0.1,0.3,0.3v11.1C166.1,27.7,165.8,27.9,165.6,27.9z"/>
	<path class="st1" d="M172,28.1c-1.2,0-2.4-0.1-2.9-0.2c-0.2,0-0.3-0.2-0.3-0.4v-11c0-0.2,0.1-0.4,0.3-0.4c0.5-0.1,1.7-0.2,2.9-0.2
		c3,0,4.8,1.5,4.8,5v2.2C176.8,26.5,174.9,28.1,172,28.1z M175.4,20.9c0-2.9-1.5-3.7-3.4-3.7c-0.8,0-1.2,0-1.8,0v9.5
		c0.5,0,1,0,1.8,0c1.9,0,3.4-0.8,3.4-3.7V20.9z"/>
	<path class="st1" d="M185.7,28c-0.6,0.1-2.2,0.1-3.1,0.1c-2.2,0-3.4-0.8-3.4-3v-6.2c0-2.1,1.2-3,3.4-3c0.9,0,2.4,0,3.1,0.1
		c0.1,0,0.2,0.1,0.2,0.2v0.8c0,0.1-0.1,0.2-0.2,0.2h-3.1c-1.7,0-2,0.4-2,1.7v2.2h4.9c0.2,0,0.3,0.1,0.3,0.3v0.6
		c0,0.2-0.1,0.3-0.3,0.3h-4.9v2.7c0,1.2,0.3,1.7,2,1.7h3.1c0.1,0,0.2,0.1,0.2,0.2v0.8C185.9,27.9,185.8,28,185.7,28z"/>
	<path class="st1" d="M196.1,27.9h-1c-0.2,0-0.3,0-0.4-0.2l-2.9-4.8c0,0-0.1,0-0.1,0c-0.1,0-0.2,0-0.3,0c-0.5,0-0.9,0-1.8,0v4.7
		c0,0.2-0.1,0.3-0.3,0.3h-0.9c-0.2,0-0.3-0.1-0.3-0.3V16.4c0-0.2,0.1-0.3,0.4-0.4c0.7-0.1,1.9-0.1,2.8-0.1c2.5,0,4.5,0.8,4.5,3.4
		v0.1c0,1.8-1.1,2.8-2.5,3.2l2.9,4.9c0,0,0,0.1,0,0.1C196.3,27.9,196.2,27.9,196.1,27.9z M194.4,19.4c0-1.6-1-2.1-3-2.1
		c-0.5,0-1.4,0-1.8,0v4.4c0.7,0,1.4,0,1.8,0c2,0,3-0.5,3-2.2V19.4z"/>
</g>
</svg>
