<svg width="215" height="44" viewBox="0 0 215 44" fill="none" xmlns="http://www.w3.org/2000/svg">
<g clip-path="url(#clip0_698_1145)">
<path d="M207.9 0.275024H6.5999C3.1067 0.275024 0.274902 3.10682 0.274902 6.60002V37.4C0.274902 40.8932 3.1067 43.725 6.5999 43.725H207.9C211.393 43.725 214.225 40.8932 214.225 37.4V6.60002C214.225 3.10682 211.393 0.275024 207.9 0.275024Z" fill="black"/>
<mask id="mask0_698_1145" style="mask-type:luminance" maskUnits="userSpaceOnUse" x="11" y="6" width="32" height="32">
<path d="M42.9 6.05005H11V37.9501H42.9V6.05005Z" fill="white"/>
</mask>
<g mask="url(#mask0_698_1145)">
<path d="M26.95 36.9932C35.2304 36.9932 41.943 30.2806 41.943 22.0002C41.943 13.7198 35.2304 7.0072 26.95 7.0072C18.6696 7.0072 11.957 13.7198 11.957 22.0002C11.957 30.2806 18.6696 36.9932 26.95 36.9932Z" fill="black"/>
<mask id="mask1_698_1145" style="mask-type:luminance" maskUnits="userSpaceOnUse" x="11" y="6" width="32" height="32">
<path d="M42.9 6.05005H11V37.9501H42.9V6.05005Z" fill="white"/>
</mask>
<g mask="url(#mask1_698_1145)">
<path d="M27.8546 19.0611C29.9942 19.0611 30.8636 19.4033 30.8636 20.4003C30.3643 20.8995 27.8546 20.4966 27.8546 19.0611ZM26.9499 35.977C26.9206 35.977 26.8911 35.9767 26.8616 35.9764C24.8568 30.3994 28.4946 24.7614 34.3263 24.7614C37.3938 24.7614 38.5045 21.2492 38.3302 19.5675C38.3128 19.4365 38.2082 19.3407 38.0861 19.3407L32.3388 19.3322C32.2393 19.332 32.145 19.2884 32.0807 19.2125L31.4889 18.5158C31.1992 18.1746 30.7815 17.9684 30.3348 17.9463L29.184 17.8888C29.0384 17.8813 28.9166 17.7797 28.8773 17.6393C28.3914 15.9068 27.4363 14.5261 26.6632 13.8763C26.6119 13.8332 26.5334 13.8543 26.5031 13.9141C26.0944 14.7231 25.7806 15.5206 25.6178 16.4614C25.6054 16.5329 25.5109 16.5329 25.4737 16.4609C24.7903 15.1334 23.9086 13.8825 22.9977 12.9739C22.9525 12.929 22.8787 12.9341 22.8408 12.9853C22.0552 14.0479 21.0923 15.8942 20.9247 19.2837C20.9172 19.4341 20.8144 19.5607 20.6685 19.5979C19.1913 19.9735 17.2006 21.0471 16.5145 21.4318C16.3589 21.5188 16.3881 21.5818 16.519 21.5966C16.65 21.6117 18.8163 21.8385 18.911 21.8485C19.0059 21.8585 19.0439 21.9353 18.9257 21.9793C17.7594 22.4135 15.3727 23.9297 14.6391 24.4033C14.4995 24.4936 14.5885 24.5521 14.667 24.5576C14.7451 24.5629 17.2699 24.6783 17.3851 24.6836C17.5002 24.6889 17.5582 24.7885 17.4109 24.8376C17.3304 24.8643 15.3864 25.6101 13.6408 26.2802C13.2074 24.9313 12.9732 23.4931 12.9732 22.0002C12.9732 14.2809 19.2308 8.02323 26.9499 8.02323C34.6694 8.02323 40.927 14.2809 40.927 22.0002C40.927 29.7196 34.6694 35.977 26.9499 35.977ZM26.9499 6.05005C18.1552 6.05005 11 13.2052 11 22.0002C11 30.7949 18.1552 37.95 26.9499 37.95C35.7447 37.95 42.9 30.7949 42.9 22.0002C42.9 13.2052 35.7447 6.05005 26.9499 6.05005Z" fill="white"/>
</g>
</g>
<path d="M58.0903 28.05V17.2034H54.4189V15.887H63.3185V17.2034H59.6473V28.05H58.0903ZM65.5092 28.05V15.887H69.3097C70.138 15.887 70.8733 15.9983 71.5163 16.2208C72.1592 16.4309 72.6598 16.7894 73.0184 17.2962C73.3891 17.7906 73.5744 18.4581 73.5744 19.2986C73.5744 20.1144 73.3891 20.7881 73.0184 21.3196C72.6598 21.8511 72.1592 22.2528 71.5163 22.5248C70.8733 22.7843 70.138 22.9141 69.3097 22.9141H67.0481V28.05H65.5092ZM67.0481 21.6533H69.0875C70.039 21.6533 70.7683 21.4617 71.2754 21.0785C71.7819 20.683 72.0355 20.0897 72.0355 19.2986C72.0355 18.5075 71.7819 17.9513 71.2754 17.6299C70.7683 17.2962 70.039 17.1293 69.0875 17.1293H67.0481V21.6533ZM72.184 28.05L69.0132 22.4877L70.2183 21.6719L73.9264 28.05H72.184ZM78.0124 28.05V23.3406L74.3598 15.887H76.0098L77.5861 19.3172C77.7714 19.7621 77.9568 20.2009 78.1421 20.6336C78.3401 21.0662 78.5436 21.5112 78.7537 21.9685H78.828C79.0508 21.5112 79.2608 21.0662 79.4588 20.6336C79.6689 20.2009 79.8664 19.7621 80.0517 19.3172L81.6093 15.887H83.2225L79.5513 23.3406V28.05H78.0124ZM88.5767 28.05V15.887H90.2642L94.5838 23.4518C94.8187 23.8597 95.0414 24.2861 95.2515 24.7311C95.4616 25.1638 95.6717 25.6088 95.8818 26.0661H95.9561C95.9193 25.4357 95.8758 24.793 95.8263 24.1379C95.7768 23.4704 95.7521 22.8276 95.7521 22.2096V15.887H97.2354V28.05H95.548L91.2283 20.4852C91.0055 20.0773 90.7767 19.6509 90.5419 19.2059C90.3197 18.7609 90.1096 18.3159 89.9116 17.8709H89.8374C89.8869 18.4766 89.9303 19.1008 89.9671 19.7436C90.0166 20.3864 90.0414 21.0353 90.0414 21.6904V28.05H88.5767ZM98.9684 28.05L103.085 15.887H104.827L108.943 28.05H107.312L105.18 21.2454C104.957 20.5655 104.747 19.8919 104.549 19.2244C104.351 18.5446 104.154 17.8524 103.956 17.1478H103.882C103.696 17.8524 103.505 18.5446 103.307 19.2244C103.109 19.8919 102.899 20.5655 102.677 21.2454L100.526 28.05H98.9684ZM101.119 24.3418V23.118H106.737V24.3418H101.119ZM110.649 28.05V15.887H112.336L116.656 23.4518C116.891 23.8597 117.113 24.2861 117.324 24.7311C117.534 25.1638 117.744 25.6088 117.954 26.0661H118.028C117.991 25.4357 117.948 24.793 117.898 24.1379C117.849 23.4704 117.824 22.8276 117.824 22.2096V15.887H119.307V28.05H117.62L113.3 20.4852C113.078 20.0773 112.849 19.6509 112.614 19.2059C112.392 18.7609 112.181 18.3159 111.984 17.8709H111.909C111.959 18.4766 112.002 19.1008 112.039 19.7436C112.089 20.3864 112.113 21.0353 112.113 21.6904V28.05H110.649ZM127.437 28.2725C126.362 28.2725 125.41 28.0253 124.581 27.5309C123.766 27.0241 123.123 26.3009 122.653 25.3615C122.183 24.4221 121.949 23.2911 121.949 21.9685C121.949 20.992 122.085 20.1144 122.357 19.3357C122.641 18.5569 123.03 17.8956 123.525 17.3518C124.031 16.7956 124.625 16.3753 125.305 16.091C125.984 15.8067 126.726 15.6646 127.529 15.6646C128.37 15.6646 129.075 15.819 129.643 16.1281C130.224 16.4371 130.688 16.7832 131.034 17.1664L130.181 18.1305C129.884 17.8091 129.526 17.5433 129.106 17.3332C128.698 17.1231 128.184 17.018 127.567 17.018C126.751 17.018 126.04 17.222 125.434 17.6299C124.829 18.0254 124.359 18.5879 124.025 19.3172C123.704 20.0464 123.543 20.9179 123.543 21.9314C123.543 22.9574 123.698 23.8412 124.007 24.5828C124.328 25.3245 124.785 25.8992 125.379 26.3072C125.984 26.715 126.72 26.919 127.585 26.919C128.018 26.919 128.432 26.8572 128.827 26.7336C129.223 26.5976 129.538 26.4184 129.773 26.1959V23.0254H127.196V21.746H131.182V26.8634C130.799 27.2713 130.28 27.6112 129.625 27.8831C128.982 28.1427 128.253 28.2725 127.437 28.2725ZM138.584 28.2725C137.57 28.2725 136.668 28.0129 135.877 27.4938C135.098 26.9746 134.486 26.2391 134.041 25.2874C133.609 24.3356 133.392 23.2108 133.392 21.9129C133.392 20.615 133.609 19.5026 134.041 18.5755C134.486 17.6361 135.098 16.9192 135.877 16.4247C136.668 15.9179 137.57 15.6646 138.584 15.6646C139.61 15.6646 140.512 15.9179 141.29 16.4247C142.069 16.9192 142.681 17.6361 143.126 18.5755C143.571 19.5026 143.793 20.615 143.793 21.9129C143.793 23.2108 143.571 24.3356 143.126 25.2874C142.681 26.2391 142.069 26.9746 141.29 27.4938C140.512 28.0129 139.61 28.2725 138.584 28.2725ZM138.584 26.9004C139.313 26.9004 139.943 26.6965 140.475 26.2886C141.019 25.8807 141.439 25.3059 141.735 24.5643C142.032 23.8103 142.18 22.9265 142.18 21.9129C142.18 20.9117 142.032 20.0464 141.735 19.3172C141.439 18.5879 141.019 18.0254 140.475 17.6299C139.943 17.222 139.313 17.018 138.584 17.018C137.867 17.018 137.236 17.222 136.692 17.6299C136.148 18.0254 135.728 18.5879 135.432 19.3172C135.135 20.0464 134.987 20.9117 134.987 21.9129C134.987 22.9265 135.135 23.8103 135.432 24.5643C135.728 25.3059 136.148 25.8807 136.692 26.2886C137.236 26.6965 137.867 26.9004 138.584 26.9004ZM154.738 28.2725C153.724 28.2725 152.81 28.0253 151.993 27.5309C151.19 27.0241 150.56 26.3009 150.102 25.3615C149.645 24.4221 149.416 23.2911 149.416 21.9685C149.416 20.992 149.546 20.1144 149.805 19.3357C150.078 18.5569 150.461 17.8956 150.956 17.3518C151.449 16.7956 152.018 16.3753 152.661 16.091C153.316 15.8067 154.033 15.6646 154.812 15.6646C155.541 15.6646 156.19 15.8129 156.759 16.1095C157.339 16.4062 157.803 16.7584 158.149 17.1664L157.315 18.1119C156.993 17.7659 156.623 17.5001 156.203 17.3147C155.794 17.1169 155.337 17.018 154.83 17.018C154.076 17.018 153.409 17.222 152.828 17.6299C152.26 18.0254 151.814 18.594 151.493 19.3357C151.172 20.0649 151.011 20.9302 151.011 21.9314C151.011 22.9574 151.166 23.8412 151.474 24.5828C151.783 25.3245 152.228 25.8992 152.81 26.3072C153.39 26.7027 154.07 26.9004 154.849 26.9004C155.418 26.9004 155.924 26.7954 156.369 26.5852C156.827 26.3628 157.241 26.0414 157.612 25.6211L158.427 26.5296C157.945 27.0858 157.408 27.5185 156.814 27.8275C156.221 28.1241 155.529 28.2725 154.738 28.2725ZM160.713 28.05V15.887H162.252V26.7336H167.573V28.05H160.713ZM173.746 28.2725C172.733 28.2725 171.831 28.0129 171.039 27.4938C170.261 26.9746 169.649 26.2391 169.204 25.2874C168.771 24.3356 168.555 23.2108 168.555 21.9129C168.555 20.615 168.771 19.5026 169.204 18.5755C169.649 17.6361 170.261 16.9192 171.039 16.4247C171.831 15.9179 172.733 15.6646 173.746 15.6646C174.772 15.6646 175.675 15.9179 176.454 16.4247C177.232 16.9192 177.844 17.6361 178.289 18.5755C178.734 19.5026 178.957 20.615 178.957 21.9129C178.957 23.2108 178.734 24.3356 178.289 25.2874C177.844 26.2391 177.232 26.9746 176.454 27.4938C175.675 28.0129 174.772 28.2725 173.746 28.2725ZM173.746 26.9004C174.476 26.9004 175.106 26.6965 175.638 26.2886C176.181 25.8807 176.602 25.3059 176.898 24.5643C177.195 23.8103 177.343 22.9265 177.343 21.9129C177.343 20.9117 177.195 20.0464 176.898 19.3172C176.602 18.5879 176.181 18.0254 175.638 17.6299C175.106 17.222 174.476 17.018 173.746 17.018C173.03 17.018 172.399 17.222 171.856 17.6299C171.312 18.0254 170.891 18.5879 170.594 19.3172C170.298 20.0464 170.149 20.9117 170.149 21.9129C170.149 22.9265 170.298 23.8103 170.594 24.5643C170.891 25.3059 171.312 25.8807 171.856 26.2886C172.399 26.6965 173.03 26.9004 173.746 26.9004ZM185.892 28.2725C185.262 28.2725 184.681 28.186 184.149 28.0129C183.63 27.8275 183.173 27.537 182.777 27.1415C182.381 26.7336 182.073 26.1959 181.85 25.5284C181.627 24.8609 181.516 24.0513 181.516 23.0995V15.887H183.055V23.1366C183.055 24.0884 183.179 24.8424 183.426 25.3986C183.686 25.9425 184.025 26.3319 184.446 26.5667C184.878 26.7892 185.361 26.9004 185.892 26.9004C186.423 26.9004 186.906 26.7892 187.338 26.5667C187.784 26.3319 188.136 25.9425 188.395 25.3986C188.655 24.8424 188.785 24.0884 188.785 23.1366V15.887H190.249V23.0995C190.249 24.0513 190.138 24.8609 189.915 25.5284C189.705 26.1959 189.403 26.7336 189.007 27.1415C188.611 27.537 188.148 27.8275 187.616 28.0129C187.085 28.186 186.51 28.2725 185.892 28.2725ZM193.522 28.05V15.887H196.563C197.812 15.887 198.862 16.1219 199.715 16.5916C200.568 17.0613 201.211 17.7473 201.644 18.6497C202.088 19.5396 202.311 20.6274 202.311 21.9129C202.311 23.1984 202.088 24.3047 201.644 25.2317C201.211 26.1465 200.574 26.8448 199.733 27.3269C198.893 27.809 197.861 28.05 196.637 28.05H193.522ZM195.061 26.7892H196.452C197.404 26.7892 198.195 26.5976 198.825 26.2144C199.456 25.8189 199.925 25.2627 200.234 24.5457C200.543 23.8288 200.698 22.9512 200.698 21.9129C200.698 20.8993 200.543 20.0341 200.234 19.3172C199.925 18.6002 199.456 18.0625 198.825 17.7041C198.195 17.3333 197.404 17.1478 196.452 17.1478H195.061V26.7892Z" fill="white"/>
<path d="M207.9 0.275024H6.5999C3.1067 0.275024 0.274902 3.10682 0.274902 6.60002V37.4C0.274902 40.8932 3.1067 43.725 6.5999 43.725H207.9C211.393 43.725 214.225 40.8932 214.225 37.4V6.60002C214.225 3.10682 211.393 0.275024 207.9 0.275024Z" stroke="white"/>
</g>
<defs>
<clipPath id="clip0_698_1145">
<rect width="214.5" height="44" fill="white"/>
</clipPath>
</defs>
</svg>
