<svg width="6292" height="1496" viewBox="0 0 6292 1496" fill="none" xmlns="http://www.w3.org/2000/svg">
<g clip-path="url(#clip0_126_579)">
<path d="M1057.24 12.8672H489.955C240.736 12.8672 38.7031 214.9 38.7031 464.119V1031.41C38.7031 1280.63 240.736 1482.66 489.955 1482.66H1057.24C1306.46 1482.66 1508.5 1280.63 1508.5 1031.41V464.119C1508.5 214.9 1306.46 12.8672 1057.24 12.8672Z" fill="url(#paint0_linear_126_579)"/>
<path d="M1057.24 12.8672H489.955C240.736 12.8672 38.7031 214.9 38.7031 464.119V1031.41C38.7031 1280.63 240.736 1482.66 489.955 1482.66H1057.24C1306.46 1482.66 1508.5 1280.63 1508.5 1031.41V464.119C1508.5 214.9 1306.46 12.8672 1057.24 12.8672Z" stroke="#E24827" stroke-width="25.7858"/>
<path fill-rule="evenodd" clip-rule="evenodd" d="M869.077 367.721C874.429 370.689 878.632 375.365 881.015 381.002C883.399 386.638 883.826 392.911 882.228 398.818L809.46 665.599H1074.95C1080.29 665.594 1085.52 667.152 1089.99 670.08C1094.45 673.009 1097.97 677.18 1100.1 682.081C1102.22 686.981 1102.87 692.396 1101.96 697.66C1101.04 702.923 1098.61 707.805 1094.96 711.704L711.371 1122.68C707.174 1127.1 701.623 1130 695.596 1130.92C689.568 1131.83 683.407 1130.72 678.085 1127.74C672.763 1124.77 668.583 1120.1 666.206 1114.49C663.828 1108.88 663.389 1102.63 664.956 1096.74L737.672 830.009H472.181C466.84 830.014 461.613 828.456 457.145 825.527C452.678 822.599 449.164 818.427 447.037 813.527C444.911 808.627 444.263 803.211 445.176 797.948C446.088 792.684 448.52 787.803 452.172 783.904L835.762 372.929C839.943 368.477 845.49 365.546 851.525 364.603C857.559 363.659 863.736 364.757 869.077 367.721Z" fill="white"/>
<path d="M2224.98 1070.93C2076.04 1070.93 1966.3 958.242 1966.3 812.243C1966.3 666.243 2076.04 553.559 2224.98 553.559C2321.01 553.559 2404.3 604.512 2444.47 679.961L2335.7 743.652C2316.11 703.478 2273.97 678.002 2224 678.002C2148.55 678.002 2092.7 733.854 2092.7 812.243C2092.7 889.652 2148.55 945.504 2224 945.504C2274.95 945.504 2317.09 921.007 2336.68 880.833L2446.43 943.544C2404.3 1019.97 2321.01 1070.93 2224.98 1070.93ZM2728.53 1070.93C2584.49 1070.93 2469.84 958.242 2469.84 812.243C2469.84 666.243 2584.49 553.559 2728.53 553.559C2872.57 553.559 2988.19 666.243 2988.19 812.243C2988.19 958.242 2872.57 1070.93 2728.53 1070.93ZM2728.53 947.463C2803.98 947.463 2861.79 891.611 2861.79 812.243C2861.79 732.874 2803.98 677.022 2728.53 677.022C2654.06 677.022 2596.24 732.874 2596.24 812.243C2596.24 891.611 2654.01 947.463 2728.53 947.463ZM3608.65 553.559C3720.35 553.559 3793.84 632.928 3793.84 755.411V1057.21H3667.49V764.229C3667.49 706.418 3638.1 671.143 3585.13 671.143C3529.28 671.143 3494 708.377 3494 781.867V1057.21H3367.65V764.229C3367.65 706.418 3338.26 671.143 3285.29 671.143C3231.4 671.143 3193.19 708.377 3193.19 781.867V1057.21H3066.84V567.277H3193.19V619.21C3220.62 578.056 3266.68 553.559 3329.39 553.559C3390.14 553.559 3435.21 579.036 3462.65 624.109C3493.08 580.015 3542.07 553.559 3608.65 553.559ZM4176.04 553.559C4307.34 553.559 4415.13 666.243 4415.13 812.243C4415.13 958.242 4307.34 1070.93 4176.04 1070.93C4104.51 1070.93 4052.58 1044.47 4017.3 999.396V1253.18H3890.9V567.277H4017.25V625.089C4052.58 580.015 4104.51 553.559 4176.04 553.559ZM4152.52 950.403C4230.91 950.403 4288.67 894.551 4288.67 812.243C4288.67 729.934 4230.91 674.082 4152.52 674.082C4075.11 674.082 4017.3 729.934 4017.3 812.243C4017.3 894.551 4075.06 950.403 4152.52 950.403ZM4727.13 1070.93C4583.1 1070.93 4468.45 958.242 4468.45 812.243C4468.45 666.243 4583.1 553.559 4727.13 553.559C4871.17 553.559 4986.8 666.243 4986.8 812.243C4986.8 958.242 4871.17 1070.93 4727.13 1070.93ZM4727.13 947.463C4802.58 947.463 4860.4 891.611 4860.4 812.243C4860.4 732.874 4802.64 677.022 4727.13 677.022C4652.67 677.022 4594.85 732.874 4594.85 812.243C4594.85 891.611 4652.67 947.463 4727.13 947.463ZM5171.53 706.418C5171.53 778.927 5424.33 733.854 5424.33 914.148C5424.33 1019.97 5332.22 1070.93 5227.38 1070.93C5129.39 1070.93 5056.88 1029.77 5021.61 954.322L5131.35 892.591C5145.07 932.766 5178.39 956.282 5227.38 956.282C5267.55 956.282 5294.99 942.564 5294.99 914.148C5294.99 842.618 5042.13 881.813 5042.13 709.357C5042.13 609.411 5127.38 553.559 5228.36 553.559C5307.73 553.559 5376.32 589.814 5414.53 657.424L5306.75 716.216C5292.05 684.861 5264.61 666.243 5228.36 666.243C5197 666.243 5171.53 679.961 5171.53 706.418ZM5558.01 508.485C5537.54 508.271 5517.98 500.046 5503.51 485.576C5489.04 471.105 5480.81 451.54 5480.6 431.076C5480.6 388.942 5515.87 352.688 5558.01 352.688C5601.12 352.688 5636.39 388.942 5636.39 431.076C5636.39 473.21 5601.12 508.485 5558.01 508.485ZM5495.29 1057.21V567.277H5621.7V1057.21H5495.29ZM5960.26 1070.93C5816.22 1070.93 5701.58 958.242 5701.58 812.243C5701.58 666.243 5816.22 553.559 5960.26 553.559C6104.3 553.559 6219.93 666.243 6219.93 812.243C6219.93 958.242 6104.3 1070.93 5960.26 1070.93ZM5960.26 947.463C6035.71 947.463 6093.53 891.611 6093.53 812.243C6093.53 732.874 6035.71 677.022 5960.26 677.022C5885.8 677.022 5827.98 732.874 5827.98 812.243C5827.98 891.611 5885.8 947.463 5960.26 947.463Z" fill="black"/>
</g>
<defs>
<linearGradient id="paint0_linear_126_579" x1="773.599" y1="-0.0257287" x2="773.599" y2="1495.55" gradientUnits="userSpaceOnUse">
<stop stop-color="#FF8267"/>
<stop offset="0.71" stop-color="#F15836"/>
<stop offset="1" stop-color="#F33004"/>
</linearGradient>
<clipPath id="clip0_126_579">
<rect width="6291.74" height="1495.58" fill="white"/>
</clipPath>
</defs>
</svg>
