<svg width="677" height="123" viewBox="0 0 677 123" fill="none" xmlns="http://www.w3.org/2000/svg">
<g clip-path="url(#clip0_2_396)">
<path d="M102.18 33.85L34.5023 20.0087C30.0648 19.0977 25.8918 22.5065 25.8918 27.0322V59.0936V60.798V92.859C25.8918 97.3847 30.0648 100.794 34.5023 99.8829L102.18 86.0415" stroke="white" stroke-width="3.43015" stroke-miterlimit="10" stroke-linecap="round" stroke-linejoin="round"/>
<path d="M49.9235 8.87123C49.9237 2.51319 56.4226 -1.73892 62.2423 0.695182L62.5192 0.816015L62.5254 0.819543L98.7302 17.5403C101.908 18.9726 103.899 22.1461 103.9 25.592V39.7567C103.9 44.9242 99.4988 49.0053 94.3571 48.6075L53.3536 45.5471V74.344L94.3508 71.2834L94.8313 71.2588C99.7553 71.1388 103.898 75.1151 103.869 80.1051V94.2698C103.869 97.7424 101.825 100.869 98.7059 102.32L98.7004 102.321L62.5263 119.012L62.5272 119.013C56.6282 121.743 49.9235 117.443 49.9235 110.962V97.4634C49.6577 97.5681 49.3731 97.6377 49.0742 97.6594L29.0653 99.0999C27.3934 99.22 25.9707 97.8951 25.9704 96.2188V81.3638C25.9705 80.7879 26.1425 80.2477 26.4379 79.7929L9.97728 81.0225H9.97114C4.84357 81.386 0.435072 77.3177 0.435059 72.1708V47.7202C0.435428 42.5512 4.83999 38.4682 9.98351 38.8695H9.98261L26.079 40.0708C26.0092 39.8222 25.9705 39.5609 25.9704 39.2911V23.6428C25.9704 21.3581 28.0142 19.6154 30.2702 19.9764L49.3229 23.0246C49.5323 23.0581 49.7328 23.1153 49.9235 23.1903V8.87123ZM94.6182 74.7039H94.6118L53.3536 77.7837V95.6878L100.44 85.8461V80.0928L100.435 79.8018C100.294 76.8093 97.6708 74.4657 94.6182 74.7039ZM25.3089 43.4532C25.5967 43.9033 25.7639 44.4367 25.764 45.0063V75.413C25.764 75.7655 25.6979 76.1031 25.5815 76.4166L49.9235 74.5998V45.2904L25.3089 43.4532ZM53.3536 42.1073L94.6118 45.1872L94.6182 45.1881L94.9108 45.2031C97.9282 45.2766 100.47 42.8343 100.47 39.7567V33.8024L53.3536 23.9533V42.1073Z" fill="white"/>
</g>
<path d="M645.482 102.441C626.178 102.441 614.085 89.4608 614.085 71.044C614.085 52.5164 626.178 39.5359 645.482 39.5359C664.787 39.5359 676.88 52.5164 676.88 71.044C676.88 89.4608 664.787 102.441 645.482 102.441ZM645.482 90.903C654.691 90.903 659.572 83.2479 659.572 71.044C659.572 58.7292 654.691 51.0741 645.482 51.0741C636.274 51.0741 631.392 58.7292 631.392 71.044C631.392 83.2479 636.274 90.903 645.482 90.903Z" fill="white"/>
<path d="M607.739 32.7689H590.21V16.793H607.739V32.7689ZM607.407 101.111H590.432V40.8678H607.407V101.111Z" fill="white"/>
<path d="M555.782 102.441C540.915 102.441 529.821 96.1174 527.713 82.9151H544.799C546.019 89.017 551.122 90.903 556.448 90.903C563.881 90.903 567.875 88.4623 567.875 84.5792C567.875 80.9181 565.434 79.1429 557.224 77.2569L546.574 74.9271C535.146 72.4863 528.934 67.161 528.934 58.1745C528.934 46.7473 540.694 39.5359 555.116 39.5359C568.762 39.5359 580.19 45.194 582.852 56.8432H565.767C564.436 53.0711 560.109 51.0741 555.227 51.0741C549.791 51.0741 545.131 53.0711 545.131 56.8432C545.131 60.2824 548.571 61.6138 554.783 62.9451L565.434 65.2749C578.082 68.0485 584.073 73.4848 584.073 83.2479C584.073 95.5627 571.869 102.441 555.782 102.441Z" fill="white"/>
<path d="M493.572 102.441C474.268 102.441 462.175 89.4608 462.175 71.044C462.175 52.5164 474.268 39.5359 493.572 39.5359C512.877 39.5359 524.969 52.5164 524.969 71.044C524.969 89.4608 512.877 102.441 493.572 102.441ZM493.572 90.903C502.781 90.903 507.662 83.2479 507.662 71.044C507.662 58.7292 502.781 51.0741 493.572 51.0741C484.364 51.0741 479.482 58.7292 479.482 71.044C479.482 83.2479 484.364 90.903 493.572 90.903Z" fill="white"/>
<path d="M433.747 39.5359C448.613 39.5359 458.598 52.9601 458.598 71.044C458.598 89.1279 448.613 102.441 433.747 102.441C424.427 102.441 416.994 96.7831 413.777 89.017V122.855H396.913V40.8672H413.777V54.4024C416.44 46.5254 423.207 39.5359 433.747 39.5359ZM427.201 90.903C436.409 90.903 441.291 83.2479 441.291 71.044C441.291 58.7292 436.409 51.0741 427.201 51.0741C417.993 51.0741 413.111 58.7292 413.111 71.044C413.111 83.2479 417.993 90.903 427.201 90.903Z" fill="white"/>
<path d="M368.273 39.5359C381.808 39.5359 387.577 49.4099 387.577 62.9451V63.167V101.11H370.603V66.8281V66.6063C370.603 56.1775 367.386 51.4069 360.396 51.4069C353.407 51.4069 350.078 56.1775 350.078 66.8281V101.11H333.104V66.8281V66.6063C333.104 56.1775 329.886 51.4069 322.897 51.4069C315.908 51.4069 312.579 56.1775 312.579 66.8281V101.11H295.605V40.8672H312.468V53.182C315.353 45.7488 320.789 39.5359 330.996 39.5359C341.425 39.5359 347.194 46.5254 349.302 54.1805C351.964 46.8582 357.733 39.5359 368.273 39.5359Z" fill="white"/>
<path d="M257.697 102.441C238.393 102.441 226.3 89.4608 226.3 71.044C226.3 52.5164 238.393 39.5359 257.697 39.5359C277.002 39.5359 289.094 52.5164 289.094 71.044C289.094 89.4608 277.002 102.441 257.697 102.441ZM257.697 90.903C266.906 90.903 271.787 83.2479 271.787 71.044C271.787 58.7292 266.906 51.0741 257.697 51.0741C248.489 51.0741 243.607 58.7292 243.607 71.044C243.607 83.2479 248.489 90.903 257.697 90.903Z" fill="white"/>
<path d="M183.931 102.443C160.633 102.443 142.771 85.801 142.771 58.9525C142.771 32.215 160.522 15.4624 184.042 15.4624C204.012 15.4624 219.322 26.6678 223.76 45.5283H205.454C202.237 36.4308 195.802 29.3304 184.042 29.3304C170.063 29.3304 160.855 40.9796 160.855 58.9525C160.855 77.0364 170.396 88.5746 184.042 88.5746C195.136 88.5746 202.57 82.6946 206.009 72.1549H224.315C218.768 93.0124 203.568 102.443 183.931 102.443Z" fill="white"/>
<defs>
<clipPath id="clip0_2_396">
<rect width="103.863" height="120.12" fill="white" transform="translate(0.435059)"/>
</clipPath>
</defs>
</svg>
